<?xml version="1.0" standalone="no"?>
<!DOCTYPE svg PUBLIC "-//W3C//DTD SVG 1.1//EN" "http://www.w3.org/Graphics/SVG/1.1/DTD/svg11.dtd" >
<svg xmlns="http://www.w3.org/2000/svg" xmlns:xlink="http://www.w3.org/1999/xlink" version="1.1">
<metadata>
Created by FontForge 20190801 at Mon Jun 15 19:27:52 2020
 By Jimmy Wärting
Copyright 2020 The Kanit Project Authors (https://github.com/cadsondemak/kanit)
</metadata>
<defs>
<font id="Kanit-BlackItalic" horiz-adv-x="0" >
  <font-face 
    font-family="Kanit Black"
    font-weight="900"
    font-style="italic"
    font-stretch="normal"
    units-per-em="1000"
    panose-1="0 0 0 0 0 0 0 0 0 0"
    ascent="800"
    descent="-200"
    x-height="474"
    cap-height="644"
    bbox="-628 -391 1460 1174"
    underline-thickness="50"
    underline-position="-125"
    slope="-12"
    unicode-range="U+000D-FB02"
  />
<missing-glyph horiz-adv-x="441" 
d="M-41 0v714h411v-714h-411zM10 51h309v612h-309v-612z" />
    <glyph glyph-name="fi" unicode="fi" horiz-adv-x="621" 
d="M-5 0l63 300h-56l37 174h56l2 10q13 62 45.5 108t90.5 72t144 26q46 0 83 -5.5t65 -17.5l-32 -154q-25 10 -58 10q-51 0 -72 -13t-24 -30l-2 -6h292l-100 -474h-242l63 300h-50l-63 -300h-242z" />
    <glyph glyph-name="fl" unicode="fl" horiz-adv-x="621" 
d="M-5 0l63 300h-56l37 174h56l2 10q19 95 87 150.5t193 55.5q41 0 76 -6t63 -16h154l-141 -668h-237l63 300h-60l-63 -300h-237zM330 474h66l10 48q-38 0 -53.5 -9.5t-20.5 -32.5z" />
    <glyph glyph-name="uni0E240E45" unicode="&#xe24;&#xe45;" horiz-adv-x="970" 
d="M274 -160l100 470q2 9 3 16t1 14q0 22 -13 32t-45 10q-22 0 -42.5 -4.5t-37.5 -11.5v-2l91 -36l-20 -95q-49 -15 -59 -59l-1 -9q-1 -3 -1 -8q0 -17 20 -17h23l-29 -140h-188q-43 0 -65.5 21t-22.5 56q0 12 3 27l13 65q8 32 33.5 63t60.5 44l-75 29l33 155q57 33 138 61.5
t175 28.5q64 0 110.5 -10.5t77.5 -29.5q35 17 86.5 28.5t101.5 11.5q210 0 210 -162q0 -16 -2 -32.5t-6 -35.5l-103 -480h-221l94 442q2 8 3 14.5t1 12.5q0 23 -15 34t-50 11h-11.5t-10.5 -1q-1 -7 -1.5 -14t-2.5 -14l-104 -485h-252z" />
    <glyph glyph-name="uni0E260E45" unicode="&#xe26;&#xe45;" horiz-adv-x="993" 
d="M297 -160l100 470q2 9 3 16t1 14q0 22 -13 32t-45 10q-22 0 -42.5 -4.5t-37.5 -11.5v-2l91 -36l-20 -95q-22 -7 -31.5 -20t-14.5 -36l-15 -73q-10 -46 -44.5 -75t-84.5 -29h-185l31 150h20q26 0 31 25l2 11q7 32 25 54.5t53 35.5l-75 29l33 155q57 33 138 61.5t175 28.5
q64 0 110.5 -10.5t77.5 -29.5q35 17 86.5 28.5t101.5 11.5q108 0 159 -43t51 -120q0 -16 -2 -32.5t-6 -34.5l-103 -480h-221l94 442q3 15 3 26q0 23 -15 34.5t-49 11.5h-11.5t-10.5 -1q-1 -7 -1.5 -14t-2.5 -14l-104 -485h-252z" />
    <glyph glyph-name=".notdef" horiz-adv-x="441" 
d="M-41 0v714h411v-714h-411zM10 51h309v612h-309v-612z" />
    <glyph glyph-name="A" unicode="A" horiz-adv-x="777" 
d="M-42 0l384 644h251l112 -644h-240l-21 120h-156l-71 -120h-259zM349 285h98l-23 123z" />
    <glyph glyph-name="Aacute" unicode="&#xc1;" horiz-adv-x="777" 
d="M385 688l144 226h186l-153 -226h-177zM-42 0l384 644h251l112 -644h-240l-21 120h-156l-71 -120h-259zM349 285h98l-23 123z" />
    <glyph glyph-name="Abreve" unicode="&#x102;" horiz-adv-x="777" 
d="M476 688q-83 0 -131 40.5t-48 117.5q0 14 1.5 30t5.5 32h147q-2 -8 -3 -16.5t-1 -16.5q0 -23 11 -39t39 -16q38 0 58 27t27 61h162q-23 -107 -95 -163.5t-173 -56.5zM-42 0l384 644h251l112 -644h-240l-21 120h-156l-71 -120h-259zM349 285h98l-23 123z" />
    <glyph glyph-name="uni1EAE" unicode="&#x1eae;" horiz-adv-x="777" 
d="M454 895l111 172h155l-118 -172h-148zM478 688q-70 0 -117 33.5t-47 103.5q0 24 6 51h127q-1 -7 -2.5 -14t-1.5 -12q0 -45 52 -45q39 0 56.5 20.5t24.5 50.5h141q-21 -97 -84.5 -142.5t-154.5 -45.5zM-42 0l384 644h251l112 -644h-240l-21 120h-156l-71 -120h-259z
M349 285h98l-23 123z" />
    <glyph glyph-name="uni1EB6" unicode="&#x1eb6;" horiz-adv-x="777" 
d="M476 688q-83 0 -131 40.5t-48 117.5q0 14 1.5 30t5.5 32h147q-2 -8 -3 -16.5t-1 -16.5q0 -23 11 -39t39 -16q38 0 58 27t27 61h162q-23 -107 -95 -163.5t-173 -56.5zM-42 0l384 644h251l112 -644h-240l-21 120h-156l-71 -120h-259zM349 285h98l-23 123zM208 -213l30 141
h156l-30 -141h-156z" />
    <glyph glyph-name="uni1EB0" unicode="&#x1eb0;" horiz-adv-x="777" 
d="M443 895l-47 172h156l39 -172h-148zM478 688q-70 0 -117 33.5t-47 103.5q0 24 6 51h127q-1 -7 -2.5 -14t-1.5 -12q0 -45 52 -45q39 0 56.5 20.5t24.5 50.5h141q-21 -97 -84.5 -142.5t-154.5 -45.5zM-42 0l384 644h251l112 -644h-240l-21 120h-156l-71 -120h-259zM349 285
h98l-23 123z" />
    <glyph glyph-name="uni1EB2" unicode="&#x1eb2;" horiz-adv-x="777" 
d="M443 896l13 63q44 2 63 12.5t19 26.5q0 11 -9.5 15t-29.5 4q-13 0 -26.5 -3.5t-24.5 -7.5l18 82q21 5 54 9t64 4q56 0 84 -21.5t28 -53.5q0 -4 -0.5 -8t-1.5 -9q-7 -34 -27 -54t-61 -32l-6 -27h-157zM478 688q-70 0 -117 33.5t-47 103.5q0 24 6 51h127q-1 -7 -2.5 -14
t-1.5 -12q0 -45 52 -45q39 0 56.5 20.5t24.5 50.5h141q-21 -97 -84.5 -142.5t-154.5 -45.5zM-42 0l384 644h251l112 -644h-240l-21 120h-156l-71 -120h-259zM349 285h98l-23 123z" />
    <glyph glyph-name="uni1EB4" unicode="&#x1eb4;" horiz-adv-x="777" 
d="M626 901q-34 0 -64.5 10.5t-59.5 21t-59 10.5q-33 0 -60.5 -11t-47.5 -28l26 125q17 13 45.5 23t58.5 10q35 0 64.5 -10.5t58 -21t60.5 -10.5q33 0 60 11.5t41 27.5l-26 -125q-11 -13 -39 -23t-58 -10zM478 688q-70 0 -117 33.5t-47 103.5q0 24 6 51h127q-1 -7 -2.5 -14
t-1.5 -12q0 -45 52 -45q39 0 56.5 20.5t24.5 50.5h141q-21 -97 -84.5 -142.5t-154.5 -45.5zM-42 0l384 644h251l112 -644h-240l-21 120h-156l-71 -120h-259zM349 285h98l-23 123z" />
    <glyph glyph-name="uni01CD" unicode="&#x1cd;" horiz-adv-x="777" 
d="M407 688l-129 216h165l51 -107l99 107h175l-221 -216h-140zM-42 0l384 644h251l112 -644h-240l-21 120h-156l-71 -120h-259zM349 285h98l-23 123z" />
    <glyph glyph-name="Acircumflex" unicode="&#xc2;" horiz-adv-x="777" 
d="M232 688l220 216h141l129 -216h-161l-54 107l-95 -107h-180zM-42 0l384 644h251l112 -644h-240l-21 120h-156l-71 -120h-259zM349 285h98l-23 123z" />
    <glyph glyph-name="uni1EA4" unicode="&#x1ea4;" horiz-adv-x="776" 
d="M642 820l111 172h176l-120 -172h-167zM225 688l194 168h175l121 -168h-181l-40 76l-69 -76h-200zM-42 0l384 644h251l112 -644h-240l-21 120h-156l-71 -120h-259zM349 285h98l-23 123z" />
    <glyph glyph-name="uni1EAC" unicode="&#x1eac;" horiz-adv-x="777" 
d="M233 688l220 216h141l129 -216h-161l-54 107l-95 -107h-180zM-42 0l384 644h251l112 -644h-240l-21 120h-156l-71 -120h-259zM349 285h98l-23 123zM208 -213l30 141h156l-30 -141h-156z" />
    <glyph glyph-name="uni1EA6" unicode="&#x1ea6;" horiz-adv-x="777" 
d="M195 820l-46 172h176l38 -172h-168zM233 688l194 168h175l121 -168h-185l-37 76l-72 -76h-196zM-42 0l384 644h251l112 -644h-240l-21 120h-156l-71 -120h-259zM349 285h98l-23 123z" />
    <glyph glyph-name="uni1EA8" unicode="&#x1ea8;" horiz-adv-x="776" 
d="M652 797l17 80q42 2 55 9t13 17q0 12 -31 12q-12 0 -25 -3t-24 -7l20 92q20 5 50 8.5t67 3.5q56 0 84 -22t28 -54q0 -4 -0.5 -8t-1.5 -8q-7 -34 -29 -58t-60 -31l-7 -31h-156zM229 688l194 168h175l121 -168h-181l-40 76l-69 -76h-200zM-42 0l384 644h251l112 -644h-240
l-21 120h-156l-71 -120h-259zM349 285h98l-23 123z" />
    <glyph glyph-name="uni1EAA" unicode="&#x1eaa;" horiz-adv-x="777" 
d="M624 871q-34 0 -64.5 10.5t-59.5 21t-59 10.5q-33 0 -60.5 -11t-47.5 -28l28 135q17 13 45.5 23t58.5 10q35 0 64.5 -10.5t58 -21t60.5 -10.5q33 0 60 11.5t42 27.5l-29 -135q-12 -13 -39.5 -23t-57.5 -10zM232 688l194 168h175l121 -168h-181l-40 76l-69 -76h-200z
M-42 0l384 644h251l112 -644h-240l-21 120h-156l-71 -120h-259zM349 285h98l-23 123z" />
    <glyph glyph-name="Adieresis" unicode="&#xc4;" horiz-adv-x="777" 
d="M288 717l30 141h155l-30 -141h-155zM522 717l30 141h156l-30 -141h-156zM-42 0l384 644h251l112 -644h-240l-21 120h-156l-71 -120h-259zM349 285h98l-23 123z" />
    <glyph glyph-name="uni1EA0" unicode="&#x1ea0;" horiz-adv-x="777" 
d="M-42 0l384 644h251l112 -644h-240l-21 120h-156l-71 -120h-259zM349 285h98l-23 123zM209 -213l30 141h156l-30 -141h-156z" />
    <glyph glyph-name="Agrave" unicode="&#xc0;" horiz-adv-x="777" 
d="M386 688l-57 226h186l48 -226h-177zM-42 0l384 644h251l112 -644h-240l-21 120h-156l-71 -120h-259zM349 285h98l-23 123z" />
    <glyph glyph-name="uni1EA2" unicode="&#x1ea2;" horiz-adv-x="777" 
d="M393 688l17 81q50 3 70 13.5t23 25.5q7 28 -44 28q-30 0 -58 -10l20 94q26 7 58 11t75 4q65 0 98 -24.5t33 -62.5q0 -5 -0.5 -10t-1.5 -10q-10 -45 -34 -67.5t-70 -36.5l-8 -36h-178zM-42 0l384 644h251l112 -644h-240l-21 120h-156l-71 -120h-259zM349 285h98l-23 123z
" />
    <glyph glyph-name="Amacron" unicode="&#x100;" horiz-adv-x="777" 
d="M305 698l30 140h348l-30 -140h-348zM-42 0l384 644h251l112 -644h-240l-21 120h-156l-71 -120h-259zM349 285h98l-23 123z" />
    <glyph glyph-name="Aogonek" unicode="&#x104;" horiz-adv-x="777" 
d="M-42 0l384 644h251l112 -644h-60q-25 -16 -42.5 -35t-22.5 -41q-1 -3 -1 -8q0 -13 11 -18t30 -5q13 0 28 3t25 8l-22 -106q-19 -6 -52 -12t-71 -6q-60 0 -94.5 19.5t-34.5 60.5q0 48 31.5 84.5t70.5 55.5h-36l-21 120h-156l-71 -120h-259zM349 285h98l-23 123z" />
    <glyph glyph-name="Aring" unicode="&#xc5;" horiz-adv-x="777" 
d="M-42 0l384 644q-6 12 -9.5 25.5t-3.5 28.5q0 8 1.5 16t2.5 17q13 61 60 102.5t123 41.5q62 0 94.5 -31.5t32.5 -79.5q0 -8 -1 -16.5t-3 -16.5q-10 -51 -46 -88l112 -643h-240l-21 120h-156l-71 -120h-259zM474 680q32 0 49 20t17 44q0 16 -10.5 27t-33.5 11
q-32 0 -49 -20t-17 -44q0 -16 10.5 -27t33.5 -11zM349 285h98l-23 123z" />
    <glyph glyph-name="Aringacute" unicode="&#x1fa;" horiz-adv-x="777" 
d="M451 907l144 180h186l-153 -180h-177zM-42 0l384 644h1q-13 24 -13 55q0 16 3 32q13 61 60 102.5t123 41.5q62 0 94.5 -31.5t32.5 -79.5q0 -8 -1 -16.5t-3 -16.5q-11 -52 -46 -88l112 -643h-240l-21 120h-156l-71 -120h-259zM474 680q32 0 49 20t17 44q0 16 -10.5 27
t-33.5 11q-32 0 -49 -20t-17 -44q0 -16 10.5 -27t33.5 -11zM349 285h98l-23 123z" />
    <glyph glyph-name="Atilde" unicode="&#xc3;" horiz-adv-x="777" 
d="M585 693q-36 0 -68.5 11t-62.5 22t-61 11q-34 0 -63 -11.5t-51 -29.5l30 141q18 14 48.5 24.5t61.5 10.5q37 0 67 -11l60 -22t64 -11q35 0 63 12.5t44 28.5l-30 -141q-13 -13 -41.5 -24t-60.5 -11zM-42 0l384 644h251l112 -644h-240l-21 120h-156l-71 -120h-259zM349 285
h98l-23 123z" />
    <glyph glyph-name="AE" unicode="&#xc6;" horiz-adv-x="874" 
d="M-42 0l384 644h596l-37 -174h-223l-12 -58h185l-38 -180h-185l-13 -58h223l-36 -174h-455l25 120h-91l-71 -120h-252zM342 285h65l39 185h-6z" />
    <glyph glyph-name="AEacute" unicode="&#x1fc;" horiz-adv-x="874" 
d="M497 688l144 226h186l-153 -226h-177zM-42 0l384 644h596l-37 -174h-223l-12 -58h185l-38 -180h-185l-13 -58h223l-36 -174h-455l25 120h-91l-71 -120h-252zM342 285h65l39 185h-6z" />
    <glyph glyph-name="B" unicode="B" horiz-adv-x="663" 
d="M-21 0l136 644h382q77 0 125.5 -40t48.5 -105q0 -20 -4 -37q-10 -48 -33.5 -82t-55.5 -54q27 -14 43 -34.5t16 -55.5q0 -9 -1.5 -19.5t-3.5 -21.5q-19 -91 -83.5 -143t-183.5 -52h-386zM290 397h90q48 0 57 43q1 4 1 10q0 30 -40 30h-90zM240 164h90q48 0 57 43q1 3 1 6
v5q0 29 -40 29h-90z" />
    <glyph glyph-name="C" unicode="C" horiz-adv-x="618" 
d="M340 -10q-99 0 -171.5 28t-112 83.5t-39.5 137.5q0 38 9 83q35 164 155 248t299 84q62 0 107.5 -9t87.5 -26l-45 -211q-83 42 -178 42q-76 0 -119.5 -27.5t-59.5 -100.5q-3 -12 -4 -23t-1 -21q0 -47 32.5 -65.5t99.5 -18.5q95 0 196 42l-45 -211q-49 -16 -99 -25.5
t-112 -9.5z" />
    <glyph glyph-name="Cacute" unicode="&#x106;" horiz-adv-x="618" 
d="M378 688l144 226h186l-153 -226h-177zM340 -10q-99 0 -171.5 28t-112 83.5t-39.5 137.5q0 38 9 83q35 164 155 248t299 84q62 0 107.5 -9t87.5 -26l-45 -211q-83 42 -178 42q-76 0 -119.5 -27.5t-59.5 -100.5q-3 -12 -4 -23t-1 -21q0 -47 32.5 -65.5t99.5 -18.5
q95 0 196 42l-45 -211q-49 -16 -99 -25.5t-112 -9.5z" />
    <glyph glyph-name="Ccaron" unicode="&#x10c;" horiz-adv-x="617" 
d="M403 688l-129 216h165l51 -107l99 107h175l-221 -216h-140zM340 -10q-99 0 -171.5 28t-112 83.5t-39.5 137.5q0 38 9 83q35 164 155 248t299 84q62 0 107.5 -9t87.5 -26l-45 -211q-83 42 -178 42q-76 0 -119.5 -27.5t-59.5 -100.5q-3 -12 -4 -23t-1 -21q0 -47 32.5 -65.5
t99.5 -18.5q95 0 196 42l-45 -211q-49 -16 -99 -25.5t-112 -9.5z" />
    <glyph glyph-name="Ccedilla" unicode="&#xc7;" horiz-adv-x="618" 
d="M264 -240q-12 0 -30 1t-33.5 3t-22.5 4l17 77q26 -8 56 -8q68 0 74 35q4 16 -5 22t-26 6h-74l46 95q-115 14 -182.5 75t-67.5 169q0 19 3 40t7 43q35 164 155 248t299 84q62 0 107.5 -9t87.5 -26l-45 -211q-83 42 -178 42q-76 0 -119.5 -27.5t-59.5 -100.5q-3 -12 -4 -23
t-1 -21q0 -47 32.5 -65.5t99.5 -18.5q95 0 196 42l-45 -211q-40 -13 -80 -21.5t-86 -11.5l-16 -29q44 0 66.5 -21t22.5 -53v-11t-2 -11q-10 -49 -59 -78t-133 -29z" />
    <glyph glyph-name="Ccircumflex" unicode="&#x108;" horiz-adv-x="618" 
d="M190 688l220 216h141l129 -216h-161l-54 107l-95 -107h-180zM340 -10q-99 0 -171.5 28t-112 83.5t-39.5 137.5q0 38 9 83q35 164 155 248t299 84q62 0 107.5 -9t87.5 -26l-45 -211q-83 42 -178 42q-76 0 -119.5 -27.5t-59.5 -100.5q-3 -12 -4 -23t-1 -21
q0 -47 32.5 -65.5t99.5 -18.5q95 0 196 42l-45 -211q-49 -16 -99 -25.5t-112 -9.5z" />
    <glyph glyph-name="Cdotaccent" unicode="&#x10a;" horiz-adv-x="618" 
d="M383 718l29 141h156l-30 -141h-155zM340 -10q-99 0 -171.5 28t-112 83.5t-39.5 137.5q0 38 9 83q35 164 155 248t299 84q62 0 107.5 -9t87.5 -26l-45 -211q-83 42 -178 42q-76 0 -119.5 -27.5t-59.5 -100.5q-3 -12 -4 -23t-1 -21q0 -47 32.5 -65.5t99.5 -18.5
q95 0 196 42l-45 -211q-49 -16 -99 -25.5t-112 -9.5z" />
    <glyph glyph-name="D" unicode="D" horiz-adv-x="690" 
d="M-21 0l136 644h306q80 0 142 -29t97.5 -83.5t35.5 -132.5q0 -19 -2.5 -39t-7.5 -42q-25 -111 -73 -181.5t-127.5 -103.5t-200.5 -33h-306zM260 184h36q40 0 67.5 10t46 39t30.5 85q5 20 6.5 35.5t1.5 28.5q0 41 -23.5 52.5t-73.5 11.5h-36z" />
    <glyph glyph-name="Eth" unicode="&#xd0;" horiz-adv-x="704" 
d="M-7 0l50 238h-54l33 154h54l53 252h306q80 0 142 -29t97.5 -83.5t35.5 -132.5q0 -19 -2.5 -39t-7.5 -42q-25 -111 -73 -181.5t-127.5 -103.5t-200.5 -33h-306zM274 184h36q40 0 67.5 10t46 39t30.5 85q5 20 6.5 35.5t1.5 28.5q0 41 -23.5 52.5t-73.5 11.5h-36l-12 -54h92
l-33 -154h-91z" />
    <glyph glyph-name="Dcaron" unicode="&#x10e;" horiz-adv-x="690" 
d="M326 688l-129 216h165l51 -107l99 107h175l-221 -216h-140zM-21 0l136 644h306q80 0 142 -29t97.5 -83.5t35.5 -132.5q0 -19 -2.5 -39t-7.5 -42q-25 -111 -73 -181.5t-127.5 -103.5t-200.5 -33h-306zM260 184h36q40 0 67.5 10t46 39t30.5 85q5 20 6.5 35.5t1.5 28.5
q0 41 -23.5 52.5t-73.5 11.5h-36z" />
    <glyph glyph-name="Dcroat" unicode="&#x110;" horiz-adv-x="684" 
d="M-27 0l50 238h-44l33 154h44l53 252h306q80 0 142 -29t97.5 -83.5t35.5 -132.5q0 -19 -2.5 -39t-7.5 -42q-25 -111 -73 -181.5t-127.5 -103.5t-200.5 -33h-306zM254 184h36q40 0 67.5 10t46 39t30.5 85q5 20 6.5 35.5t1.5 28.5q0 41 -23.5 52.5t-73.5 11.5h-36l-12 -54
h102l-33 -154h-101z" />
    <glyph glyph-name="uni1E0C" unicode="&#x1e0c;" horiz-adv-x="690" 
d="M-21 0l136 644h306q80 0 142 -29t97.5 -83.5t35.5 -132.5q0 -19 -2.5 -39t-7.5 -42q-25 -111 -73 -181.5t-127.5 -103.5t-200.5 -33h-306zM260 184h36q40 0 67.5 10t46 39t30.5 85q5 20 6.5 35.5t1.5 28.5q0 41 -23.5 52.5t-73.5 11.5h-36zM129 -213l30 141h156l-30 -141
h-156z" />
    <glyph glyph-name="uni1E0E" unicode="&#x1e0e;" horiz-adv-x="690" 
d="M-21 0l136 644h306q80 0 142 -29t97.5 -83.5t35.5 -132.5q0 -19 -2.5 -39t-7.5 -42q-25 -111 -73 -181.5t-127.5 -103.5t-200.5 -33h-306zM260 184h36q40 0 67.5 10t46 39t30.5 85q5 20 6.5 35.5t1.5 28.5q0 41 -23.5 52.5t-73.5 11.5h-36zM13 -202l30 140h348l-30 -140
h-348z" />
    <glyph glyph-name="E" unicode="E" horiz-adv-x="556" 
d="M-21 0l136 644h515l-37 -174h-273l-12 -58h235l-38 -180h-235l-13 -58h273l-36 -174h-515z" />
    <glyph glyph-name="Eacute" unicode="&#xc9;" horiz-adv-x="556" 
d="M268 688l144 226h186l-153 -226h-177zM-21 0l136 644h515l-37 -174h-273l-12 -58h235l-38 -180h-235l-13 -58h273l-36 -174h-515z" />
    <glyph glyph-name="Ebreve" unicode="&#x114;" horiz-adv-x="556" 
d="M383 688q-83 0 -131 40.5t-48 117.5q0 14 1.5 30t5.5 32h147q-2 -8 -3 -16.5t-1 -16.5q0 -23 11 -39t39 -16q38 0 58 27t27 61h162q-23 -107 -95 -163.5t-173 -56.5zM-21 0l136 644h515l-37 -174h-273l-12 -58h235l-38 -180h-235l-13 -58h273l-36 -174h-515z" />
    <glyph glyph-name="Ecaron" unicode="&#x11a;" horiz-adv-x="556" 
d="M316 688l-129 216h165l51 -107l99 107h175l-221 -216h-140zM-21 0l136 644h515l-37 -174h-273l-12 -58h235l-38 -180h-235l-13 -58h273l-36 -174h-515z" />
    <glyph glyph-name="Ecircumflex" unicode="&#xca;" horiz-adv-x="556" 
d="M138 688l220 216h141l129 -216h-161l-54 107l-95 -107h-180zM-21 0l136 644h515l-37 -174h-273l-12 -58h235l-38 -180h-235l-13 -58h273l-36 -174h-515z" />
    <glyph glyph-name="uni1EBE" unicode="&#x1ebe;" horiz-adv-x="555" 
d="M560 820l111 172h176l-120 -172h-167zM143 688l194 168h175l121 -168h-181l-40 76l-69 -76h-200zM-21 0l136 644h515l-37 -174h-273l-12 -58h235l-38 -180h-235l-13 -58h273l-36 -174h-515z" />
    <glyph glyph-name="uni1EC6" unicode="&#x1ec6;" horiz-adv-x="556" 
d="M135 688l220 216h141l129 -216h-161l-54 107l-95 -107h-180zM-21 0l136 644h515l-37 -174h-273l-12 -58h235l-38 -180h-235l-13 -58h273l-36 -174h-515zM112 -213l30 141h156l-30 -141h-156z" />
    <glyph glyph-name="uni1EC0" unicode="&#x1ec0;" horiz-adv-x="555" 
d="M101 820l-46 172h176l38 -172h-168zM139 688l194 168h175l121 -168h-185l-37 76l-72 -76h-196zM-22 0l136 644h515l-37 -174h-273l-12 -58h235l-38 -180h-235l-13 -58h273l-36 -174h-515z" />
    <glyph glyph-name="uni1EC2" unicode="&#x1ec2;" horiz-adv-x="555" 
d="M558 797l17 80q42 2 55 9t13 17q0 12 -31 12q-12 0 -25 -3t-24 -7l20 92q20 5 50 8.5t67 3.5q56 0 84 -22t28 -54q0 -4 -0.5 -8t-1.5 -8q-7 -34 -29 -58t-60 -31l-7 -31h-156zM135 688l194 168h175l121 -168h-181l-40 76l-69 -76h-200zM-21 0l136 644h515l-37 -174h-273
l-12 -58h235l-38 -180h-235l-13 -58h273l-36 -174h-515z" />
    <glyph glyph-name="uni1EC4" unicode="&#x1ec4;" horiz-adv-x="556" 
d="M527 871q-34 0 -64.5 10.5t-59.5 21t-59 10.5q-33 0 -60.5 -11t-47.5 -28l28 135q17 13 45.5 23t58.5 10q35 0 64.5 -10.5t58 -21t60.5 -10.5q33 0 60 11.5t42 27.5l-29 -135q-12 -13 -39.5 -23t-57.5 -10zM135 688l194 168h175l121 -168h-181l-40 76l-69 -76h-200z
M-21 0l136 644h515l-37 -174h-273l-12 -58h235l-38 -180h-235l-13 -58h273l-36 -174h-515z" />
    <glyph glyph-name="Edieresis" unicode="&#xcb;" horiz-adv-x="556" 
d="M197 718l30 141h155l-30 -141h-155zM431 718l30 141h156l-30 -141h-156zM-21 0l136 644h515l-37 -174h-273l-12 -58h235l-38 -180h-235l-13 -58h273l-36 -174h-515z" />
    <glyph glyph-name="Edotaccent" unicode="&#x116;" horiz-adv-x="556" 
d="M305 718l29 141h156l-30 -141h-155zM-21 0l136 644h515l-37 -174h-273l-12 -58h235l-38 -180h-235l-13 -58h273l-36 -174h-515z" />
    <glyph glyph-name="uni1EB8" unicode="&#x1eb8;" horiz-adv-x="556" 
d="M-21 0l136 644h515l-37 -174h-273l-12 -58h235l-38 -180h-235l-13 -58h273l-36 -174h-515zM103 -213l30 141h156l-30 -141h-156z" />
    <glyph glyph-name="Egrave" unicode="&#xc8;" horiz-adv-x="556" 
d="M312 688l-57 226h186l48 -226h-177zM-21 0l136 644h515l-37 -174h-273l-12 -58h235l-38 -180h-235l-13 -58h273l-36 -174h-515z" />
    <glyph glyph-name="uni1EBA" unicode="&#x1eba;" horiz-adv-x="556" 
d="M293 688l17 81q50 3 70 13.5t23 25.5q7 28 -44 28q-30 0 -58 -10l20 94q26 7 58 11t75 4q65 0 98 -24.5t33 -62.5q0 -5 -0.5 -10t-1.5 -10q-10 -45 -34 -67.5t-70 -36.5l-8 -36h-178zM-21 0l136 644h515l-37 -174h-273l-12 -58h235l-38 -180h-235l-13 -58h273l-36 -174
h-515z" />
    <glyph glyph-name="Emacron" unicode="&#x112;" horiz-adv-x="556" 
d="M201 728l30 140h348l-30 -140h-348zM-21 0l136 644h515l-37 -174h-273l-12 -58h235l-38 -180h-235l-13 -58h273l-36 -174h-515z" />
    <glyph glyph-name="Eogonek" unicode="&#x118;" horiz-adv-x="556" 
d="M-21 0l136 644h515l-37 -174h-273l-12 -58h235l-38 -180h-235l-13 -58h273l-36 -174h-65q-25 -16 -42.5 -35t-22.5 -41q-1 -3 -1 -8q0 -13 11 -18t30 -5q13 0 28 3t25 8l-22 -106q-19 -6 -52 -12t-71 -6q-60 0 -94.5 19.5t-34.5 60.5q0 48 31.5 84.5t70.5 55.5h-306z" />
    <glyph glyph-name="uni1EBC" unicode="&#x1ebc;" horiz-adv-x="556" 
d="M489 693q-36 0 -68.5 11t-62.5 22t-61 11q-34 0 -63 -11.5t-51 -29.5l30 141q18 14 48.5 24.5t61.5 10.5q37 0 67 -11l60 -22t64 -11q35 0 63 12.5t44 28.5l-30 -141q-13 -13 -41.5 -24t-60.5 -11zM-21 0l136 644h515l-37 -174h-273l-12 -58h235l-38 -180h-235l-13 -58
h273l-36 -174h-515z" />
    <glyph glyph-name="F" unicode="F" horiz-adv-x="550" 
d="M-21 0l136 644h515l-37 -174h-273l-12 -58h235l-38 -180h-235l-49 -232h-242z" />
    <glyph glyph-name="G" unicode="G" horiz-adv-x="674" 
d="M331 -10q-147 0 -230.5 62t-83.5 183q0 20 2.5 42t7.5 45q35 164 148.5 248t314.5 84q62 0 109.5 -8.5t89.5 -24.5l-42 -202q-43 18 -89 24.5t-96 6.5q-70 0 -121 -27.5t-67 -100.5q-7 -29 -7 -55q0 -40 25 -56.5t81 -16.5q32 0 61 7l9 39h-107l31 146h307l-71 -333
q-46 -25 -114.5 -44t-157.5 -19z" />
    <glyph glyph-name="Gbreve" unicode="&#x11e;" horiz-adv-x="664" 
d="M476 688q-83 0 -131 40.5t-48 117.5q0 14 1.5 30t5.5 32h147q-2 -8 -3 -16.5t-1 -16.5q0 -23 11 -39t39 -16q38 0 58 27t27 61h162q-23 -107 -95 -163.5t-173 -56.5zM331 -10q-147 0 -230.5 62t-83.5 183q0 20 2.5 42t7.5 45q35 164 148.5 248t314.5 84q62 0 109.5 -8.5
t89.5 -24.5l-42 -202q-43 18 -89 24.5t-96 6.5q-70 0 -121 -27.5t-67 -100.5q-7 -29 -7 -55q0 -40 25 -56.5t81 -16.5q32 0 61 7l9 39h-107l31 146h307l-71 -333q-46 -25 -114.5 -44t-157.5 -19z" />
    <glyph glyph-name="Gcaron" unicode="&#x1e6;" horiz-adv-x="664" 
d="M400 687l-129 216h165l51 -107l99 107h175l-221 -216h-140zM331 -10q-147 0 -230.5 62t-83.5 183q0 20 2.5 42t7.5 45q35 164 148.5 248t314.5 84q62 0 109.5 -8.5t89.5 -24.5l-42 -202q-43 18 -89 24.5t-96 6.5q-70 0 -121 -27.5t-67 -100.5q-7 -29 -7 -55
q0 -40 25 -56.5t81 -16.5q32 0 61 7l9 39h-107l31 146h307l-71 -333q-46 -25 -114.5 -44t-157.5 -19z" />
    <glyph glyph-name="Gcircumflex" unicode="&#x11c;" horiz-adv-x="664" 
d="M213 688l220 216h141l129 -216h-161l-54 107l-95 -107h-180zM331 -10q-147 0 -230.5 62t-83.5 183q0 20 2.5 42t7.5 45q35 164 148.5 248t314.5 84q62 0 109.5 -8.5t89.5 -24.5l-42 -202q-43 18 -89 24.5t-96 6.5q-70 0 -121 -27.5t-67 -100.5q-7 -29 -7 -55
q0 -40 25 -56.5t81 -16.5q32 0 61 7l9 39h-107l31 146h307l-71 -333q-46 -25 -114.5 -44t-157.5 -19z" />
    <glyph glyph-name="uni0122" unicode="&#x122;" horiz-adv-x="664" 
d="M331 -10q-147 0 -230.5 62t-83.5 183q0 20 2.5 42t7.5 45q35 164 148.5 248t314.5 84q62 0 109.5 -8.5t89.5 -24.5l-42 -202q-43 18 -89 24.5t-96 6.5q-70 0 -121 -27.5t-67 -100.5q-7 -29 -7 -55q0 -40 25 -56.5t81 -16.5q32 0 61 7l9 39h-107l31 146h307l-71 -333
q-46 -25 -114.5 -44t-157.5 -19zM160 -286l89 249h179l-118 -249h-150z" />
    <glyph glyph-name="Gdotaccent" unicode="&#x120;" horiz-adv-x="664" 
d="M417 718l29 141h156l-30 -141h-155zM331 -10q-147 0 -230.5 62t-83.5 183q0 20 2.5 42t7.5 45q35 164 148.5 248t314.5 84q62 0 109.5 -8.5t89.5 -24.5l-42 -202q-43 18 -89 24.5t-96 6.5q-70 0 -121 -27.5t-67 -100.5q-7 -29 -7 -55q0 -40 25 -56.5t81 -16.5q32 0 61 7
l9 39h-107l31 146h307l-71 -333q-46 -25 -114.5 -44t-157.5 -19z" />
    <glyph glyph-name="uni1E20" unicode="&#x1e20;" horiz-adv-x="664" 
d="M314 718l30 140h348l-30 -140h-348zM331 -10q-147 0 -230.5 62t-83.5 183q0 20 2.5 42t7.5 45q35 164 148.5 248t314.5 84q62 0 109.5 -8.5t89.5 -24.5l-42 -202q-43 18 -89 24.5t-96 6.5q-70 0 -121 -27.5t-67 -100.5q-7 -29 -7 -55q0 -40 25 -56.5t81 -16.5q32 0 61 7
l9 39h-107l31 146h307l-71 -333q-46 -25 -114.5 -44t-157.5 -19z" />
    <glyph glyph-name="H" unicode="H" horiz-adv-x="716" 
d="M-21 0l136 644h242l-44 -210h161l44 210h242l-136 -644h-242l44 210h-161l-44 -210h-242z" />
    <glyph glyph-name="Hbar" unicode="&#x126;" horiz-adv-x="738" 
d="M-10 0l101 480h-30l24 115h30l11 49h242l-11 -49h161l11 49h242l-11 -49h32l-24 -115h-32l-101 -480h-242l44 210h-161l-44 -210h-242zM324 434h161l9 46h-161z" />
    <glyph glyph-name="uni1E2A" unicode="&#x1e2a;" horiz-adv-x="716" 
d="M-21 0l136 644h242l-44 -210h161l44 210h242l-136 -644h-242l44 210h-161l-44 -210h-242zM247 -260q-84 0 -132 40.5t-48 118.5q0 14 1.5 29.5t5.5 31.5h148q-2 -8 -3 -16.5t-1 -16.5q0 -23 11 -39t39 -16q38 0 59 25.5t25 62.5h162q-22 -107 -88.5 -163.5t-178.5 -56.5z
" />
    <glyph glyph-name="Hcircumflex" unicode="&#x124;" horiz-adv-x="716" 
d="M201 688l220 216h141l129 -216h-161l-54 107l-95 -107h-180zM-21 0l136 644h242l-44 -210h161l44 210h242l-136 -644h-242l44 210h-161l-44 -210h-242z" />
    <glyph glyph-name="uni1E24" unicode="&#x1e24;" horiz-adv-x="716" 
d="M-21 0l136 644h242l-44 -210h161l44 210h242l-136 -644h-242l44 210h-161l-44 -210h-242zM177 -213l30 141h156l-30 -141h-156z" />
    <glyph glyph-name="I" unicode="I" horiz-adv-x="313" 
d="M-21 0l136 644h242l-136 -644h-242z" />
    <glyph glyph-name="IJ" unicode="&#x132;" horiz-adv-x="770" 
d="M406 -10q-43 0 -81.5 5t-74.5 18l42 201q23 -10 51 -14.5t57 -4.5q51 0 70.5 18t29.5 62l78 369h242l-91 -428q-15 -73 -52.5 -123.5t-103 -76.5t-167.5 -26zM-21 0l136 644h242l-136 -644h-242z" />
    <glyph glyph-name="Iacute" unicode="&#xcd;" horiz-adv-x="313" 
d="M153 688l144 226h186l-153 -226h-177zM-21 0l136 644h242l-136 -644h-242z" />
    <glyph glyph-name="Ibreve" unicode="&#x12c;" horiz-adv-x="311" 
d="M250 714q-83 0 -131 40.5t-48 117.5q0 14 1.5 30t5.5 32h147q-2 -8 -3 -16.5t-1 -16.5q0 -23 11 -39t39 -16q38 0 58 27t27 61h162q-23 -107 -95 -163.5t-173 -56.5zM-22 0l136 644h242l-136 -644h-242z" />
    <glyph glyph-name="uni01CF" unicode="&#x1cf;" horiz-adv-x="311" 
d="M175 688l-129 216h165l51 -107l99 107h175l-221 -216h-140zM-22 0l136 644h242l-136 -644h-242z" />
    <glyph glyph-name="Icircumflex" unicode="&#xce;" horiz-adv-x="311" 
d="M0 688l220 216h141l129 -216h-161l-54 107l-95 -107h-180zM-22 0l136 644h242l-136 -644h-242z" />
    <glyph glyph-name="Idieresis" unicode="&#xcf;" horiz-adv-x="311" 
d="M59 728l30 141h155l-30 -141h-155zM293 728l30 141h156l-30 -141h-156zM-21 0l136 644h242l-136 -644h-242z" />
    <glyph glyph-name="Idotaccent" unicode="&#x130;" horiz-adv-x="313" 
d="M176 728l29 141h156l-30 -141h-155zM-21 0l136 644h242l-136 -644h-242z" />
    <glyph glyph-name="uni1ECA" unicode="&#x1eca;" horiz-adv-x="313" 
d="M-21 0l136 644h242l-136 -644h-242zM-23 -213l30 141h156l-30 -141h-156z" />
    <glyph glyph-name="Igrave" unicode="&#xcc;" horiz-adv-x="312" 
d="M155 688l-57 226h186l48 -226h-177zM-22 0l136 644h242l-136 -644h-242z" />
    <glyph glyph-name="uni1EC8" unicode="&#x1ec8;" horiz-adv-x="313" 
d="M155 688l17 81q50 3 70 13.5t23 25.5q7 28 -44 28q-30 0 -58 -10l20 94q26 7 58 11t75 4q65 0 98 -24.5t33 -62.5q0 -5 -0.5 -10t-1.5 -10q-10 -45 -34 -67.5t-70 -36.5l-8 -36h-178zM-21 0l136 644h242l-136 -644h-242z" />
    <glyph glyph-name="Imacron" unicode="&#x12a;" horiz-adv-x="312" 
d="M80 728l30 140h349l-30 -140h-349zM-21 0l136 644h242l-136 -644h-242z" />
    <glyph glyph-name="Iogonek" unicode="&#x12e;" horiz-adv-x="312" 
d="M54 -220q-60 0 -94.5 19.5t-34.5 60.5q0 48 31.5 84.5t70.5 55.5h-49l136 644h242l-136 -644h-49q-25 -16 -42.5 -35t-22.5 -41q-1 -3 -1 -8q0 -13 11 -18t30 -5q13 0 28 3t25 8l-22 -106q-19 -6 -52 -12t-71 -6z" />
    <glyph glyph-name="Itilde" unicode="&#x128;" horiz-adv-x="312" 
d="M359 723q-36 0 -68.5 11t-62.5 22t-61 11q-34 0 -63 -11.5t-51 -29.5l30 141q18 14 48.5 24.5t61.5 10.5q37 0 67 -11l60 -22t64 -11q35 0 63 12.5t44 28.5l-30 -141q-13 -13 -41.5 -24t-60.5 -11zM-22 0l136 644h242l-136 -644h-242z" />
    <glyph glyph-name="J" unicode="J" horiz-adv-x="467" 
d="M103 -10q-43 0 -81.5 5t-74.5 18l42 201q23 -10 51 -14.5t57 -4.5q51 0 70.5 18t29.5 62l78 369h242l-91 -428q-15 -73 -52.5 -123.5t-103 -76.5t-167.5 -26z" />
    <glyph glyph-name="Jcircumflex" unicode="&#x134;" horiz-adv-x="462" 
d="M161 688l220 216h141l129 -216h-161l-54 107l-95 -107h-180zM98 -10q-43 0 -81.5 5t-74.5 18l42 201q23 -10 51 -14.5t57 -4.5q51 0 70.5 18t29.5 62l78 369h242l-91 -428q-15 -73 -52.5 -123.5t-103 -76.5t-167.5 -26z" />
    <glyph glyph-name="K" unicode="K" horiz-adv-x="712" 
d="M-21 0l136 644h242l-38 -180l179 180h273l-276 -267l160 -377h-256l-85 224l-58 -56l-35 -168h-242z" />
    <glyph glyph-name="uni0136" unicode="&#x136;" horiz-adv-x="727" 
d="M-21 0l136 644h242l-38 -180l179 180h273l-276 -267l160 -377h-256l-85 224l-58 -56l-35 -168h-242zM134 -286l89 249h179l-118 -249h-150z" />
    <glyph glyph-name="L" unicode="L" horiz-adv-x="541" 
d="M-21 0l136 644h242l-97 -460h263l-39 -184h-505z" />
    <glyph glyph-name="Lacute" unicode="&#x139;" horiz-adv-x="536" 
d="M160 688l144 226h186l-153 -226h-177zM-21 0l136 644h242l-97 -460h263l-39 -184h-505z" />
    <glyph glyph-name="Lcaron" unicode="&#x13d;" horiz-adv-x="536" 
d="M-21 0l136 644h242l-97 -460h263l-39 -184h-505zM376 395l89 249h179l-117 -249h-151z" />
    <glyph glyph-name="uni013B" unicode="&#x13b;" horiz-adv-x="536" 
d="M-21 0l136 644h242l-97 -460h263l-39 -184h-505zM86 -286l89 249h179l-118 -249h-150z" />
    <glyph glyph-name="Ldot" unicode="&#x13f;" horiz-adv-x="536" 
d="M-21 0l136 644h242l-97 -460h263l-39 -184h-505zM356 310l30 141h156l-30 -141h-156z" />
    <glyph glyph-name="uni1E36" unicode="&#x1e36;" horiz-adv-x="536" 
d="M-21 0l136 644h242l-97 -460h263l-39 -184h-505zM98 -213l30 141h156l-30 -141h-156z" />
    <glyph glyph-name="uni1E38" unicode="&#x1e38;" horiz-adv-x="540" 
d="M77 718l30 140h348l-30 -140h-348zM-17 0l136 644h242l-97 -460h263l-39 -184h-505zM100 -213l30 141h156l-30 -141h-156z" />
    <glyph glyph-name="uni1E3A" unicode="&#x1e3a;" horiz-adv-x="536" 
d="M-21 0l136 644h242l-97 -460h263l-39 -184h-505zM0 -214l30 140h348l-30 -140h-348z" />
    <glyph glyph-name="Lslash" unicode="&#x141;" horiz-adv-x="577" 
d="M20 0l45 214l-67 -27l36 169l66 26l56 262h242l-33 -156l76 31l-36 -169l-76 -30l-28 -136h263l-39 -184h-505z" />
    <glyph glyph-name="M" unicode="M" horiz-adv-x="792" 
d="M-21 0l136 644h224l75 -266l186 266h236l-136 -644h-242l48 226l-82 -116h-123l-32 116l-48 -226h-242z" />
    <glyph glyph-name="uni1E42" unicode="&#x1e42;" horiz-adv-x="792" 
d="M-21 0l136 644h224l75 -266l186 266h236l-136 -644h-242l48 226l-82 -116h-123l-32 116l-48 -226h-242zM217 -213l30 141h156l-30 -141h-156z" />
    <glyph glyph-name="N" unicode="N" horiz-adv-x="696" 
d="M-21 0l136 644h203l127 -252l53 252h242l-136 -644h-204l-126 252l-53 -252h-242z" />
    <glyph glyph-name="Nacute" unicode="&#x143;" horiz-adv-x="696" 
d="M316 688l144 226h186l-153 -226h-177zM-21 0l136 644h203l127 -252l53 252h242l-136 -644h-204l-126 252l-53 -252h-242z" />
    <glyph glyph-name="Ncaron" unicode="&#x147;" horiz-adv-x="696" 
d="M361 688l-129 216h165l51 -107l99 107h175l-221 -216h-140zM-21 0l136 644h203l127 -252l53 252h242l-136 -644h-204l-126 252l-53 -252h-242z" />
    <glyph glyph-name="uni0145" unicode="&#x145;" horiz-adv-x="696" 
d="M-21 0l136 644h203l127 -252l53 252h242l-136 -644h-204l-126 252l-53 -252h-242zM124 -286l89 249h179l-118 -249h-150z" />
    <glyph glyph-name="uni1E44" unicode="&#x1e44;" horiz-adv-x="696" 
d="M363 718l29 141h156l-30 -141h-155zM-21 0l136 644h203l127 -252l53 252h242l-136 -644h-204l-126 252l-53 -252h-242z" />
    <glyph glyph-name="uni1E46" unicode="&#x1e46;" horiz-adv-x="696" 
d="M-21 0l136 644h203l127 -252l53 252h242l-136 -644h-204l-126 252l-53 -252h-242zM175 -213l30 141h156l-30 -141h-156z" />
    <glyph glyph-name="Eng" unicode="&#x14a;" horiz-adv-x="695" 
d="M352 -234q-46 0 -79 7t-62 20l31 150q27 -10 58 -10q46 0 56 40l17 80l-99 199l-53 -252h-242l136 644h203l127 -252l53 252h242l-146 -687q-11 -55 -41 -98t-79.5 -68t-121.5 -25z" />
    <glyph glyph-name="uni1E48" unicode="&#x1e48;" horiz-adv-x="696" 
d="M-21 0l136 644h203l127 -252l53 252h242l-136 -644h-204l-126 252l-53 -252h-242zM72 -208l30 140h348l-30 -140h-348z" />
    <glyph glyph-name="Ntilde" unicode="&#xd1;" horiz-adv-x="696" 
d="M551 693q-36 0 -68.5 11t-62.5 22t-61 11q-34 0 -63 -11.5t-51 -29.5l30 141q18 14 48.5 24.5t61.5 10.5q37 0 67 -11l60 -22t64 -11q35 0 63 12.5t44 28.5l-30 -141q-13 -13 -41.5 -24t-60.5 -11zM-21 0l136 644h203l127 -252l53 252h242l-136 -644h-204l-126 252
l-53 -252h-242z" />
    <glyph glyph-name="O" unicode="O" horiz-adv-x="720" 
d="M300 -10q-86 0 -150.5 23t-100 73.5t-35.5 133.5q0 45 12 102q26 122 80.5 194.5t138.5 105t197 32.5q88 0 152 -22.5t99 -72.5t35 -132q0 -46 -12 -105q-26 -121 -80 -194t-137.5 -105.5t-198.5 -32.5zM344 195q53 0 81.5 28.5t43.5 98.5q4 19 6.5 34.5t2.5 28.5
q0 35 -18 49.5t-62 14.5q-53 0 -81.5 -28.5t-43.5 -98.5q-4 -19 -6 -34.5t-2 -28.5q0 -34 18 -49t61 -15z" />
    <glyph glyph-name="Oacute" unicode="&#xd3;" horiz-adv-x="720" 
d="M341 688l144 226h186l-153 -226h-177zM300 -10q-86 0 -150.5 23t-100 73.5t-35.5 133.5q0 45 12 102q26 122 80.5 194.5t138.5 105t197 32.5q88 0 152 -22.5t99 -72.5t35 -132q0 -46 -12 -105q-26 -121 -80 -194t-137.5 -105.5t-198.5 -32.5zM344 195q53 0 81.5 28.5
t43.5 98.5q4 19 6.5 34.5t2.5 28.5q0 35 -18 49.5t-62 14.5q-53 0 -81.5 -28.5t-43.5 -98.5q-4 -19 -6 -34.5t-2 -28.5q0 -34 18 -49t61 -15z" />
    <glyph glyph-name="Obreve" unicode="&#x14e;" horiz-adv-x="720" 
d="M448 688q-83 0 -131 40.5t-48 117.5q0 14 1.5 30t5.5 32h147q-2 -8 -3 -16.5t-1 -16.5q0 -23 11 -39t39 -16q38 0 58 27t27 61h162q-23 -107 -95 -163.5t-173 -56.5zM300 -10q-86 0 -150.5 23t-100 73.5t-35.5 133.5q0 45 12 102q26 122 80.5 194.5t138.5 105t197 32.5
q88 0 152 -22.5t99 -72.5t35 -132q0 -46 -12 -105q-26 -121 -80 -194t-137.5 -105.5t-198.5 -32.5zM344 195q53 0 81.5 28.5t43.5 98.5q4 19 6.5 34.5t2.5 28.5q0 35 -18 49.5t-62 14.5q-53 0 -81.5 -28.5t-43.5 -98.5q-4 -19 -6 -34.5t-2 -28.5q0 -34 18 -49t61 -15z" />
    <glyph glyph-name="uni01D1" unicode="&#x1d1;" horiz-adv-x="720" 
d="M379 688l-129 216h165l51 -107l99 107h175l-221 -216h-140zM300 -10q-86 0 -150.5 23t-100 73.5t-35.5 133.5q0 45 12 102q26 122 80.5 194.5t138.5 105t197 32.5q88 0 152 -22.5t99 -72.5t35 -132q0 -46 -12 -105q-26 -121 -80 -194t-137.5 -105.5t-198.5 -32.5z
M344 195q53 0 81.5 28.5t43.5 98.5q4 19 6.5 34.5t2.5 28.5q0 35 -18 49.5t-62 14.5q-53 0 -81.5 -28.5t-43.5 -98.5q-4 -19 -6 -34.5t-2 -28.5q0 -34 18 -49t61 -15z" />
    <glyph glyph-name="Ocircumflex" unicode="&#xd4;" horiz-adv-x="720" 
d="M204 688l220 216h141l129 -216h-161l-54 107l-95 -107h-180zM300 -10q-86 0 -150.5 23t-100 73.5t-35.5 133.5q0 45 12 102q26 122 80.5 194.5t138.5 105t197 32.5q88 0 152 -22.5t99 -72.5t35 -132q0 -46 -12 -105q-26 -121 -80 -194t-137.5 -105.5t-198.5 -32.5z
M344 195q53 0 81.5 28.5t43.5 98.5q4 19 6.5 34.5t2.5 28.5q0 35 -18 49.5t-62 14.5q-53 0 -81.5 -28.5t-43.5 -98.5q-4 -19 -6 -34.5t-2 -28.5q0 -34 18 -49t61 -15z" />
    <glyph glyph-name="uni1ED0" unicode="&#x1ed0;" horiz-adv-x="719" 
d="M619 820l111 172h176l-120 -172h-167zM202 688l194 168h175l121 -168h-181l-40 76l-69 -76h-200zM300 -10q-86 0 -150.5 23t-100 73.5t-35.5 133.5q0 45 12 102q26 122 80.5 194.5t138.5 105t197 32.5q88 0 152 -22.5t99 -72.5t35 -132q0 -46 -12 -105q-26 -121 -80 -194
t-137.5 -105.5t-198.5 -32.5zM344 195q53 0 81.5 28.5t43.5 98.5q4 19 6.5 34.5t2.5 28.5q0 35 -18 49.5t-62 14.5q-53 0 -81.5 -28.5t-43.5 -98.5q-4 -19 -6 -34.5t-2 -28.5q0 -34 18 -49t61 -15z" />
    <glyph glyph-name="uni1ED8" unicode="&#x1ed8;" horiz-adv-x="720" 
d="M204 688l220 216h141l129 -216h-161l-54 107l-95 -107h-180zM300 -10q-86 0 -150.5 23t-100 73.5t-35.5 133.5q0 45 12 102q26 122 80.5 194.5t138.5 105t197 32.5q88 0 152 -22.5t99 -72.5t35 -132q0 -46 -12 -105q-26 -121 -80 -194t-137.5 -105.5t-198.5 -32.5z
M344 195q53 0 81.5 28.5t43.5 98.5q4 19 6.5 34.5t2.5 28.5q0 35 -18 49.5t-62 14.5q-53 0 -81.5 -28.5t-43.5 -98.5q-4 -19 -6 -34.5t-2 -28.5q0 -34 18 -49t61 -15zM181 -213l30 141h156l-30 -141h-156z" />
    <glyph glyph-name="uni1ED2" unicode="&#x1ed2;" horiz-adv-x="720" 
d="M165 820l-46 172h176l38 -172h-168zM203 688l194 168h175l121 -168h-185l-37 76l-72 -76h-196zM300 -10q-86 0 -150.5 23t-100 73.5t-35.5 133.5q0 45 12 102q26 122 80.5 194.5t138.5 105t197 32.5q88 0 152 -22.5t99 -72.5t35 -132q0 -46 -12 -105q-26 -121 -80 -194
t-137.5 -105.5t-198.5 -32.5zM344 195q53 0 81.5 28.5t43.5 98.5q4 19 6.5 34.5t2.5 28.5q0 35 -18 49.5t-62 14.5q-53 0 -81.5 -28.5t-43.5 -98.5q-4 -19 -6 -34.5t-2 -28.5q0 -34 18 -49t61 -15z" />
    <glyph glyph-name="uni1ED4" unicode="&#x1ed4;" horiz-adv-x="719" 
d="M619 797l17 80q42 2 55 9t13 17q0 12 -31 12q-12 0 -25 -3t-24 -7l20 92q20 5 50 8.5t67 3.5q56 0 84 -22t28 -54q0 -4 -0.5 -8t-1.5 -8q-7 -34 -29 -58t-60 -31l-7 -31h-156zM196 688l194 168h175l121 -168h-181l-40 76l-69 -76h-200zM300 -10q-86 0 -150.5 23
t-100 73.5t-35.5 133.5q0 45 12 102q26 122 80.5 194.5t138.5 105t197 32.5q88 0 152 -22.5t99 -72.5t35 -132q0 -46 -12 -105q-26 -121 -80 -194t-137.5 -105.5t-198.5 -32.5zM344 195q53 0 81.5 28.5t43.5 98.5q4 19 6.5 34.5t2.5 28.5q0 35 -18 49.5t-62 14.5
q-53 0 -81.5 -28.5t-43.5 -98.5q-4 -19 -6 -34.5t-2 -28.5q0 -34 18 -49t61 -15z" />
    <glyph glyph-name="uni1ED6" unicode="&#x1ed6;" horiz-adv-x="720" 
d="M591 871q-34 0 -64.5 10.5t-59.5 21t-59 10.5q-33 0 -60.5 -11t-47.5 -28l28 135q17 13 45.5 23t58.5 10q35 0 64.5 -10.5t58 -21t60.5 -10.5q33 0 60 11.5t42 27.5l-29 -135q-12 -13 -39.5 -23t-57.5 -10zM196 688l194 168h175l121 -168h-181l-40 76l-69 -76h-200z
M300 -10q-86 0 -150.5 23t-100 73.5t-35.5 133.5q0 45 12 102q26 122 80.5 194.5t138.5 105t197 32.5q88 0 152 -22.5t99 -72.5t35 -132q0 -46 -12 -105q-26 -121 -80 -194t-137.5 -105.5t-198.5 -32.5zM344 195q53 0 81.5 28.5t43.5 98.5q4 19 6.5 34.5t2.5 28.5
q0 35 -18 49.5t-62 14.5q-53 0 -81.5 -28.5t-43.5 -98.5q-4 -19 -6 -34.5t-2 -28.5q0 -34 18 -49t61 -15z" />
    <glyph glyph-name="Odieresis" unicode="&#xd6;" horiz-adv-x="720" 
d="M260 718l30 141h155l-30 -141h-155zM494 718l30 141h156l-30 -141h-156zM300 -10q-86 0 -150.5 23t-100 73.5t-35.5 133.5q0 45 12 102q26 122 80.5 194.5t138.5 105t197 32.5q88 0 152 -22.5t99 -72.5t35 -132q0 -46 -12 -105q-26 -121 -80 -194t-137.5 -105.5
t-198.5 -32.5zM344 195q53 0 81.5 28.5t43.5 98.5q4 19 6.5 34.5t2.5 28.5q0 35 -18 49.5t-62 14.5q-53 0 -81.5 -28.5t-43.5 -98.5q-4 -19 -6 -34.5t-2 -28.5q0 -34 18 -49t61 -15z" />
    <glyph glyph-name="uni1ECC" unicode="&#x1ecc;" horiz-adv-x="720" 
d="M300 -10q-86 0 -150.5 23t-100 73.5t-35.5 133.5q0 45 12 102q26 122 80.5 194.5t138.5 105t197 32.5q88 0 152 -22.5t99 -72.5t35 -132q0 -46 -12 -105q-26 -121 -80 -194t-137.5 -105.5t-198.5 -32.5zM344 195q53 0 81.5 28.5t43.5 98.5q4 19 6.5 34.5t2.5 28.5
q0 35 -18 49.5t-62 14.5q-53 0 -81.5 -28.5t-43.5 -98.5q-4 -19 -6 -34.5t-2 -28.5q0 -34 18 -49t61 -15zM180 -213l30 141h156l-30 -141h-156z" />
    <glyph glyph-name="Ograve" unicode="&#xd2;" horiz-adv-x="720" 
d="M366 688l-57 226h186l48 -226h-177zM300 -10q-86 0 -150.5 23t-100 73.5t-35.5 133.5q0 45 12 102q26 122 80.5 194.5t138.5 105t197 32.5q88 0 152 -22.5t99 -72.5t35 -132q0 -46 -12 -105q-26 -121 -80 -194t-137.5 -105.5t-198.5 -32.5zM344 195q53 0 81.5 28.5
t43.5 98.5q4 19 6.5 34.5t2.5 28.5q0 35 -18 49.5t-62 14.5q-53 0 -81.5 -28.5t-43.5 -98.5q-4 -19 -6 -34.5t-2 -28.5q0 -34 18 -49t61 -15z" />
    <glyph glyph-name="uni1ECE" unicode="&#x1ece;" horiz-adv-x="720" 
d="M356 688l17 81q50 3 70 13.5t23 25.5q7 28 -44 28q-30 0 -58 -10l20 94q26 7 58 11t75 4q65 0 98 -24.5t33 -62.5q0 -5 -0.5 -10t-1.5 -10q-10 -45 -34 -67.5t-70 -36.5l-8 -36h-178zM300 -10q-86 0 -150.5 23t-100 73.5t-35.5 133.5q0 45 12 102q26 122 80.5 194.5
t138.5 105t197 32.5q88 0 152 -22.5t99 -72.5t35 -132q0 -46 -12 -105q-26 -121 -80 -194t-137.5 -105.5t-198.5 -32.5zM344 195q53 0 81.5 28.5t43.5 98.5q4 19 6.5 34.5t2.5 28.5q0 35 -18 49.5t-62 14.5q-53 0 -81.5 -28.5t-43.5 -98.5q-4 -19 -6 -34.5t-2 -28.5
q0 -34 18 -49t61 -15z" />
    <glyph glyph-name="Ohorn" unicode="&#x1a0;" horiz-adv-x="821" 
d="M300 -10q-86 0 -150.5 23t-100 73.5t-35.5 133.5q0 45 12 102q26 122 80.5 194.5t138.5 105t197 32.5q66 0 119.5 -12.5t90.5 -40.5q41 2 62.5 21.5t31.5 65.5h169q-22 -103 -65 -157t-123 -73q1 -7 1 -14v-15q0 -47 -12 -107q-26 -121 -80 -194t-137.5 -105.5
t-198.5 -32.5zM344 195q53 0 81.5 28.5t43.5 98.5q4 19 6.5 34.5t2.5 28.5q0 35 -18 49.5t-62 14.5q-53 0 -81.5 -28.5t-43.5 -98.5q-4 -19 -6 -34.5t-2 -28.5q0 -34 18 -49t61 -15z" />
    <glyph glyph-name="uni1EDA" unicode="&#x1eda;" horiz-adv-x="821" 
d="M367 688l144 226h186l-153 -226h-177zM300 -10q-86 0 -150.5 23t-100 73.5t-35.5 133.5q0 45 12 102q26 122 80.5 194.5t138.5 105t197 32.5q66 0 119.5 -12.5t90.5 -40.5q41 2 62.5 21.5t31.5 65.5h169q-22 -103 -65 -157t-123 -73q1 -7 1 -14v-15q0 -47 -12 -107
q-26 -121 -80 -194t-137.5 -105.5t-198.5 -32.5zM344 195q53 0 81.5 28.5t43.5 98.5q4 19 6.5 34.5t2.5 28.5q0 35 -18 49.5t-62 14.5q-53 0 -81.5 -28.5t-43.5 -98.5q-4 -19 -6 -34.5t-2 -28.5q0 -34 18 -49t61 -15z" />
    <glyph glyph-name="uni1EE2" unicode="&#x1ee2;" horiz-adv-x="821" 
d="M300 -10q-86 0 -150.5 23t-100 73.5t-35.5 133.5q0 45 12 102q26 122 80.5 194.5t138.5 105t197 32.5q66 0 119.5 -12.5t90.5 -40.5q41 2 62.5 21.5t31.5 65.5h169q-22 -103 -65 -157t-123 -73q1 -7 1 -14v-15q0 -47 -12 -107q-26 -121 -80 -194t-137.5 -105.5
t-198.5 -32.5zM344 195q53 0 81.5 28.5t43.5 98.5q4 19 6.5 34.5t2.5 28.5q0 35 -18 49.5t-62 14.5q-53 0 -81.5 -28.5t-43.5 -98.5q-4 -19 -6 -34.5t-2 -28.5q0 -34 18 -49t61 -15zM182 -213l30 141h156l-30 -141h-156z" />
    <glyph glyph-name="uni1EDC" unicode="&#x1edc;" horiz-adv-x="821" 
d="M380 688l-57 226h186l48 -226h-177zM300 -10q-86 0 -150.5 23t-100 73.5t-35.5 133.5q0 45 12 102q26 122 80.5 194.5t138.5 105t197 32.5q66 0 119.5 -12.5t90.5 -40.5q41 2 62.5 21.5t31.5 65.5h169q-22 -103 -65 -157t-123 -73q1 -7 1 -14v-15q0 -47 -12 -107
q-26 -121 -80 -194t-137.5 -105.5t-198.5 -32.5zM344 195q53 0 81.5 28.5t43.5 98.5q4 19 6.5 34.5t2.5 28.5q0 35 -18 49.5t-62 14.5q-53 0 -81.5 -28.5t-43.5 -98.5q-4 -19 -6 -34.5t-2 -28.5q0 -34 18 -49t61 -15z" />
    <glyph glyph-name="uni1EDE" unicode="&#x1ede;" horiz-adv-x="821" 
d="M357 688l17 81q50 3 70 13.5t23 25.5q7 28 -44 28q-30 0 -58 -10l20 94q26 7 58 11t75 4q65 0 98 -24.5t33 -62.5q0 -5 -0.5 -10t-1.5 -10q-10 -45 -34 -67.5t-70 -36.5l-8 -36h-178zM300 -10q-86 0 -150.5 23t-100 73.5t-35.5 133.5q0 45 12 102q26 122 80.5 194.5
t138.5 105t197 32.5q66 0 119.5 -12.5t90.5 -40.5q41 2 62.5 21.5t31.5 65.5h169q-22 -103 -65 -157t-123 -73q1 -7 1 -14v-15q0 -47 -12 -107q-26 -121 -80 -194t-137.5 -105.5t-198.5 -32.5zM344 195q53 0 81.5 28.5t43.5 98.5q4 19 6.5 34.5t2.5 28.5q0 35 -18 49.5
t-62 14.5q-53 0 -81.5 -28.5t-43.5 -98.5q-4 -19 -6 -34.5t-2 -28.5q0 -34 18 -49t61 -15z" />
    <glyph glyph-name="uni1EE0" unicode="&#x1ee0;" horiz-adv-x="821" 
d="M558 688q-36 0 -68.5 11t-62.5 22t-61 11q-34 0 -63 -11.5t-51 -29.5l30 141q18 14 48.5 24.5t61.5 10.5q37 0 67 -11l60 -22t64 -11q35 0 63 12.5t44 28.5l-30 -141q-13 -13 -41.5 -24t-60.5 -11zM300 -10q-86 0 -150.5 23t-100 73.5t-35.5 133.5q0 45 12 102
q26 122 80.5 194.5t138.5 105t197 32.5q66 0 119.5 -12.5t90.5 -40.5q41 2 62.5 21.5t31.5 65.5h169q-22 -103 -65 -157t-123 -73q1 -7 1 -14v-15q0 -47 -12 -107q-26 -121 -80 -194t-137.5 -105.5t-198.5 -32.5zM344 195q53 0 81.5 28.5t43.5 98.5q4 19 6.5 34.5t2.5 28.5
q0 35 -18 49.5t-62 14.5q-53 0 -81.5 -28.5t-43.5 -98.5q-4 -19 -6 -34.5t-2 -28.5q0 -34 18 -49t61 -15z" />
    <glyph glyph-name="Ohungarumlaut" unicode="&#x150;" horiz-adv-x="720" 
d="M179 688l138 203h205l-156 -203h-187zM448 688l138 203h206l-157 -203h-187zM300 -10q-86 0 -150.5 23t-100 73.5t-35.5 133.5q0 45 12 102q26 122 80.5 194.5t138.5 105t197 32.5q88 0 152 -22.5t99 -72.5t35 -132q0 -46 -12 -105q-26 -121 -80 -194t-137.5 -105.5
t-198.5 -32.5zM344 195q53 0 81.5 28.5t43.5 98.5q4 19 6.5 34.5t2.5 28.5q0 35 -18 49.5t-62 14.5q-53 0 -81.5 -28.5t-43.5 -98.5q-4 -19 -6 -34.5t-2 -28.5q0 -34 18 -49t61 -15z" />
    <glyph glyph-name="Omacron" unicode="&#x14c;" horiz-adv-x="720" 
d="M277 729l30 140h348l-30 -140h-348zM300 -10q-86 0 -150.5 23t-100 73.5t-35.5 133.5q0 45 12 102q26 122 80.5 194.5t138.5 105t197 32.5q88 0 152 -22.5t99 -72.5t35 -132q0 -46 -12 -105q-26 -121 -80 -194t-137.5 -105.5t-198.5 -32.5zM344 195q53 0 81.5 28.5
t43.5 98.5q4 19 6.5 34.5t2.5 28.5q0 35 -18 49.5t-62 14.5q-53 0 -81.5 -28.5t-43.5 -98.5q-4 -19 -6 -34.5t-2 -28.5q0 -34 18 -49t61 -15z" />
    <glyph glyph-name="Oslash" unicode="&#xd8;" horiz-adv-x="720" 
d="M99 -53l43 69q-60 24 -94 73.5t-34 129.5q0 46 12 103q26 122 80.5 194.5t138.5 105t197 32.5q25 0 47.5 -2t43.5 -5l29 46h77l-40 -64q62 -23 95.5 -72.5t33.5 -129.5q0 -46 -12 -105q-26 -121 -80 -194t-137.5 -105.5t-198.5 -32.5q-25 0 -48 2t-45 6l-31 -51h-77z
M269 220l145 234q-4 1 -7.5 1h-7.5q-56 0 -85.5 -29.5t-45.5 -103.5q-4 -17 -6 -31.5t-2 -27.5q0 -26 9 -43zM326 189h17q56 0 85.5 30t45.5 103q4 17 5.5 32t1.5 27q0 28 -9 44z" />
    <glyph glyph-name="Oslashacute" unicode="&#x1fe;" horiz-adv-x="720" 
d="M307 688l144 226h186l-153 -226h-177zM99 -53l43 69q-60 24 -94 73.5t-34 129.5q0 46 12 103q26 122 80.5 194.5t138.5 105t197 32.5q25 0 47.5 -2t43.5 -5l29 46h77l-40 -64q62 -23 95.5 -72.5t33.5 -129.5q0 -46 -12 -105q-26 -121 -80 -194t-137.5 -105.5
t-198.5 -32.5q-25 0 -48 2t-45 6l-31 -51h-77zM269 220l145 234q-4 1 -7.5 1h-7.5q-56 0 -85.5 -29.5t-45.5 -103.5q-4 -17 -6 -31.5t-2 -27.5q0 -26 9 -43zM326 189h17q56 0 85.5 30t45.5 103q4 17 5.5 32t1.5 27q0 28 -9 44z" />
    <glyph glyph-name="Otilde" unicode="&#xd5;" horiz-adv-x="720" 
d="M561 713q-36 0 -68.5 11t-62.5 22t-61 11q-34 0 -63 -11.5t-51 -29.5l30 141q18 14 48.5 24.5t61.5 10.5q37 0 67 -11l60 -22t64 -11q35 0 63 12.5t44 28.5l-30 -141q-13 -13 -41.5 -24t-60.5 -11zM300 -10q-86 0 -150.5 23t-100 73.5t-35.5 133.5q0 45 12 102
q26 122 80.5 194.5t138.5 105t197 32.5q88 0 152 -22.5t99 -72.5t35 -132q0 -46 -12 -105q-26 -121 -80 -194t-137.5 -105.5t-198.5 -32.5zM344 195q53 0 81.5 28.5t43.5 98.5q4 19 6.5 34.5t2.5 28.5q0 35 -18 49.5t-62 14.5q-53 0 -81.5 -28.5t-43.5 -98.5
q-4 -19 -6 -34.5t-2 -28.5q0 -34 18 -49t61 -15z" />
    <glyph glyph-name="OE" unicode="&#x152;" horiz-adv-x="991" 
d="M300 -10q-86 0 -150.5 23t-100 73.5t-35.5 133.5q0 45 12 102q26 122 80.5 194.5t138.5 105t197 32.5q29 0 56.5 -2.5t51.5 -7.5h505l-37 -174h-273l-12 -58h235l-38 -180h-235l-13 -58h273l-36 -174h-499q-28 -5 -58 -7.5t-62 -2.5zM344 195q53 0 81.5 28.5t43.5 98.5
q4 19 6.5 34.5t2.5 28.5q0 35 -18 49.5t-62 14.5q-53 0 -81.5 -28.5t-43.5 -98.5q-4 -19 -6 -34.5t-2 -28.5q0 -34 18 -49t61 -15z" />
    <glyph glyph-name="P" unicode="P" horiz-adv-x="636" 
d="M-21 0l136 644h362q67 0 110.5 -24.5t65.5 -67t22 -96.5q0 -15 -1.5 -30.5t-5.5 -32.5q-15 -70 -52.5 -126.5t-99 -89.5t-149.5 -33h-116l-30 -144h-242zM291 333h59q29 0 47.5 16t24.5 44q3 12 3 21q0 41 -45 41h-63z" />
    <glyph glyph-name="Thorn" unicode="&#xde;" horiz-adv-x="637" 
d="M-21 0l136 644h242l-15 -72h120q64 0 108 -25.5t66.5 -68.5t22.5 -98q0 -29 -6 -59q-15 -70 -52.5 -126.5t-99 -89.5t-149.5 -33h-116l-15 -72h-242zM276 261h59q29 0 47.5 16t24.5 44q2 6 2 11v10q0 41 -44 41h-63z" />
    <glyph glyph-name="Q" unicode="Q" horiz-adv-x="720" 
d="M351 -172q-77 0 -116.5 37.5t-39.5 98.5q0 17 3 35q-85 17 -134.5 70t-49.5 150q0 46 12 103q26 122 80.5 194.5t138.5 105t197 32.5q88 0 152 -22.5t99 -72.5t35 -132q0 -46 -12 -105q-34 -159 -115.5 -235.5t-215.5 -91.5q0 -17 14 -23t42 -6q38 0 75 12l-29 -134
q-21 -6 -58 -11t-78 -5zM344 195q53 0 81.5 28.5t43.5 98.5q4 19 6.5 34.5t2.5 28.5q0 35 -18 49.5t-62 14.5q-53 0 -81.5 -28.5t-43.5 -98.5q-4 -19 -6 -34.5t-2 -28.5q0 -34 18 -49t61 -15z" />
    <glyph glyph-name="R" unicode="R" horiz-adv-x="656" 
d="M-21 0l136 644h362q94 0 146.5 -52t52.5 -133q0 -27 -6 -56q-13 -65 -53.5 -113.5t-101.5 -81.5q16 -13 20 -33l39 -175h-252l-33 143q-4 21 -24 21h-10l-34 -164h-242zM296 353h59q59 0 69 50q1 5 1.5 9t0.5 8q0 35 -46 35h-63z" />
    <glyph glyph-name="Racute" unicode="&#x154;" horiz-adv-x="656" 
d="M289 688l144 226h186l-153 -226h-177zM-21 0l136 644h362q94 0 146.5 -52t52.5 -133q0 -27 -6 -56q-13 -65 -53.5 -113.5t-101.5 -81.5q16 -13 20 -33l39 -175h-252l-33 143q-4 21 -24 21h-10l-34 -164h-242zM296 353h59q59 0 69 50q1 5 1.5 9t0.5 8q0 35 -46 35h-63z
" />
    <glyph glyph-name="Rcaron" unicode="&#x158;" horiz-adv-x="656" 
d="M324 688l-129 216h165l51 -107l99 107h175l-221 -216h-140zM-21 0l136 644h362q94 0 146.5 -52t52.5 -133q0 -27 -6 -56q-13 -65 -53.5 -113.5t-101.5 -81.5q16 -13 20 -33l39 -175h-252l-33 143q-4 21 -24 21h-10l-34 -164h-242zM296 353h59q59 0 69 50q1 5 1.5 9t0.5 8
q0 35 -46 35h-63z" />
    <glyph glyph-name="uni0156" unicode="&#x156;" horiz-adv-x="656" 
d="M-21 0l136 644h362q94 0 146.5 -52t52.5 -133q0 -27 -6 -56q-13 -65 -53.5 -113.5t-101.5 -81.5q16 -13 20 -33l39 -175h-252l-33 143q-4 21 -24 21h-10l-34 -164h-242zM296 353h59q59 0 69 50q1 5 1.5 9t0.5 8q0 35 -46 35h-63zM87 -286l89 249h179l-118 -249h-150z" />
    <glyph glyph-name="uni1E5A" unicode="&#x1e5a;" horiz-adv-x="656" 
d="M-21 0l136 644h362q94 0 146.5 -52t52.5 -133q0 -27 -6 -56q-13 -65 -53.5 -113.5t-101.5 -81.5q16 -13 20 -33l39 -175h-252l-33 143q-4 21 -24 21h-10l-34 -164h-242zM296 353h59q59 0 69 50q1 5 1.5 9t0.5 8q0 35 -46 35h-63zM134 -213l30 141h156l-30 -141h-156z" />
    <glyph glyph-name="uni1E5C" unicode="&#x1e5c;" horiz-adv-x="656" 
d="M221 718l30 140h348l-30 -140h-348zM-21 0l136 644h362q94 0 146.5 -52t52.5 -133q0 -27 -6 -56q-13 -65 -53.5 -113.5t-101.5 -81.5q16 -13 20 -33l39 -175h-252l-33 143q-4 21 -24 21h-10l-34 -164h-242zM296 353h59q59 0 69 50q1 5 1.5 9t0.5 8q0 35 -46 35h-63z
M134 -213l30 141h156l-30 -141h-156z" />
    <glyph glyph-name="uni1E5E" unicode="&#x1e5e;" horiz-adv-x="656" 
d="M-21 0l136 644h362q94 0 146.5 -52t52.5 -133q0 -27 -6 -56q-13 -65 -53.5 -113.5t-101.5 -81.5q16 -13 20 -33l39 -175h-252l-33 143q-4 21 -24 21h-10l-34 -164h-242zM296 353h59q59 0 69 50q1 5 1.5 9t0.5 8q0 35 -46 35h-63zM38 -208l30 140h348l-30 -140h-348z" />
    <glyph glyph-name="S" unicode="S" horiz-adv-x="560" 
d="M198 -10q-68 0 -128.5 11.5t-98.5 33.5l38 181q43 -23 98.5 -38t101.5 -15q32 0 51 8.5t19 24.5t-29 25t-75 28q-64 27 -96 60.5t-32 87.5q0 27 7 56q22 102 97 151.5t229 49.5q32 0 70 -4.5t74 -11.5t61 -15l-39 -182q-49 23 -89.5 31t-72.5 8q-18 0 -37 -2t-32.5 -8
t-13.5 -18t21.5 -18.5t65.5 -20.5q84 -25 116.5 -63t32.5 -92q0 -15 -2 -31t-6 -34q-13 -61 -50.5 -107t-105.5 -71t-175 -25z" />
    <glyph glyph-name="Sacute" unicode="&#x15a;" horiz-adv-x="560" 
d="M268 688l144 226h186l-153 -226h-177zM198 -10q-68 0 -128.5 11.5t-98.5 33.5l38 181q43 -23 98.5 -38t101.5 -15q32 0 51 8.5t19 24.5t-29 25t-75 28q-64 27 -96 60.5t-32 87.5q0 27 7 56q22 102 97 151.5t229 49.5q32 0 70 -4.5t74 -11.5t61 -15l-39 -182
q-49 23 -89.5 31t-72.5 8q-18 0 -37 -2t-32.5 -8t-13.5 -18t21.5 -18.5t65.5 -20.5q84 -25 116.5 -63t32.5 -92q0 -15 -2 -31t-6 -34q-13 -61 -50.5 -107t-105.5 -71t-175 -25z" />
    <glyph glyph-name="Scaron" unicode="&#x160;" horiz-adv-x="560" 
d="M302 688l-129 216h165l51 -107l99 107h175l-221 -216h-140zM198 -10q-68 0 -128.5 11.5t-98.5 33.5l38 181q43 -23 98.5 -38t101.5 -15q32 0 51 8.5t19 24.5t-29 25t-75 28q-64 27 -96 60.5t-32 87.5q0 27 7 56q22 102 97 151.5t229 49.5q32 0 70 -4.5t74 -11.5t61 -15
l-39 -182q-49 23 -89.5 31t-72.5 8q-18 0 -37 -2t-32.5 -8t-13.5 -18t21.5 -18.5t65.5 -20.5q84 -25 116.5 -63t32.5 -92q0 -15 -2 -31t-6 -34q-13 -61 -50.5 -107t-105.5 -71t-175 -25z" />
    <glyph glyph-name="Scedilla" unicode="&#x15e;" horiz-adv-x="560" 
d="M132 -240q-12 0 -30 1t-33.5 3t-22.5 4l17 77q26 -8 56 -8q68 0 74 35q4 16 -5 22t-26 6h-74l45 93q-49 5 -91 15.5t-71 26.5l38 181q43 -23 98.5 -38t101.5 -15q32 0 51 8.5t19 24.5t-29 25t-75 28q-64 27 -96 60.5t-32 87.5q0 27 7 56q22 102 97 151.5t229 49.5
q32 0 70 -4.5t74 -11.5t61 -15l-39 -182q-49 23 -89.5 31t-72.5 8q-18 0 -37 -2t-32.5 -8t-13.5 -18t21.5 -18.5t65.5 -20.5q84 -25 116.5 -63t32.5 -92q0 -15 -2 -31t-6 -34q-12 -56 -44 -99t-88 -69t-144 -33l-16 -29q44 0 66.5 -21t22.5 -53v-11t-2 -11q-10 -49 -59 -78
t-133 -29z" />
    <glyph glyph-name="Scircumflex" unicode="&#x15c;" horiz-adv-x="549" 
d="M112 688l220 216h141l129 -216h-161l-54 107l-95 -107h-180zM198 -10q-68 0 -128.5 11.5t-98.5 33.5l38 181q43 -23 98.5 -38t101.5 -15q32 0 51 8.5t19 24.5t-29 25t-75 28q-64 27 -96 60.5t-32 87.5q0 27 7 56q22 102 97 151.5t229 49.5q32 0 70 -4.5t74 -11.5t61 -15
l-39 -182q-49 23 -89.5 31t-72.5 8q-18 0 -37 -2t-32.5 -8t-13.5 -18t21.5 -18.5t65.5 -20.5q84 -25 116.5 -63t32.5 -92q0 -15 -2 -31t-6 -34q-13 -61 -50.5 -107t-105.5 -71t-175 -25z" />
    <glyph glyph-name="uni0218" unicode="&#x218;" horiz-adv-x="560" 
d="M198 -10q-68 0 -128.5 11.5t-98.5 33.5l38 181q43 -23 98.5 -38t101.5 -15q32 0 51 8.5t19 24.5t-29 25t-75 28q-64 27 -96 60.5t-32 87.5q0 27 7 56q22 102 97 151.5t229 49.5q32 0 70 -4.5t74 -11.5t61 -15l-39 -182q-49 23 -89.5 31t-72.5 8q-18 0 -37 -2t-32.5 -8
t-13.5 -18t21.5 -18.5t65.5 -20.5q84 -25 116.5 -63t32.5 -92q0 -15 -2 -31t-6 -34q-13 -61 -50.5 -107t-105.5 -71t-175 -25zM46 -241l78 204h200l-94 -204h-184z" />
    <glyph glyph-name="uni1E60" unicode="&#x1e60;" horiz-adv-x="560" 
d="M291 718l29 141h156l-30 -141h-155zM198 -10q-68 0 -128.5 11.5t-98.5 33.5l38 181q43 -23 98.5 -38t101.5 -15q32 0 51 8.5t19 24.5t-29 25t-75 28q-64 27 -96 60.5t-32 87.5q0 27 7 56q22 102 97 151.5t229 49.5q32 0 70 -4.5t74 -11.5t61 -15l-39 -182
q-49 23 -89.5 31t-72.5 8q-18 0 -37 -2t-32.5 -8t-13.5 -18t21.5 -18.5t65.5 -20.5q84 -25 116.5 -63t32.5 -92q0 -15 -2 -31t-6 -34q-13 -61 -50.5 -107t-105.5 -71t-175 -25z" />
    <glyph glyph-name="uni1E62" unicode="&#x1e62;" horiz-adv-x="560" 
d="M198 -10q-68 0 -128.5 11.5t-98.5 33.5l38 181q43 -23 98.5 -38t101.5 -15q32 0 51 8.5t19 24.5t-29 25t-75 28q-64 27 -96 60.5t-32 87.5q0 27 7 56q22 102 97 151.5t229 49.5q32 0 70 -4.5t74 -11.5t61 -15l-39 -182q-49 23 -89.5 31t-72.5 8q-18 0 -37 -2t-32.5 -8
t-13.5 -18t21.5 -18.5t65.5 -20.5q84 -25 116.5 -63t32.5 -92q0 -15 -2 -31t-6 -34q-13 -61 -50.5 -107t-105.5 -71t-175 -25zM97 -213l30 141h156l-30 -141h-156z" />
    <glyph glyph-name="uni1E9E" unicode="&#x1e9e;" horiz-adv-x="657" 
d="M356 -10q-38 0 -72.5 6t-51.5 16l32 151q11 -4 28.5 -6.5t30.5 -2.5q56 0 56 42q0 14 -10.5 21t-36.5 7h-54l23 107l128 98q2 11 -12.5 21t-49.5 10q-40 0 -58.5 -18t-24.5 -44l-84 -398h-227l85 401q24 114 110.5 183.5t240.5 69.5q77 0 132 -25.5t84.5 -69.5t29.5 -101
q0 -23 -6 -49l-135 -103h14q44 0 70 -27.5t26 -76.5q0 -8 -1 -17.5t-3 -19.5q-18 -91 -87.5 -133t-176.5 -42z" />
    <glyph glyph-name="uni018F" unicode="&#x18f;" horiz-adv-x="704" 
d="M289 -10q-83 0 -145.5 26t-97.5 77t-35 124q0 17 2 35t6 37l24 113h453q1 36 -12.5 58t-50.5 32t-108 10q-25 0 -58.5 -4t-68 -10.5t-64.5 -14t-48 -15.5l31 147q54 20 132 34.5t161 14.5q91 0 157.5 -32t103 -90.5t36.5 -138.5q0 -39 -9 -81q-21 -97 -69 -169.5
t-131 -112.5t-209 -40zM320 132q66 0 99.5 33t44.5 86h-246l-4 -19q-3 -12 -3 -25q0 -29 22.5 -52t86.5 -23z" />
    <glyph glyph-name="T" unicode="T" horiz-adv-x="570" 
d="M108 0l99 470h-164l37 174h570l-37 -174h-164l-99 -470h-242z" />
    <glyph glyph-name="Tbar" unicode="&#x166;" horiz-adv-x="560" 
d="M103 0l50 239h-77l33 154h77l16 77h-164l37 174h570l-37 -174h-164l-16 -77h67l-33 -154h-67l-50 -239h-242z" />
    <glyph glyph-name="Tcaron" unicode="&#x164;" horiz-adv-x="560" 
d="M300 688l-129 216h165l51 -107l99 107h175l-221 -216h-140zM103 0l99 470h-164l37 174h570l-37 -174h-164l-99 -470h-242z" />
    <glyph glyph-name="uni0162" unicode="&#x162;" horiz-adv-x="560" 
d="M156 -240q-12 0 -30 1t-33.5 3t-22.5 4l17 77q26 -8 56 -8q68 0 74 35q4 16 -5 22t-26 6h-74l49 100h-58l99 470h-164l37 174h570l-37 -174h-164l-99 -470h-63l-21 -37q44 0 66.5 -21t22.5 -53v-11t-2 -11q-10 -49 -59 -78t-133 -29z" />
    <glyph glyph-name="uni021A" unicode="&#x21a;" horiz-adv-x="560" 
d="M103 0l99 470h-164l37 174h570l-37 -174h-164l-99 -470h-242zM48 -286l89 249h179l-118 -249h-150z" />
    <glyph glyph-name="uni1E6C" unicode="&#x1e6c;" horiz-adv-x="560" 
d="M103 0l99 470h-164l37 174h570l-37 -174h-164l-99 -470h-242zM101 -193l30 141h156l-30 -141h-156z" />
    <glyph glyph-name="uni1E6E" unicode="&#x1e6e;" horiz-adv-x="560" 
d="M103 0l99 470h-164l37 174h570l-37 -174h-164l-99 -470h-242zM10 -188l30 140h348l-30 -140h-348z" />
    <glyph glyph-name="U" unicode="U" horiz-adv-x="704" 
d="M293 -10q-124 0 -197.5 56.5t-73.5 153.5q0 28 6 58l82 386h242l-76 -359q-6 -25 -6 -43q0 -28 16.5 -37.5t50.5 -9.5q47 0 68 22t31 68l76 359h242l-83 -390q-27 -129 -121.5 -196.5t-256.5 -67.5z" />
    <glyph glyph-name="Uacute" unicode="&#xda;" horiz-adv-x="704" 
d="M354 688l144 226h186l-153 -226h-177zM293 -10q-124 0 -197.5 56.5t-73.5 153.5q0 28 6 58l82 386h242l-76 -359q-6 -25 -6 -43q0 -28 16.5 -37.5t50.5 -9.5q47 0 68 22t31 68l76 359h242l-83 -390q-27 -129 -121.5 -196.5t-256.5 -67.5z" />
    <glyph glyph-name="Ubreve" unicode="&#x16c;" horiz-adv-x="704" 
d="M441 688q-83 0 -131 40.5t-48 117.5q0 14 1.5 30t5.5 32h147q-2 -8 -3 -16.5t-1 -16.5q0 -23 11 -39t39 -16q38 0 58 27t27 61h162q-23 -107 -95 -163.5t-173 -56.5zM293 -10q-124 0 -197.5 56.5t-73.5 153.5q0 28 6 58l82 386h242l-76 -359q-6 -25 -6 -43
q0 -28 16.5 -37.5t50.5 -9.5q47 0 68 22t31 68l76 359h242l-83 -390q-27 -129 -121.5 -196.5t-256.5 -67.5z" />
    <glyph glyph-name="uni01D3" unicode="&#x1d3;" horiz-adv-x="704" 
d="M372 688l-129 216h165l51 -107l99 107h175l-221 -216h-140zM293 -10q-124 0 -197.5 56.5t-73.5 153.5q0 28 6 58l82 386h242l-76 -359q-6 -25 -6 -43q0 -28 16.5 -37.5t50.5 -9.5q47 0 68 22t31 68l76 359h242l-83 -390q-27 -129 -121.5 -196.5t-256.5 -67.5z" />
    <glyph glyph-name="Ucircumflex" unicode="&#xdb;" horiz-adv-x="704" 
d="M197 688l220 216h141l129 -216h-161l-54 107l-95 -107h-180zM293 -10q-124 0 -197.5 56.5t-73.5 153.5q0 28 6 58l82 386h242l-76 -359q-6 -25 -6 -43q0 -28 16.5 -37.5t50.5 -9.5q47 0 68 22t31 68l76 359h242l-83 -390q-27 -129 -121.5 -196.5t-256.5 -67.5z" />
    <glyph glyph-name="Udieresis" unicode="&#xdc;" horiz-adv-x="704" 
d="M253 718l30 141h155l-30 -141h-155zM487 718l30 141h156l-30 -141h-156zM293 -10q-124 0 -197.5 56.5t-73.5 153.5q0 28 6 58l82 386h242l-76 -359q-6 -25 -6 -43q0 -28 16.5 -37.5t50.5 -9.5q47 0 68 22t31 68l76 359h242l-83 -390q-27 -129 -121.5 -196.5t-256.5 -67.5
z" />
    <glyph glyph-name="uni01D7" unicode="&#x1d7;" horiz-adv-x="704" 
d="M395 862l86 145h178l-104 -145h-160zM254 698l28 133h152l-28 -133h-152zM483 698l28 133h152l-28 -133h-152zM293 -10q-124 0 -197.5 56.5t-73.5 153.5q0 28 6 58l82 386h242l-76 -359q-6 -25 -6 -43q0 -28 16.5 -37.5t50.5 -9.5q47 0 68 22t31 68l76 359h242l-83 -390
q-27 -129 -121.5 -196.5t-256.5 -67.5z" />
    <glyph glyph-name="uni01D9" unicode="&#x1d9;" horiz-adv-x="704" 
d="M398 862l-119 145h171l41 -73l73 73h177l-178 -145h-165zM250 698l28 133h152l-28 -133h-152zM479 698l28 133h151l-28 -133h-151zM293 -10q-124 0 -197.5 56.5t-73.5 153.5q0 28 6 58l82 386h242l-76 -359q-6 -25 -6 -43q0 -28 16.5 -37.5t50.5 -9.5q47 0 68 22t31 68
l76 359h242l-83 -390q-27 -129 -121.5 -196.5t-256.5 -67.5z" />
    <glyph glyph-name="uni01DB" unicode="&#x1db;" horiz-adv-x="704" 
d="M411 897l-44 145h178l26 -145h-160zM261 733l28 133h152l-28 -133h-152zM490 733l28 133h152l-28 -133h-152zM293 -10q-124 0 -197.5 56.5t-73.5 153.5q0 28 6 58l82 386h242l-76 -359q-6 -25 -6 -43q0 -28 16.5 -37.5t50.5 -9.5q47 0 68 22t31 68l76 359h242l-83 -390
q-27 -129 -121.5 -196.5t-256.5 -67.5z" />
    <glyph glyph-name="uni01D5" unicode="&#x1d5;" horiz-adv-x="704" 
d="M310 888l30 140h348l-30 -140h-348zM249 697l30 141h155l-30 -141h-155zM483 697l30 141h156l-30 -141h-156zM293 -10q-124 0 -197.5 56.5t-73.5 153.5q0 28 6 58l82 386h242l-76 -359q-6 -25 -6 -43q0 -28 16.5 -37.5t50.5 -9.5q47 0 68 22t31 68l76 359h242l-83 -390
q-27 -129 -121.5 -196.5t-256.5 -67.5z" />
    <glyph glyph-name="uni1EE4" unicode="&#x1ee4;" horiz-adv-x="704" 
d="M293 -10q-124 0 -197.5 56.5t-73.5 153.5q0 28 6 58l82 386h242l-76 -359q-6 -25 -6 -43q0 -28 16.5 -37.5t50.5 -9.5q47 0 68 22t31 68l76 359h242l-83 -390q-27 -129 -121.5 -196.5t-256.5 -67.5zM173 -213l30 141h156l-30 -141h-156z" />
    <glyph glyph-name="Ugrave" unicode="&#xd9;" horiz-adv-x="704" 
d="M354 688l-57 226h186l48 -226h-177zM293 -10q-124 0 -197.5 56.5t-73.5 153.5q0 28 6 58l82 386h242l-76 -359q-6 -25 -6 -43q0 -28 16.5 -37.5t50.5 -9.5q47 0 68 22t31 68l76 359h242l-83 -390q-27 -129 -121.5 -196.5t-256.5 -67.5z" />
    <glyph glyph-name="uni1EE6" unicode="&#x1ee6;" horiz-adv-x="704" 
d="M353 687l17 81q50 3 70 13.5t23 25.5q7 28 -44 28q-30 0 -58 -10l20 94q26 7 58 11t75 4q65 0 98 -24.5t33 -62.5q0 -5 -0.5 -10t-1.5 -10q-10 -45 -34 -67.5t-70 -36.5l-8 -36h-178zM293 -10q-124 0 -197.5 56.5t-73.5 153.5q0 28 6 58l82 386h242l-76 -359
q-6 -25 -6 -43q0 -28 16.5 -37.5t50.5 -9.5q47 0 68 22t31 68l76 359h242l-83 -390q-27 -129 -121.5 -196.5t-256.5 -67.5z" />
    <glyph glyph-name="Uhorn" unicode="&#x1af;" horiz-adv-x="911" 
d="M293 -10q-124 0 -197.5 56.5t-73.5 153.5q0 28 6 58l82 386h242l-76 -359q-6 -25 -6 -43q0 -28 16.5 -37.5t50.5 -9.5q47 0 68 22t31 68l76 359h242l-9 -43q47 2 64.5 21t26.5 66h169q-19 -88 -53.5 -140.5t-92 -75.5t-147.5 -25l-41 -193q-27 -129 -121.5 -196.5
t-256.5 -67.5z" />
    <glyph glyph-name="uni1EE8" unicode="&#x1ee8;" horiz-adv-x="911" 
d="M356 688l144 226h186l-153 -226h-177zM293 -10q-124 0 -197.5 56.5t-73.5 153.5q0 28 6 58l82 386h242l-76 -359q-6 -25 -6 -43q0 -28 16.5 -37.5t50.5 -9.5q47 0 68 22t31 68l76 359h242l-9 -43q47 2 64.5 21t26.5 66h169q-19 -88 -53.5 -140.5t-92 -75.5t-147.5 -25
l-41 -193q-27 -129 -121.5 -196.5t-256.5 -67.5z" />
    <glyph glyph-name="uni1EF0" unicode="&#x1ef0;" horiz-adv-x="911" 
d="M293 -10q-124 0 -197.5 56.5t-73.5 153.5q0 28 6 58l82 386h242l-76 -359q-6 -25 -6 -43q0 -28 16.5 -37.5t50.5 -9.5q47 0 68 22t31 68l76 359h242l-9 -43q47 2 64.5 21t26.5 66h169q-19 -88 -53.5 -140.5t-92 -75.5t-147.5 -25l-41 -193q-27 -129 -121.5 -196.5
t-256.5 -67.5zM175 -213l30 141h156l-30 -141h-156z" />
    <glyph glyph-name="uni1EEA" unicode="&#x1eea;" horiz-adv-x="911" 
d="M362 688l-57 226h186l48 -226h-177zM293 -10q-124 0 -197.5 56.5t-73.5 153.5q0 28 6 58l82 386h242l-76 -359q-6 -25 -6 -43q0 -28 16.5 -37.5t50.5 -9.5q47 0 68 22t31 68l76 359h242l-9 -43q47 2 64.5 21t26.5 66h169q-19 -88 -53.5 -140.5t-92 -75.5t-147.5 -25
l-41 -193q-27 -129 -121.5 -196.5t-256.5 -67.5z" />
    <glyph glyph-name="uni1EEC" unicode="&#x1eec;" horiz-adv-x="911" 
d="M355 688l17 81q50 3 70 13.5t23 25.5q7 28 -44 28q-30 0 -58 -10l20 94q26 7 58 11t75 4q65 0 98 -24.5t33 -62.5q0 -5 -0.5 -10t-1.5 -10q-10 -45 -34 -67.5t-70 -36.5l-8 -36h-178zM293 -10q-124 0 -197.5 56.5t-73.5 153.5q0 28 6 58l82 386h242l-76 -359
q-6 -25 -6 -43q0 -28 16.5 -37.5t50.5 -9.5q47 0 68 22t31 68l76 359h242l-9 -43q47 2 64.5 21t26.5 66h169q-19 -88 -53.5 -140.5t-92 -75.5t-147.5 -25l-41 -193q-27 -129 -121.5 -196.5t-256.5 -67.5z" />
    <glyph glyph-name="uni1EEE" unicode="&#x1eee;" horiz-adv-x="911" 
d="M554 688q-36 0 -68.5 11t-62.5 22t-61 11q-34 0 -63 -11.5t-51 -29.5l30 141q18 14 48.5 24.5t61.5 10.5q37 0 67 -11l60 -22t64 -11q35 0 63 12.5t44 28.5l-30 -141q-13 -13 -41.5 -24t-60.5 -11zM293 -10q-124 0 -197.5 56.5t-73.5 153.5q0 28 6 58l82 386h242
l-76 -359q-6 -25 -6 -43q0 -28 16.5 -37.5t50.5 -9.5q47 0 68 22t31 68l76 359h242l-9 -43q47 2 64.5 21t26.5 66h169q-19 -88 -53.5 -140.5t-92 -75.5t-147.5 -25l-41 -193q-27 -129 -121.5 -196.5t-256.5 -67.5z" />
    <glyph glyph-name="Uhungarumlaut" unicode="&#x170;" horiz-adv-x="704" 
d="M200 688l138 203h205l-156 -203h-187zM469 688l138 203h206l-157 -203h-187zM293 -10q-124 0 -197.5 56.5t-73.5 153.5q0 28 6 58l82 386h242l-76 -359q-6 -25 -6 -43q0 -28 16.5 -37.5t50.5 -9.5q47 0 68 22t31 68l76 359h242l-83 -390q-27 -129 -121.5 -196.5
t-256.5 -67.5z" />
    <glyph glyph-name="Umacron" unicode="&#x16a;" horiz-adv-x="704" 
d="M276 728l30 140h348l-30 -140h-348zM293 -10q-124 0 -197.5 56.5t-73.5 153.5q0 28 6 58l82 386h242l-76 -359q-6 -25 -6 -43q0 -28 16.5 -37.5t50.5 -9.5q47 0 68 22t31 68l76 359h242l-83 -390q-27 -129 -121.5 -196.5t-256.5 -67.5z" />
    <glyph glyph-name="Uogonek" unicode="&#x172;" horiz-adv-x="704" 
d="M248 -220q-60 0 -94.5 19.5t-34.5 60.5q0 46 29.5 81.5t66.5 55.5q-90 16 -141.5 69t-51.5 134q0 28 6 58l82 386h242l-76 -359q-6 -25 -6 -43q0 -28 16.5 -37.5t50.5 -9.5q47 0 68 22t31 68l76 359h242l-83 -390q-25 -116 -104.5 -183t-213.5 -78q-20 -15 -34 -32
t-19 -37q-1 -3 -1 -8q0 -13 11 -18t30 -5q13 0 28 3t25 8l-22 -106q-19 -6 -52 -12t-71 -6z" />
    <glyph glyph-name="Uring" unicode="&#x16e;" horiz-adv-x="704" 
d="M442 688q-60 0 -92.5 31.5t-32.5 79.5q0 16 3 32q13 61 60 102.5t123 41.5q62 0 94.5 -31.5t32.5 -79.5q0 -8 -1 -16.5t-3 -16.5q-13 -60 -60.5 -101.5t-123.5 -41.5zM461 780q32 0 49 20t17 44q0 16 -10.5 27t-33.5 11q-32 0 -49 -20t-17 -44q0 -16 10.5 -27t33.5 -11z
M293 -10q-124 0 -197.5 56.5t-73.5 153.5q0 28 6 58l82 386h242l-76 -359q-6 -25 -6 -43q0 -28 16.5 -37.5t50.5 -9.5q47 0 68 22t31 68l76 359h242l-83 -390q-27 -129 -121.5 -196.5t-256.5 -67.5z" />
    <glyph glyph-name="Utilde" unicode="&#x168;" horiz-adv-x="704" 
d="M550 693q-36 0 -68.5 11t-62.5 22t-61 11q-34 0 -63 -11.5t-51 -29.5l30 141q18 14 48.5 24.5t61.5 10.5q37 0 67 -11l60 -22t64 -11q35 0 63 12.5t44 28.5l-30 -141q-13 -13 -41.5 -24t-60.5 -11zM293 -10q-124 0 -197.5 56.5t-73.5 153.5q0 28 6 58l82 386h242
l-76 -359q-6 -25 -6 -43q0 -28 16.5 -37.5t50.5 -9.5q47 0 68 22t31 68l76 359h242l-83 -390q-27 -129 -121.5 -196.5t-256.5 -67.5z" />
    <glyph glyph-name="V" unicode="V" horiz-adv-x="777" 
d="M207 0l-112 644h245l45 -358l198 358h259l-384 -644h-251z" />
    <glyph glyph-name="W" unicode="W" horiz-adv-x="911" 
d="M109 0l-14 644h236l-3 -246l66 137l23 109h197l20 -247l107 247h235l-285 -644h-204l-24 254l-136 -254h-218z" />
    <glyph glyph-name="Wacute" unicode="&#x1e82;" horiz-adv-x="911" 
d="M432 688l144 226h186l-153 -226h-177zM109 0l-14 644h236l-3 -246l66 137l23 109h197l20 -247l107 247h235l-285 -644h-204l-24 254l-136 -254h-218z" />
    <glyph glyph-name="Wcircumflex" unicode="&#x174;" horiz-adv-x="911" 
d="M304 688l220 216h141l129 -216h-161l-54 107l-95 -107h-180zM109 0l-14 644h236l-3 -246l66 137l23 109h197l20 -247l107 247h235l-285 -644h-204l-24 254l-136 -254h-218z" />
    <glyph glyph-name="Wdieresis" unicode="&#x1e84;" horiz-adv-x="911" 
d="M360 718l30 141h155l-30 -141h-155zM594 718l30 141h156l-30 -141h-156zM109 0l-14 644h236l-3 -246l66 137l23 109h197l20 -247l107 247h235l-285 -644h-204l-24 254l-136 -254h-218z" />
    <glyph glyph-name="Wgrave" unicode="&#x1e80;" horiz-adv-x="911" 
d="M445 688l-57 226h186l48 -226h-177zM109 0l-14 644h236l-3 -246l66 137l23 109h197l20 -247l107 247h235l-285 -644h-204l-24 254l-136 -254h-218z" />
    <glyph glyph-name="X" unicode="X" horiz-adv-x="809" 
d="M-42 0l313 329l-165 315h289l63 -119l114 119h289l-299 -315l175 -329h-293l-69 131l-124 -131h-293z" />
    <glyph glyph-name="Y" unicode="Y" horiz-adv-x="728" 
d="M187 0l49 234l-146 410h245l59 -205l145 205h259l-320 -410l-49 -234h-242z" />
    <glyph glyph-name="Yacute" unicode="&#xdd;" horiz-adv-x="738" 
d="M370 688l144 226h186l-153 -226h-177zM192 0l49 234l-146 410h245l59 -205l145 205h259l-320 -410l-49 -234h-242z" />
    <glyph glyph-name="Ycircumflex" unicode="&#x176;" horiz-adv-x="738" 
d="M214 688l220 216h141l129 -216h-161l-54 107l-95 -107h-180zM192 0l49 234l-146 410h245l59 -205l145 205h259l-320 -410l-49 -234h-242z" />
    <glyph glyph-name="Ydieresis" unicode="&#x178;" horiz-adv-x="738" 
d="M270 718l30 141h155l-30 -141h-155zM504 718l30 141h156l-30 -141h-156zM192 0l49 234l-146 410h245l59 -205l145 205h259l-320 -410l-49 -234h-242z" />
    <glyph glyph-name="uni1E8E" unicode="&#x1e8e;" horiz-adv-x="738" 
d="M387 718l29 141h156l-30 -141h-155zM192 0l49 234l-146 410h245l59 -205l145 205h259l-320 -410l-49 -234h-242z" />
    <glyph glyph-name="uni1EF4" unicode="&#x1ef4;" horiz-adv-x="738" 
d="M192 0l49 234l-146 410h245l59 -205l145 205h259l-320 -410l-49 -234h-242zM190 -213l30 141h156l-30 -141h-156z" />
    <glyph glyph-name="Ygrave" unicode="&#x1ef2;" horiz-adv-x="738" 
d="M374 688l-57 226h186l48 -226h-177zM192 0l49 234l-146 410h245l59 -205l145 205h259l-320 -410l-49 -234h-242z" />
    <glyph glyph-name="uni1EF6" unicode="&#x1ef6;" horiz-adv-x="738" 
d="M372 687l17 81q50 3 70 13.5t23 25.5q7 28 -44 28q-30 0 -58 -10l20 94q26 7 58 11t75 4q65 0 98 -24.5t33 -62.5q0 -5 -0.5 -10t-1.5 -10q-10 -45 -34 -67.5t-70 -36.5l-8 -36h-178zM192 0l49 234l-146 410h245l59 -205l145 205h259l-320 -410l-49 -234h-242z" />
    <glyph glyph-name="uni1EF8" unicode="&#x1ef8;" horiz-adv-x="738" 
d="M567 693q-36 0 -68.5 11t-62.5 22t-61 11q-34 0 -63 -11.5t-51 -29.5l30 141q18 14 48.5 24.5t61.5 10.5q37 0 67 -11l60 -22t64 -11q35 0 63 12.5t44 28.5l-30 -141q-13 -13 -41.5 -24t-60.5 -11zM192 0l49 234l-146 410h245l59 -205l145 205h259l-320 -410l-49 -234
h-242z" />
    <glyph glyph-name="Z" unicode="Z" horiz-adv-x="586" 
d="M-42 0l25 119l305 327h-222l42 198h541l-29 -137l-301 -323h239l-39 -184h-561z" />
    <glyph glyph-name="Zacute" unicode="&#x179;" horiz-adv-x="586" 
d="M281 688l144 226h186l-153 -226h-177zM-42 0l25 119l305 327h-222l42 198h541l-29 -137l-301 -323h239l-39 -184h-561z" />
    <glyph glyph-name="Zcaron" unicode="&#x17d;" horiz-adv-x="586" 
d="M332 688l-129 216h165l51 -107l99 107h175l-221 -216h-140zM-42 0l25 119l305 327h-222l42 198h541l-29 -137l-301 -323h239l-39 -184h-561z" />
    <glyph glyph-name="Zdotaccent" unicode="&#x17b;" horiz-adv-x="586" 
d="M321 718l29 141h156l-30 -141h-155zM-42 0l25 119l305 327h-222l42 198h541l-29 -137l-301 -323h239l-39 -184h-561z" />
    <glyph glyph-name="uni1E92" unicode="&#x1e92;" horiz-adv-x="586" 
d="M-42 0l25 119l305 327h-222l42 198h541l-29 -137l-301 -323h239l-39 -184h-561zM134 -213l30 141h156l-30 -141h-156z" />
    <glyph glyph-name="a" unicode="a" horiz-adv-x="628" 
d="M168 -10q-79 0 -125.5 38t-46.5 118q0 16 2 33.5t6 36.5q27 125 99 196.5t186 71.5q37 0 63.5 -10t41.5 -25l5 25h238l-100 -474h-210l-5 31q-30 -19 -70 -30t-84 -11zM287 163q14 0 25 4t20 11l25 118q-14 15 -38 15q-48 0 -66 -87q-3 -16 -3 -27q0 -21 10.5 -27.5
t26.5 -6.5z" />
    <glyph glyph-name="aacute" unicode="&#xe1;" horiz-adv-x="628" 
d="M262 522l144 226h186l-153 -226h-177zM168 -10q-79 0 -125.5 38t-46.5 118q0 16 2 33.5t6 36.5q27 125 99 196.5t186 71.5q37 0 63.5 -10t41.5 -25l5 25h238l-100 -474h-210l-5 31q-30 -19 -70 -30t-84 -11zM287 163q14 0 25 4t20 11l25 118q-14 15 -38 15q-48 0 -66 -87
q-3 -16 -3 -27q0 -21 10.5 -27.5t26.5 -6.5z" />
    <glyph glyph-name="abreve" unicode="&#x103;" horiz-adv-x="628" 
d="M367 522q-83 0 -131 40.5t-48 117.5q0 14 1.5 30t5.5 32h147q-2 -8 -3 -16.5t-1 -16.5q0 -23 11 -39t39 -16q38 0 58 27t27 61h162q-23 -107 -95 -163.5t-173 -56.5zM168 -10q-79 0 -125.5 38t-46.5 118q0 16 2 33.5t6 36.5q27 125 99 196.5t186 71.5q37 0 63.5 -10
t41.5 -25l5 25h238l-100 -474h-210l-5 31q-30 -19 -70 -30t-84 -11zM287 163q14 0 25 4t20 11l25 118q-14 15 -38 15q-48 0 -66 -87q-3 -16 -3 -27q0 -21 10.5 -27.5t26.5 -6.5z" />
    <glyph glyph-name="uni1EAF" unicode="&#x1eaf;" horiz-adv-x="628" 
d="M342 729l111 172h155l-118 -172h-148zM366 522q-70 0 -117 33.5t-47 103.5q0 24 6 51h127q-1 -7 -2.5 -14t-1.5 -12q0 -45 52 -45q39 0 56.5 20.5t24.5 50.5h141q-21 -97 -84.5 -142.5t-154.5 -45.5zM168 -10q-79 0 -125.5 38t-46.5 118q0 16 2 33.5t6 36.5
q27 125 99 196.5t186 71.5q37 0 63.5 -10t41.5 -25l5 25h238l-100 -474h-210l-5 31q-30 -19 -70 -30t-84 -11zM287 163q14 0 25 4t20 11l25 118q-14 15 -38 15q-48 0 -66 -87q-3 -16 -3 -27q0 -21 10.5 -27.5t26.5 -6.5z" />
    <glyph glyph-name="uni1EB7" unicode="&#x1eb7;" horiz-adv-x="628" 
d="M375 522q-83 0 -131 40.5t-48 117.5q0 14 1.5 30t5.5 32h147q-2 -8 -3 -16.5t-1 -16.5q0 -23 11 -39t39 -16q38 0 58 27t27 61h162q-23 -107 -95 -163.5t-173 -56.5zM168 -10q-79 0 -125.5 38t-46.5 118q0 16 2 33.5t6 36.5q27 125 99 196.5t186 71.5q37 0 63.5 -10
t41.5 -25l5 25h238l-100 -474h-210l-5 31q-30 -19 -70 -30t-84 -11zM287 163q14 0 25 4t20 11l25 118q-14 15 -38 15q-48 0 -66 -87q-3 -16 -3 -27q0 -21 10.5 -27.5t26.5 -6.5zM144 -213l30 141h156l-30 -141h-156z" />
    <glyph glyph-name="uni1EB1" unicode="&#x1eb1;" horiz-adv-x="628" 
d="M328 729l-47 172h156l39 -172h-148zM363 522q-70 0 -117 33.5t-47 103.5q0 24 6 51h127q-1 -7 -2.5 -14t-1.5 -12q0 -45 52 -45q39 0 56.5 20.5t24.5 50.5h141q-21 -97 -84.5 -142.5t-154.5 -45.5zM168 -10q-79 0 -125.5 38t-46.5 118q0 16 2 33.5t6 36.5
q27 125 99 196.5t186 71.5q37 0 63.5 -10t41.5 -25l5 25h238l-100 -474h-210l-5 31q-30 -19 -70 -30t-84 -11zM287 163q14 0 25 4t20 11l25 118q-14 15 -38 15q-48 0 -66 -87q-3 -16 -3 -27q0 -21 10.5 -27.5t26.5 -6.5z" />
    <glyph glyph-name="uni1EB3" unicode="&#x1eb3;" horiz-adv-x="628" 
d="M333 730l13 63q44 2 63 12.5t19 26.5q0 11 -9.5 15t-29.5 4q-13 0 -26.5 -3.5t-24.5 -7.5l18 82q21 5 54 9t64 4q56 0 84 -21.5t28 -53.5q0 -4 -0.5 -8t-1.5 -9q-7 -34 -27 -54t-61 -32l-6 -27h-157zM368 522q-70 0 -117 33.5t-47 103.5q0 24 6 51h127q-1 -7 -2.5 -14
t-1.5 -12q0 -45 52 -45q39 0 56.5 20.5t24.5 50.5h141q-21 -97 -84.5 -142.5t-154.5 -45.5zM168 -10q-79 0 -125.5 38t-46.5 118q0 16 2 33.5t6 36.5q27 125 99 196.5t186 71.5q37 0 63.5 -10t41.5 -25l5 25h238l-100 -474h-210l-5 31q-30 -19 -70 -30t-84 -11zM287 163
q14 0 25 4t20 11l25 118q-14 15 -38 15q-48 0 -66 -87q-3 -16 -3 -27q0 -21 10.5 -27.5t26.5 -6.5z" />
    <glyph glyph-name="uni1EB5" unicode="&#x1eb5;" horiz-adv-x="628" 
d="M525 735q-34 0 -64.5 10.5t-59.5 21t-59 10.5q-33 0 -60.5 -11t-47.5 -28l26 125q17 13 45.5 23t58.5 10q35 0 64.5 -10.5t58 -21t60.5 -10.5q33 0 60 11.5t41 27.5l-26 -125q-11 -13 -39 -23t-58 -10zM377 522q-70 0 -117 33.5t-47 103.5q0 24 6 51h127q-1 -7 -2.5 -14
t-1.5 -12q0 -45 52 -45q39 0 56.5 20.5t24.5 50.5h141q-21 -97 -84.5 -142.5t-154.5 -45.5zM168 -10q-79 0 -125.5 38t-46.5 118q0 16 2 33.5t6 36.5q27 125 99 196.5t186 71.5q37 0 63.5 -10t41.5 -25l5 25h238l-100 -474h-210l-5 31q-30 -19 -70 -30t-84 -11zM287 163
q14 0 25 4t20 11l25 118q-14 15 -38 15q-48 0 -66 -87q-3 -16 -3 -27q0 -21 10.5 -27.5t26.5 -6.5z" />
    <glyph glyph-name="uni01CE" unicode="&#x1ce;" horiz-adv-x="628" 
d="M286 522l-129 216h165l51 -107l99 107h175l-221 -216h-140zM168 -10q-79 0 -125.5 38t-46.5 118q0 16 2 33.5t6 36.5q27 125 99 196.5t186 71.5q37 0 63.5 -10t41.5 -25l5 25h238l-100 -474h-210l-5 31q-30 -19 -70 -30t-84 -11zM287 163q14 0 25 4t20 11l25 118
q-14 15 -38 15q-48 0 -66 -87q-3 -16 -3 -27q0 -21 10.5 -27.5t26.5 -6.5z" />
    <glyph glyph-name="acircumflex" unicode="&#xe2;" horiz-adv-x="628" 
d="M113 522l220 216h141l129 -216h-161l-54 107l-95 -107h-180zM168 -10q-79 0 -125.5 38t-46.5 118q0 16 2 33.5t6 36.5q27 125 99 196.5t186 71.5q37 0 63.5 -10t41.5 -25l5 25h238l-100 -474h-210l-5 31q-30 -19 -70 -30t-84 -11zM287 163q14 0 25 4t20 11l25 118
q-14 15 -38 15q-48 0 -66 -87q-3 -16 -3 -27q0 -21 10.5 -27.5t26.5 -6.5z" />
    <glyph glyph-name="uni1EA5" unicode="&#x1ea5;" horiz-adv-x="628" 
d="M535 654l111 172h176l-120 -172h-167zM118 522l194 168h175l121 -168h-181l-40 76l-69 -76h-200zM168 -10q-79 0 -125.5 38t-46.5 118q0 16 2 33.5t6 36.5q27 125 99 196.5t186 71.5q37 0 63.5 -10t41.5 -25l5 25h238l-100 -474h-210l-5 31q-30 -19 -70 -30t-84 -11z
M287 163q14 0 25 4t20 11l25 118q-14 15 -38 15q-48 0 -66 -87q-3 -16 -3 -27q0 -21 10.5 -27.5t26.5 -6.5z" />
    <glyph glyph-name="uni1EAD" unicode="&#x1ead;" horiz-adv-x="628" 
d="M116 522l220 216h141l129 -216h-161l-54 107l-95 -107h-180zM168 -10q-79 0 -125.5 38t-46.5 118q0 16 2 33.5t6 36.5q27 125 99 196.5t186 71.5q37 0 63.5 -10t41.5 -25l5 25h238l-100 -474h-210l-5 31q-30 -19 -70 -30t-84 -11zM287 163q14 0 25 4t20 11l25 118
q-14 15 -38 15q-48 0 -66 -87q-3 -16 -3 -27q0 -21 10.5 -27.5t26.5 -6.5zM127 -213l30 141h156l-30 -141h-156z" />
    <glyph glyph-name="uni1EA7" unicode="&#x1ea7;" horiz-adv-x="628" 
d="M76 654l-46 172h176l38 -172h-168zM114 522l194 168h175l121 -168h-185l-37 76l-72 -76h-196zM168 -10q-79 0 -125.5 38t-46.5 118q0 16 2 33.5t6 36.5q27 125 99 196.5t186 71.5q37 0 63.5 -10t41.5 -25l5 25h238l-100 -474h-210l-5 31q-30 -19 -70 -30t-84 -11z
M287 163q14 0 25 4t20 11l25 118q-14 15 -38 15q-48 0 -66 -87q-3 -16 -3 -27q0 -21 10.5 -27.5t26.5 -6.5z" />
    <glyph glyph-name="uni1EA9" unicode="&#x1ea9;" horiz-adv-x="628" 
d="M533 631l17 80q42 2 55 9t13 17q0 12 -31 12q-12 0 -25 -3t-24 -7l20 92q20 5 50 8.5t67 3.5q56 0 84 -22t28 -54q0 -4 -0.5 -8t-1.5 -8q-7 -34 -29 -58t-60 -31l-7 -31h-156zM110 522l194 168h175l121 -168h-181l-40 76l-69 -76h-200zM168 -10q-79 0 -125.5 38
t-46.5 118q0 16 2 33.5t6 36.5q27 125 99 196.5t186 71.5q37 0 63.5 -10t41.5 -25l5 25h238l-100 -474h-210l-5 31q-30 -19 -70 -30t-84 -11zM287 163q14 0 25 4t20 11l25 118q-14 15 -38 15q-48 0 -66 -87q-3 -16 -3 -27q0 -21 10.5 -27.5t26.5 -6.5z" />
    <glyph glyph-name="uni1EAB" unicode="&#x1eab;" horiz-adv-x="628" 
d="M502 705q-34 0 -64.5 10.5t-59.5 21t-59 10.5q-33 0 -60.5 -11t-47.5 -28l28 135q17 13 45.5 23t58.5 10q35 0 64.5 -10.5t58 -21t60.5 -10.5q33 0 60 11.5t42 27.5l-29 -135q-12 -13 -39.5 -23t-57.5 -10zM110 522l194 168h175l121 -168h-181l-40 76l-69 -76h-200z
M168 -10q-79 0 -125.5 38t-46.5 118q0 16 2 33.5t6 36.5q27 125 99 196.5t186 71.5q37 0 63.5 -10t41.5 -25l5 25h238l-100 -474h-210l-5 31q-30 -19 -70 -30t-84 -11zM287 163q14 0 25 4t20 11l25 118q-14 15 -38 15q-48 0 -66 -87q-3 -16 -3 -27q0 -21 10.5 -27.5
t26.5 -6.5z" />
    <glyph glyph-name="adieresis" unicode="&#xe4;" horiz-adv-x="628" 
d="M182 552l30 141h155l-30 -141h-155zM416 552l30 141h156l-30 -141h-156zM168 -10q-79 0 -125.5 38t-46.5 118q0 16 2 33.5t6 36.5q27 125 99 196.5t186 71.5q37 0 63.5 -10t41.5 -25l5 25h238l-100 -474h-210l-5 31q-30 -19 -70 -30t-84 -11zM287 163q14 0 25 4t20 11
l25 118q-14 15 -38 15q-48 0 -66 -87q-3 -16 -3 -27q0 -21 10.5 -27.5t26.5 -6.5z" />
    <glyph glyph-name="uni1EA1" unicode="&#x1ea1;" horiz-adv-x="628" 
d="M168 -10q-79 0 -125.5 38t-46.5 118q0 16 2 33.5t6 36.5q27 125 99 196.5t186 71.5q37 0 63.5 -10t41.5 -25l5 25h238l-100 -474h-210l-5 31q-30 -19 -70 -30t-84 -11zM287 163q14 0 25 4t20 11l25 118q-14 15 -38 15q-48 0 -66 -87q-3 -16 -3 -27q0 -21 10.5 -27.5
t26.5 -6.5zM127 -213l30 141h156l-30 -141h-156z" />
    <glyph glyph-name="agrave" unicode="&#xe0;" horiz-adv-x="628" 
d="M272 522l-57 226h186l48 -226h-177zM168 -10q-79 0 -125.5 38t-46.5 118q0 16 2 33.5t6 36.5q27 125 99 196.5t186 71.5q37 0 63.5 -10t41.5 -25l5 25h238l-100 -474h-210l-5 31q-30 -19 -70 -30t-84 -11zM287 163q14 0 25 4t20 11l25 118q-14 15 -38 15q-48 0 -66 -87
q-3 -16 -3 -27q0 -21 10.5 -27.5t26.5 -6.5z" />
    <glyph glyph-name="uni1EA3" unicode="&#x1ea3;" horiz-adv-x="628" 
d="M264 522l17 81q50 3 70 13.5t23 25.5q7 28 -44 28q-30 0 -58 -10l20 94q26 7 58 11t75 4q65 0 98 -24.5t33 -62.5q0 -5 -0.5 -10t-1.5 -10q-10 -45 -34 -67.5t-70 -36.5l-8 -36h-178zM168 -10q-79 0 -125.5 38t-46.5 118q0 16 2 33.5t6 36.5q27 125 99 196.5t186 71.5
q37 0 63.5 -10t41.5 -25l5 25h238l-100 -474h-210l-5 31q-30 -19 -70 -30t-84 -11zM287 163q14 0 25 4t20 11l25 118q-14 15 -38 15q-48 0 -66 -87q-3 -16 -3 -27q0 -21 10.5 -27.5t26.5 -6.5z" />
    <glyph glyph-name="uni0251" unicode="&#x251;" horiz-adv-x="628" 
d="M168 -10q-79 0 -125.5 38t-46.5 118q0 16 2 33.5t6 36.5q27 125 99 196.5t186 71.5q37 0 63.5 -10t41.5 -25l5 25h238l-100 -474h-210l-5 31q-30 -19 -70 -30t-84 -11zM287 163q14 0 25 4t20 11l25 118q-14 15 -38 15q-48 0 -66 -87q-3 -16 -3 -27q0 -21 10.5 -27.5
t26.5 -6.5z" />
    <glyph glyph-name="amacron" unicode="&#x101;" horiz-adv-x="628" 
d="M206 532l30 140h348l-30 -140h-348zM168 -10q-79 0 -125.5 38t-46.5 118q0 16 2 33.5t6 36.5q27 125 99 196.5t186 71.5q37 0 63.5 -10t41.5 -25l5 25h238l-100 -474h-210l-5 31q-30 -19 -70 -30t-84 -11zM287 163q14 0 25 4t20 11l25 118q-14 15 -38 15q-48 0 -66 -87
q-3 -16 -3 -27q0 -21 10.5 -27.5t26.5 -6.5z" />
    <glyph glyph-name="aogonek" unicode="&#x105;" horiz-adv-x="628" 
d="M168 -10q-79 0 -125.5 38t-46.5 118q0 16 2 33.5t6 36.5q27 125 99 196.5t186 71.5q37 0 63.5 -10t41.5 -25l5 25h238l-100 -474h-64q-25 -16 -42.5 -35t-22.5 -41q-1 -3 -1 -8q0 -13 11 -18t30 -5q13 0 28 3t25 8l-22 -106q-19 -6 -52 -12t-71 -6q-60 0 -94.5 19.5
t-34.5 60.5q0 48 31.5 84.5t70.5 55.5h-2l-5 31q-30 -19 -70 -30t-84 -11zM287 163q14 0 25 4t20 11l25 118q-14 15 -38 15q-48 0 -66 -87q-3 -16 -3 -27q0 -21 10.5 -27.5t26.5 -6.5z" />
    <glyph glyph-name="aring" unicode="&#xe5;" horiz-adv-x="628" 
d="M373 522q-60 0 -92.5 31.5t-32.5 79.5q0 16 3 32q13 61 60 102.5t123 41.5q62 0 94.5 -31.5t32.5 -79.5q0 -8 -1 -16.5t-3 -16.5q-13 -60 -60.5 -101.5t-123.5 -41.5zM392 614q32 0 49 20t17 44q0 16 -10.5 27t-33.5 11q-32 0 -49 -20t-17 -44q0 -16 10.5 -27t33.5 -11z
M168 -10q-79 0 -125.5 38t-46.5 118q0 16 2 33.5t6 36.5q27 125 99 196.5t186 71.5q37 0 63.5 -10t41.5 -25l5 25h238l-100 -474h-210l-5 31q-30 -19 -70 -30t-84 -11zM287 163q14 0 25 4t20 11l25 118q-14 15 -38 15q-48 0 -66 -87q-3 -16 -3 -27q0 -21 10.5 -27.5
t26.5 -6.5z" />
    <glyph glyph-name="aringacute" unicode="&#x1fb;" horiz-adv-x="628" 
d="M348 823l144 180h186l-153 -180h-177zM356 512q-60 0 -92.5 31.5t-32.5 79.5q0 16 3 32q13 61 60 102.5t123 41.5q62 0 94.5 -31.5t32.5 -79.5q0 -8 -1 -16.5t-3 -16.5q-13 -60 -60.5 -101.5t-123.5 -41.5zM375 604q32 0 49 20t17 44q0 16 -10.5 27t-33.5 11
q-32 0 -49 -20t-17 -44q0 -16 10.5 -27t33.5 -11zM168 -10q-79 0 -125.5 38t-46.5 118q0 16 2 33.5t6 36.5q27 125 99 196.5t186 71.5q37 0 63.5 -10t41.5 -25l5 25h238l-100 -474h-210l-5 31q-30 -19 -70 -30t-84 -11zM287 163q14 0 25 4t20 11l25 118q-14 15 -38 15
q-48 0 -66 -87q-3 -16 -3 -27q0 -21 10.5 -27.5t26.5 -6.5z" />
    <glyph glyph-name="atilde" unicode="&#xe3;" horiz-adv-x="628" 
d="M479 527q-36 0 -68.5 11t-62.5 22t-61 11q-34 0 -63 -11.5t-51 -29.5l30 141q18 14 48.5 24.5t61.5 10.5q37 0 67 -11l60 -22t64 -11q35 0 63 12.5t44 28.5l-30 -141q-13 -13 -41.5 -24t-60.5 -11zM168 -10q-79 0 -125.5 38t-46.5 118q0 16 2 33.5t6 36.5
q27 125 99 196.5t186 71.5q37 0 63.5 -10t41.5 -25l5 25h238l-100 -474h-210l-5 31q-30 -19 -70 -30t-84 -11zM287 163q14 0 25 4t20 11l25 118q-14 15 -38 15q-48 0 -66 -87q-3 -16 -3 -27q0 -21 10.5 -27.5t26.5 -6.5z" />
    <glyph glyph-name="ae" unicode="&#xe6;" horiz-adv-x="889" 
d="M162 -10q-49 0 -89 12.5t-63.5 39.5t-23.5 70q0 8 1 17t3 19q17 80 76 121t164 41h106l1 5q3 11 -16.5 19.5t-62.5 8.5q-38 0 -84 -6.5t-88 -18.5l28 130q42 17 101 26.5t114 9.5q45 0 85 -12t63 -35q33 21 81 34t94 13q105 0 165 -45t60 -129q0 -27 -6 -57l-17 -81h-316
q11 -19 43.5 -29.5t87.5 -10.5q45 0 88.5 7.5t69.5 16.5l-28 -130q-41 -18 -94.5 -27t-125.5 -9q-51 0 -100 19t-75 53q-26 -22 -58.5 -38t-76.5 -25t-107 -9zM564 293h109l2 9q1 3 1 8q0 12 -10 21.5t-36 9.5q-30 0 -45.5 -14t-20.5 -34zM242 122q37 0 59 22l9 44h-44
q-44 0 -52 -33q-1 -2 -1 -4.5v-4.5q0 -24 29 -24z" />
    <glyph glyph-name="aeacute" unicode="&#x1fd;" horiz-adv-x="889" 
d="M389 522l144 226h186l-153 -226h-177zM162 -10q-49 0 -89 12.5t-63.5 39.5t-23.5 70q0 8 1 17t3 19q17 80 76 121t164 41h106l1 5q3 11 -16.5 19.5t-62.5 8.5q-38 0 -84 -6.5t-88 -18.5l28 130q42 17 101 26.5t114 9.5q45 0 85 -12t63 -35q33 21 81 34t94 13
q105 0 165 -45t60 -129q0 -27 -6 -57l-17 -81h-316q11 -19 43.5 -29.5t87.5 -10.5q45 0 88.5 7.5t69.5 16.5l-28 -130q-41 -18 -94.5 -27t-125.5 -9q-51 0 -100 19t-75 53q-26 -22 -58.5 -38t-76.5 -25t-107 -9zM564 293h109l2 9q1 3 1 8q0 12 -10 21.5t-36 9.5
q-30 0 -45.5 -14t-20.5 -34zM242 122q37 0 59 22l9 44h-44q-44 0 -52 -33q-1 -2 -1 -4.5v-4.5q0 -24 29 -24z" />
    <glyph glyph-name="b" unicode="b" horiz-adv-x="628" 
d="M329 -10q-40 0 -70 11t-54 30l-17 -31h-210l143 674h242l-44 -208q20 8 50 13t56 5q86 0 138.5 -38t52.5 -127q0 -34 -9 -78q-53 -251 -278 -251zM296 163q22 0 38 15.5t25 58.5q4 19 4 35q0 22 -9 30.5t-26 8.5q-24 0 -46 -15l-25 -118q8 -7 17 -11t22 -4z" />
    <glyph glyph-name="c" unicode="c" horiz-adv-x="520" 
d="M252 -10q-72 0 -128.5 20.5t-89.5 62t-33 105.5q0 14 2 28.5t5 30.5q27 127 116.5 187t230.5 60q56 0 101.5 -7.5t84.5 -27.5l-36 -168q-28 16 -61.5 23t-70.5 7q-52 0 -81 -16.5t-37 -57.5q-3 -15 -3 -26q0 -25 20.5 -36.5t70.5 -11.5q37 0 74 10.5t73 27.5l-37 -176
q-47 -19 -96 -27t-105 -8z" />
    <glyph glyph-name="cacute" unicode="&#x107;" horiz-adv-x="520" 
d="M257 522l144 226h186l-153 -226h-177zM252 -10q-72 0 -128.5 20.5t-89.5 62t-33 105.5q0 14 2 28.5t5 30.5q27 127 116.5 187t230.5 60q56 0 101.5 -7.5t84.5 -27.5l-36 -168q-28 16 -61.5 23t-70.5 7q-52 0 -81 -16.5t-37 -57.5q-3 -15 -3 -26q0 -25 20.5 -36.5
t70.5 -11.5q37 0 74 10.5t73 27.5l-37 -176q-47 -19 -96 -27t-105 -8z" />
    <glyph glyph-name="ccaron" unicode="&#x10d;" horiz-adv-x="519" 
d="M274 522l-129 216h165l51 -107l99 107h175l-221 -216h-140zM252 -10q-72 0 -128.5 20.5t-89.5 62t-33 105.5q0 14 2 28.5t5 30.5q27 127 116.5 187t230.5 60q56 0 101.5 -7.5t84.5 -27.5l-36 -168q-28 16 -61.5 23t-70.5 7q-52 0 -81 -16.5t-37 -57.5q-3 -15 -3 -26
q0 -25 20.5 -36.5t70.5 -11.5q37 0 74 10.5t73 27.5l-37 -176q-47 -19 -96 -27t-105 -8z" />
    <glyph glyph-name="ccedilla" unicode="&#xe7;" horiz-adv-x="520" 
d="M182 -240q-12 0 -30 1t-33.5 3t-22.5 4l17 77q26 -8 56 -8q68 0 74 35q4 16 -5 22t-26 6h-74l46 95q-81 12 -132 57.5t-51 125.5q0 14 1.5 28.5t5.5 30.5q27 127 116.5 187t230.5 60q56 0 101.5 -7.5t84.5 -27.5l-36 -168q-28 16 -61.5 23t-70.5 7q-52 0 -81 -16.5
t-37 -57.5q-3 -15 -3 -26q0 -25 20.5 -36.5t70.5 -11.5q37 0 74 10.5t73 27.5l-37 -176q-36 -15 -73 -23t-77 -10l-16 -29q44 0 66.5 -21t22.5 -53v-11t-2 -11q-10 -49 -59 -78t-133 -29z" />
    <glyph glyph-name="ccircumflex" unicode="&#x109;" horiz-adv-x="519" 
d="M85 522l220 216h141l129 -216h-161l-54 107l-95 -107h-180zM252 -10q-72 0 -128.5 20.5t-89.5 62t-33 105.5q0 14 2 28.5t5 30.5q27 127 116.5 187t230.5 60q56 0 101.5 -7.5t84.5 -27.5l-36 -168q-28 16 -61.5 23t-70.5 7q-52 0 -81 -16.5t-37 -57.5q-3 -15 -3 -26
q0 -25 20.5 -36.5t70.5 -11.5q37 0 74 10.5t73 27.5l-37 -176q-47 -19 -96 -27t-105 -8z" />
    <glyph glyph-name="cdotaccent" unicode="&#x10b;" horiz-adv-x="520" 
d="M260 552l29 141h156l-30 -141h-155zM252 -10q-72 0 -128.5 20.5t-89.5 62t-33 105.5q0 14 2 28.5t5 30.5q27 127 116.5 187t230.5 60q56 0 101.5 -7.5t84.5 -27.5l-36 -168q-28 16 -61.5 23t-70.5 7q-52 0 -81 -16.5t-37 -57.5q-3 -15 -3 -26q0 -25 20.5 -36.5
t70.5 -11.5q37 0 74 10.5t73 27.5l-37 -176q-47 -19 -96 -27t-105 -8z" />
    <glyph glyph-name="d" unicode="d" horiz-adv-x="629" 
d="M180 -10q-80 0 -130 42t-50 130q0 34 9 76q29 133 98.5 189.5t186.5 56.5q26 0 54.5 -5t45.5 -13l44 208h242l-143 -674h-210l-5 31q-30 -19 -64 -30t-78 -11zM287 163q14 0 24 4t21 11l25 118q-14 15 -38 15q-22 0 -38.5 -17t-25.5 -60q-4 -17 -4 -34q0 -22 10 -29.5
t26 -7.5z" />
    <glyph glyph-name="eth" unicode="&#xf0;" horiz-adv-x="620" 
d="M241 -10q-122 0 -183 43.5t-61 122.5q0 11 1 23.5t4 25.5q23 106 89 155.5t188 49.5q30 0 62 -7t48 -18l3 13q3 13 5 25t2 22q0 5 -0.5 9.5t-1.5 8.5l-99 -39l11 55l49 19q-20 7 -59 7q-40 0 -77 -8.5t-78 -25.5l32 152q45 17 95.5 24t101.5 7q70 0 118.5 -19.5
t77.5 -53.5l91 36l-12 -55l-52 -21q11 -22 16 -49t5 -56q0 -19 -1.5 -38.5t-6.5 -39.5l-21 -99q-19 -87 -60 -147t-110.5 -91t-176.5 -31zM273 146q33 0 52.5 15.5t27.5 53.5l7 32q-16 8 -31.5 13t-32.5 5q-37 0 -55 -15.5t-24 -44.5q-1 -4 -1.5 -8.5t-0.5 -9.5
q0 -41 58 -41z" />
    <glyph glyph-name="dcaron" unicode="&#x10f;" horiz-adv-x="866" 
d="M184 -10q-84 0 -133 44t-49 128q0 61 18 118.5t54 103.5t90 73t126 27q26 0 58 -5t49 -13l44 208h242l-143 -674h-210l-5 31q-30 -19 -64 -30t-77 -11zM683 425l90 249h179l-118 -249h-151zM290 163q14 0 24 4t21 11l26 118q-15 15 -39 15q-17 0 -33.5 -17t-26.5 -44
t-10 -57q0 -21 11 -25.5t27 -4.5z" />
    <glyph glyph-name="dcroat" unicode="&#x111;" horiz-adv-x="632" 
d="M180 -10q-80 0 -130 42t-50 130q0 34 9 76q29 133 98.5 189.5t186.5 56.5q26 0 54.5 -5t45.5 -13l8 40h-112l29 135h112l7 33h242l-7 -33h33l-29 -135h-33l-107 -506h-210l-5 31q-30 -19 -64 -30t-78 -11zM287 163q14 0 24 4t21 11l25 118q-14 15 -38 15q-22 0 -38.5 -17
t-25.5 -60q-4 -17 -4 -34q0 -22 10 -29.5t26 -7.5z" />
    <glyph glyph-name="uni1E0D" unicode="&#x1e0d;" horiz-adv-x="629" 
d="M180 -10q-80 0 -130 42t-50 130q0 34 9 76q29 133 98.5 189.5t186.5 56.5q26 0 54.5 -5t45.5 -13l44 208h242l-143 -674h-210l-5 31q-30 -19 -64 -30t-78 -11zM287 163q14 0 24 4t21 11l25 118q-14 15 -38 15q-22 0 -38.5 -17t-25.5 -60q-4 -17 -4 -34q0 -22 10 -29.5
t26 -7.5zM103 -213l30 141h156l-30 -141h-156z" />
    <glyph glyph-name="uni1E0F" unicode="&#x1e0f;" horiz-adv-x="629" 
d="M180 -10q-80 0 -130 42t-50 130q0 34 9 76q29 133 98.5 189.5t186.5 56.5q26 0 54.5 -5t45.5 -13l44 208h242l-143 -674h-210l-5 31q-30 -19 -64 -30t-78 -11zM287 163q14 0 24 4t21 11l25 118q-14 15 -38 15q-22 0 -38.5 -17t-25.5 -60q-4 -17 -4 -34q0 -22 10 -29.5
t26 -7.5zM93 -202l30 140h348l-30 -140h-348z" />
    <glyph glyph-name="e" unicode="e" horiz-adv-x="567" 
d="M251 -10q-68 0 -124.5 22t-90.5 65t-34 107q0 24 6 51q17 76 53.5 131.5t101.5 86.5t167 31q68 0 118.5 -23.5t78 -65t27.5 -96.5q0 -11 -1.5 -22.5t-3.5 -23.5l-17 -81h-316q11 -19 39 -29.5t92 -10.5q45 0 88.5 7.5t69.5 16.5l-28 -130q-82 -36 -226 -36zM242 293h109
l2 9q1 3 1 9q0 12 -10 21t-36 9q-30 0 -45.5 -13t-20.5 -35z" />
    <glyph glyph-name="eacute" unicode="&#xe9;" horiz-adv-x="567" 
d="M261 522l144 226h186l-153 -226h-177zM251 -10q-68 0 -124.5 22t-90.5 65t-34 107q0 24 6 51q17 76 53.5 131.5t101.5 86.5t167 31q68 0 118.5 -23.5t78 -65t27.5 -96.5q0 -11 -1.5 -22.5t-3.5 -23.5l-17 -81h-316q11 -19 39 -29.5t92 -10.5q45 0 88.5 7.5t69.5 16.5
l-28 -130q-82 -36 -226 -36zM242 293h109l2 9q1 3 1 9q0 12 -10 21t-36 9q-30 0 -45.5 -13t-20.5 -35z" />
    <glyph glyph-name="ebreve" unicode="&#x115;" horiz-adv-x="567" 
d="M345 522q-83 0 -131 40.5t-48 117.5q0 14 1.5 30t5.5 32h147q-2 -8 -3 -16.5t-1 -16.5q0 -23 11 -39t39 -16q38 0 58 27t27 61h162q-23 -107 -95 -163.5t-173 -56.5zM251 -10q-68 0 -124.5 22t-90.5 65t-34 107q0 24 6 51q17 76 53.5 131.5t101.5 86.5t167 31
q68 0 118.5 -23.5t78 -65t27.5 -96.5q0 -11 -1.5 -22.5t-3.5 -23.5l-17 -81h-316q11 -19 39 -29.5t92 -10.5q45 0 88.5 7.5t69.5 16.5l-28 -130q-82 -36 -226 -36zM242 293h109l2 9q1 3 1 9q0 12 -10 21t-36 9q-30 0 -45.5 -13t-20.5 -35z" />
    <glyph glyph-name="ecaron" unicode="&#x11b;" horiz-adv-x="567" 
d="M279 522l-129 216h165l51 -107l99 107h175l-221 -216h-140zM251 -10q-68 0 -124.5 22t-90.5 65t-34 107q0 24 6 51q17 76 53.5 131.5t101.5 86.5t167 31q68 0 118.5 -23.5t78 -65t27.5 -96.5q0 -11 -1.5 -22.5t-3.5 -23.5l-17 -81h-316q11 -19 39 -29.5t92 -10.5
q45 0 88.5 7.5t69.5 16.5l-28 -130q-82 -36 -226 -36zM242 293h109l2 9q1 3 1 9q0 12 -10 21t-36 9q-30 0 -45.5 -13t-20.5 -35z" />
    <glyph glyph-name="ecircumflex" unicode="&#xea;" horiz-adv-x="567" 
d="M98 522l220 216h141l129 -216h-161l-54 107l-95 -107h-180zM251 -10q-68 0 -124.5 22t-90.5 65t-34 107q0 24 6 51q17 76 53.5 131.5t101.5 86.5t167 31q68 0 118.5 -23.5t78 -65t27.5 -96.5q0 -11 -1.5 -22.5t-3.5 -23.5l-17 -81h-316q11 -19 39 -29.5t92 -10.5
q45 0 88.5 7.5t69.5 16.5l-28 -130q-82 -36 -226 -36zM242 293h109l2 9q1 3 1 9q0 12 -10 21t-36 9q-30 0 -45.5 -13t-20.5 -35z" />
    <glyph glyph-name="uni1EBF" unicode="&#x1ebf;" horiz-adv-x="567" 
d="M526 654l111 172h176l-120 -172h-167zM109 522l194 168h175l121 -168h-181l-40 76l-69 -76h-200zM251 -10q-68 0 -124.5 22t-90.5 65t-34 107q0 24 6 51q17 76 53.5 131.5t101.5 86.5t167 31q68 0 118.5 -23.5t78 -65t27.5 -96.5q0 -11 -1.5 -22.5t-3.5 -23.5l-17 -81
h-316q11 -19 39 -29.5t92 -10.5q45 0 88.5 7.5t69.5 16.5l-28 -130q-82 -36 -226 -36zM242 293h109l2 9q1 3 1 9q0 12 -10 21t-36 9q-30 0 -45.5 -13t-20.5 -35z" />
    <glyph glyph-name="uni1EC7" unicode="&#x1ec7;" horiz-adv-x="567" 
d="M90 522l220 216h141l129 -216h-161l-54 107l-95 -107h-180zM251 -10q-68 0 -124.5 22t-90.5 65t-34 107q0 24 6 51q17 76 53.5 131.5t101.5 86.5t167 31q68 0 118.5 -23.5t78 -65t27.5 -96.5q0 -11 -1.5 -22.5t-3.5 -23.5l-17 -81h-316q11 -19 39 -29.5t92 -10.5
q45 0 88.5 7.5t69.5 16.5l-28 -130q-82 -36 -226 -36zM242 293h109l2 9q1 3 1 9q0 12 -10 21t-36 9q-30 0 -45.5 -13t-20.5 -35zM102 -213l30 141h156l-30 -141h-156z" />
    <glyph glyph-name="uni1EC1" unicode="&#x1ec1;" horiz-adv-x="566" 
d="M68 654l-46 172h176l38 -172h-168zM106 522l194 168h175l121 -168h-185l-37 76l-72 -76h-196zM250 -10q-68 0 -124.5 22t-90.5 65t-34 107q0 24 6 51q17 76 53.5 131.5t101.5 86.5t167 31q68 0 118.5 -23.5t78 -65t27.5 -96.5q0 -11 -1.5 -22.5t-3.5 -23.5l-17 -81h-316
q11 -19 39 -29.5t92 -10.5q45 0 88.5 7.5t69.5 16.5l-28 -130q-82 -36 -226 -36zM241 293h109l2 9q1 3 1 9q0 12 -10 21t-36 9q-30 0 -45.5 -13t-20.5 -35z" />
    <glyph glyph-name="uni1EC3" unicode="&#x1ec3;" horiz-adv-x="567" 
d="M523 631l17 80q42 2 55 9t13 17q0 12 -31 12q-12 0 -25 -3t-24 -7l20 92q20 5 50 8.5t67 3.5q56 0 84 -22t28 -54q0 -4 -0.5 -8t-1.5 -8q-7 -34 -29 -58t-60 -31l-7 -31h-156zM100 522l194 168h175l121 -168h-181l-40 76l-69 -76h-200zM251 -10q-68 0 -124.5 22t-90.5 65
t-34 107q0 24 6 51q17 76 53.5 131.5t101.5 86.5t167 31q68 0 118.5 -23.5t78 -65t27.5 -96.5q0 -11 -1.5 -22.5t-3.5 -23.5l-17 -81h-316q11 -19 39 -29.5t92 -10.5q45 0 88.5 7.5t69.5 16.5l-28 -130q-82 -36 -226 -36zM242 293h109l2 9q1 3 1 9q0 12 -10 21t-36 9
q-30 0 -45.5 -13t-20.5 -35z" />
    <glyph glyph-name="uni1EC5" unicode="&#x1ec5;" horiz-adv-x="567" 
d="M492 705q-34 0 -64.5 10.5t-59.5 21t-59 10.5q-33 0 -60.5 -11t-47.5 -28l28 135q17 13 45.5 23t58.5 10q35 0 64.5 -10.5t58 -21t60.5 -10.5q33 0 60 11.5t42 27.5l-29 -135q-12 -13 -39.5 -23t-57.5 -10zM100 522l194 168h175l121 -168h-181l-40 76l-69 -76h-200z
M251 -10q-68 0 -124.5 22t-90.5 65t-34 107q0 24 6 51q17 76 53.5 131.5t101.5 86.5t167 31q68 0 118.5 -23.5t78 -65t27.5 -96.5q0 -11 -1.5 -22.5t-3.5 -23.5l-17 -81h-316q11 -19 39 -29.5t92 -10.5q45 0 88.5 7.5t69.5 16.5l-28 -130q-82 -36 -226 -36zM242 293h109l2 9
q1 3 1 9q0 12 -10 21t-36 9q-30 0 -45.5 -13t-20.5 -35z" />
    <glyph glyph-name="edieresis" unicode="&#xeb;" horiz-adv-x="567" 
d="M154 552l30 141h155l-30 -141h-155zM388 552l30 141h156l-30 -141h-156zM251 -10q-68 0 -124.5 22t-90.5 65t-34 107q0 24 6 51q17 76 53.5 131.5t101.5 86.5t167 31q68 0 118.5 -23.5t78 -65t27.5 -96.5q0 -11 -1.5 -22.5t-3.5 -23.5l-17 -81h-316q11 -19 39 -29.5
t92 -10.5q45 0 88.5 7.5t69.5 16.5l-28 -130q-82 -36 -226 -36zM242 293h109l2 9q1 3 1 9q0 12 -10 21t-36 9q-30 0 -45.5 -13t-20.5 -35z" />
    <glyph glyph-name="edotaccent" unicode="&#x117;" horiz-adv-x="567" 
d="M273 552l29 141h156l-30 -141h-155zM251 -10q-68 0 -124.5 22t-90.5 65t-34 107q0 24 6 51q17 76 53.5 131.5t101.5 86.5t167 31q68 0 118.5 -23.5t78 -65t27.5 -96.5q0 -11 -1.5 -22.5t-3.5 -23.5l-17 -81h-316q11 -19 39 -29.5t92 -10.5q45 0 88.5 7.5t69.5 16.5
l-28 -130q-82 -36 -226 -36zM242 293h109l2 9q1 3 1 9q0 12 -10 21t-36 9q-30 0 -45.5 -13t-20.5 -35z" />
    <glyph glyph-name="uni1EB9" unicode="&#x1eb9;" horiz-adv-x="567" 
d="M251 -10q-68 0 -124.5 22t-90.5 65t-34 107q0 24 6 51q17 76 53.5 131.5t101.5 86.5t167 31q68 0 118.5 -23.5t78 -65t27.5 -96.5q0 -11 -1.5 -22.5t-3.5 -23.5l-17 -81h-316q11 -19 39 -29.5t92 -10.5q45 0 88.5 7.5t69.5 16.5l-28 -130q-82 -36 -226 -36zM242 293h109
l2 9q1 3 1 9q0 12 -10 21t-36 9q-30 0 -45.5 -13t-20.5 -35zM120 -213l30 141h156l-30 -141h-156z" />
    <glyph glyph-name="egrave" unicode="&#xe8;" horiz-adv-x="567" 
d="M255 522l-57 226h186l48 -226h-177zM251 -10q-68 0 -124.5 22t-90.5 65t-34 107q0 24 6 51q17 76 53.5 131.5t101.5 86.5t167 31q68 0 118.5 -23.5t78 -65t27.5 -96.5q0 -11 -1.5 -22.5t-3.5 -23.5l-17 -81h-316q11 -19 39 -29.5t92 -10.5q45 0 88.5 7.5t69.5 16.5
l-28 -130q-82 -36 -226 -36zM242 293h109l2 9q1 3 1 9q0 12 -10 21t-36 9q-30 0 -45.5 -13t-20.5 -35z" />
    <glyph glyph-name="uni1EBB" unicode="&#x1ebb;" horiz-adv-x="567" 
d="M257 522l17 81q50 3 70 13.5t23 25.5q7 28 -44 28q-30 0 -58 -10l20 94q26 7 58 11t75 4q65 0 98 -24.5t33 -62.5q0 -5 -0.5 -10t-1.5 -10q-10 -45 -34 -67.5t-70 -36.5l-8 -36h-178zM251 -10q-68 0 -124.5 22t-90.5 65t-34 107q0 24 6 51q17 76 53.5 131.5t101.5 86.5
t167 31q68 0 118.5 -23.5t78 -65t27.5 -96.5q0 -11 -1.5 -22.5t-3.5 -23.5l-17 -81h-316q11 -19 39 -29.5t92 -10.5q45 0 88.5 7.5t69.5 16.5l-28 -130q-82 -36 -226 -36zM242 293h109l2 9q1 3 1 9q0 12 -10 21t-36 9q-30 0 -45.5 -13t-20.5 -35z" />
    <glyph glyph-name="emacron" unicode="&#x113;" horiz-adv-x="567" 
d="M173 562l30 140h348l-30 -140h-348zM251 -10q-68 0 -124.5 22t-90.5 65t-34 107q0 24 6 51q17 76 53.5 131.5t101.5 86.5t167 31q68 0 118.5 -23.5t78 -65t27.5 -96.5q0 -11 -1.5 -22.5t-3.5 -23.5l-17 -81h-316q11 -19 39 -29.5t92 -10.5q45 0 88.5 7.5t69.5 16.5
l-28 -130q-82 -36 -226 -36zM242 293h109l2 9q1 3 1 9q0 12 -10 21t-36 9q-30 0 -45.5 -13t-20.5 -35z" />
    <glyph glyph-name="eogonek" unicode="&#x119;" horiz-adv-x="567" 
d="M244 -220q-60 0 -94.5 19.5t-34.5 60.5q0 44 27 78t62 55q-57 7 -103 31t-72.5 64t-26.5 96q0 24 6 51q17 76 53.5 131.5t101.5 86.5t167 31q68 0 118.5 -23.5t78 -65t27.5 -96.5q0 -11 -1.5 -22.5t-3.5 -23.5l-17 -81h-316q11 -19 39 -29.5t92 -10.5q45 0 88.5 7.5
t69.5 16.5l-28 -130q-50 -22 -123 -30q-22 -16 -37.5 -34t-20.5 -38q-1 -3 -1 -8q0 -13 11 -18t30 -5q13 0 28 3t25 8l-22 -106q-19 -6 -52 -12t-71 -6zM242 293h109l2 9q1 3 1 9q0 12 -10 21t-36 9q-30 0 -45.5 -13t-20.5 -35z" />
    <glyph glyph-name="uni1EBD" unicode="&#x1ebd;" horiz-adv-x="567" 
d="M457 527q-36 0 -68.5 11t-62.5 22t-61 11q-34 0 -63 -11.5t-51 -29.5l30 141q18 14 48.5 24.5t61.5 10.5q37 0 67 -11l60 -22t64 -11q35 0 63 12.5t44 28.5l-30 -141q-13 -13 -41.5 -24t-60.5 -11zM251 -10q-68 0 -124.5 22t-90.5 65t-34 107q0 24 6 51q17 76 53.5 131.5
t101.5 86.5t167 31q68 0 118.5 -23.5t78 -65t27.5 -96.5q0 -11 -1.5 -22.5t-3.5 -23.5l-17 -81h-316q11 -19 39 -29.5t92 -10.5q45 0 88.5 7.5t69.5 16.5l-28 -130q-82 -36 -226 -36zM242 293h109l2 9q1 3 1 9q0 12 -10 21t-36 9q-30 0 -45.5 -13t-20.5 -35z" />
    <glyph glyph-name="uni0259" unicode="&#x259;" horiz-adv-x="567" 
d="M216 -10q-64 0 -113 22t-76.5 62.5t-27.5 95.5q0 24 6 51l18 81h316q-6 14 -16.5 22.5t-35 13t-74.5 4.5q-45 0 -91 -7.5t-72 -16.5l28 130q41 17 104.5 26.5t130.5 9.5q64 0 118.5 -19t88 -60.5t33.5 -107.5q0 -13 -2 -27.5t-5 -30.5q-15 -72 -54 -128.5t-106.5 -88.5
t-169.5 -32zM247 133q30 0 46 14t20 34h-109l-2 -9q-1 -3 -1 -8q0 -12 10 -21.5t36 -9.5z" />
    <glyph glyph-name="f" unicode="f" horiz-adv-x="426" 
d="M10 0l63 300h-56l37 174h56l3 15q19 95 75.5 148t169.5 53q84 0 141 -27l-31 -150q-27 10 -58 10q-48 0 -56 -40l-2 -9h103l-47 -174h-93l-63 -300h-242z" />
    <glyph glyph-name="g" unicode="g" horiz-adv-x="628" 
d="M140 -176q-16 0 -45 1.5t-57 4t-41 4.5l34 157q19 -5 51 -9t54 -4q77 0 117.5 8.5t44.5 28.5l2 9q-21 -7 -51 -12.5t-56 -5.5q-92 0 -143 37t-51 116q0 15 2 32t6 36q29 127 103.5 192t177.5 65q44 0 72 -11t50 -30l17 31h210l-85 -402q-16 -78 -60.5 -133.5t-129 -85
t-222.5 -29.5zM287 163q25 0 45 15l25 118q-7 8 -14 11.5t-21 3.5q-22 0 -40 -18.5t-27 -61.5q-2 -10 -3.5 -18.5t-1.5 -15.5q0 -21 10.5 -27.5t26.5 -6.5z" />
    <glyph glyph-name="gbreve" unicode="&#x11f;" horiz-adv-x="628" 
d="M355 522q-83 0 -131 40.5t-48 117.5q0 14 1.5 30t5.5 32h147q-2 -8 -3 -16.5t-1 -16.5q0 -23 11 -39t39 -16q38 0 58 27t27 61h162q-23 -107 -95 -163.5t-173 -56.5zM140 -176q-16 0 -45 1.5t-57 4t-41 4.5l34 157q19 -5 51 -9t54 -4q77 0 117.5 8.5t44.5 28.5l2 9
q-21 -7 -51 -12.5t-56 -5.5q-92 0 -143 37t-51 116q0 15 2 32t6 36q29 127 103.5 192t177.5 65q44 0 72 -11t50 -30l17 31h210l-85 -402q-16 -78 -60.5 -133.5t-129 -85t-222.5 -29.5zM287 163q25 0 45 15l25 118q-7 8 -14 11.5t-21 3.5q-22 0 -40 -18.5t-27 -61.5
q-2 -10 -3.5 -18.5t-1.5 -15.5q0 -21 10.5 -27.5t26.5 -6.5z" />
    <glyph glyph-name="gcaron" unicode="&#x1e7;" horiz-adv-x="628" 
d="M280 522l-129 216h165l51 -107l99 107h175l-221 -216h-140zM140 -176q-16 0 -45 1.5t-57 4t-41 4.5l34 157q19 -5 51 -9t54 -4q77 0 117.5 8.5t44.5 28.5l2 9q-21 -7 -51 -12.5t-56 -5.5q-92 0 -143 37t-51 116q0 15 2 32t6 36q29 127 103.5 192t177.5 65q44 0 72 -11
t50 -30l17 31h210l-85 -402q-16 -78 -60.5 -133.5t-129 -85t-222.5 -29.5zM287 163q25 0 45 15l25 118q-7 8 -14 11.5t-21 3.5q-22 0 -40 -18.5t-27 -61.5q-2 -10 -3.5 -18.5t-1.5 -15.5q0 -21 10.5 -27.5t26.5 -6.5z" />
    <glyph glyph-name="gcircumflex" unicode="&#x11d;" horiz-adv-x="628" 
d="M111 522l220 216h141l129 -216h-161l-54 107l-95 -107h-180zM140 -176q-16 0 -45 1.5t-57 4t-41 4.5l34 157q19 -5 51 -9t54 -4q77 0 117.5 8.5t44.5 28.5l2 9q-21 -7 -51 -12.5t-56 -5.5q-92 0 -143 37t-51 116q0 15 2 32t6 36q29 127 103.5 192t177.5 65q44 0 72 -11
t50 -30l17 31h210l-85 -402q-16 -78 -60.5 -133.5t-129 -85t-222.5 -29.5zM287 163q25 0 45 15l25 118q-7 8 -14 11.5t-21 3.5q-22 0 -40 -18.5t-27 -61.5q-2 -10 -3.5 -18.5t-1.5 -15.5q0 -21 10.5 -27.5t26.5 -6.5z" />
    <glyph glyph-name="uni0123" unicode="&#x123;" horiz-adv-x="628" 
d="M251 522l118 249h150l-89 -249h-179zM140 -176q-16 0 -45 1.5t-57 4t-41 4.5l34 157q19 -5 51 -9t54 -4q77 0 117.5 8.5t44.5 28.5l2 9q-21 -7 -51 -12.5t-56 -5.5q-92 0 -143 37t-51 116q0 15 2 32t6 36q29 127 103.5 192t177.5 65q44 0 72 -11t50 -30l17 31h210
l-85 -402q-16 -78 -60.5 -133.5t-129 -85t-222.5 -29.5zM287 163q25 0 45 15l25 118q-7 8 -14 11.5t-21 3.5q-22 0 -40 -18.5t-27 -61.5q-2 -10 -3.5 -18.5t-1.5 -15.5q0 -21 10.5 -27.5t26.5 -6.5z" />
    <glyph glyph-name="gdotaccent" unicode="&#x121;" horiz-adv-x="628" 
d="M270 532l29 141h156l-30 -141h-155zM140 -176q-16 0 -45 1.5t-57 4t-41 4.5l34 157q19 -5 51 -9t54 -4q77 0 117.5 8.5t44.5 28.5l2 9q-21 -7 -51 -12.5t-56 -5.5q-92 0 -143 37t-51 116q0 15 2 32t6 36q29 127 103.5 192t177.5 65q44 0 72 -11t50 -30l17 31h210
l-85 -402q-16 -78 -60.5 -133.5t-129 -85t-222.5 -29.5zM287 163q25 0 45 15l25 118q-7 8 -14 11.5t-21 3.5q-22 0 -40 -18.5t-27 -61.5q-2 -10 -3.5 -18.5t-1.5 -15.5q0 -21 10.5 -27.5t26.5 -6.5z" />
    <glyph glyph-name="uni1E21" unicode="&#x1e21;" horiz-adv-x="628" 
d="M170 552l30 140h348l-30 -140h-348zM140 -176q-16 0 -45 1.5t-57 4t-41 4.5l34 157q19 -5 51 -9t54 -4q77 0 117.5 8.5t44.5 28.5l2 9q-21 -7 -51 -12.5t-56 -5.5q-92 0 -143 37t-51 116q0 15 2 32t6 36q29 127 103.5 192t177.5 65q44 0 72 -11t50 -30l17 31h210
l-85 -402q-16 -78 -60.5 -133.5t-129 -85t-222.5 -29.5zM287 163q25 0 45 15l25 118q-7 8 -14 11.5t-21 3.5q-22 0 -40 -18.5t-27 -61.5q-2 -10 -3.5 -18.5t-1.5 -15.5q0 -21 10.5 -27.5t26.5 -6.5z" />
    <glyph glyph-name="h" unicode="h" horiz-adv-x="626" 
d="M-22 0l143 674h242l-47 -218q23 11 58 19.5t72 8.5q80 0 120.5 -35t40.5 -101q0 -26 -6 -56l-62 -292h-242l57 272q1 4 1 7v5q0 22 -26 22q-10 0 -25 -6t-24 -14l-60 -286h-242z" />
    <glyph glyph-name="hbar" unicode="&#x127;" horiz-adv-x="637" 
d="M-11 0l110 520h-35l21 98h35l12 56h242l-12 -56h87l-21 -98h-87l-14 -64q23 11 58 19.5t72 8.5q80 0 120.5 -35t40.5 -101q0 -26 -6 -56l-62 -292h-242l57 272q1 4 1 7v5q0 22 -26 22q-10 0 -25 -6t-24 -14l-60 -286h-242z" />
    <glyph glyph-name="uni1E2B" unicode="&#x1e2b;" horiz-adv-x="626" 
d="M-22 0l143 674h242l-47 -218q23 11 58 19.5t72 8.5q80 0 120.5 -35t40.5 -101q0 -26 -6 -56l-62 -292h-242l57 272q1 4 1 7v5q0 22 -26 22q-10 0 -25 -6t-24 -14l-60 -286h-242zM209 -260q-84 0 -132 40.5t-48 118.5q0 14 1.5 29.5t5.5 31.5h148q-2 -8 -3 -16.5t-1 -16.5
q0 -23 11 -39t39 -16q38 0 59 25.5t25 62.5h162q-22 -107 -88.5 -163.5t-178.5 -56.5z" />
    <glyph glyph-name="hcircumflex" unicode="&#x125;" horiz-adv-x="626" 
d="M137 712l220 216h141l129 -216h-161l-54 107l-95 -107h-180zM-22 0l143 674h242l-47 -218q23 11 58 19.5t72 8.5q80 0 120.5 -35t40.5 -101q0 -26 -6 -56l-62 -292h-242l57 272q1 4 1 7v5q0 22 -26 22q-10 0 -25 -6t-24 -14l-60 -286h-242z" />
    <glyph glyph-name="uni1E25" unicode="&#x1e25;" horiz-adv-x="626" 
d="M-22 0l143 674h242l-47 -218q23 11 58 19.5t72 8.5q80 0 120.5 -35t40.5 -101q0 -26 -6 -56l-62 -292h-242l57 272q1 4 1 7v5q0 22 -26 22q-10 0 -25 -6t-24 -14l-60 -286h-242zM130 -213l30 141h156l-30 -141h-156z" />
    <glyph glyph-name="i" unicode="i" horiz-adv-x="364" 
d="M122 513l35 167h259l-35 -167h-259zM30 0l63 300h-66l57 174h288l-100 -474h-242z" />
    <glyph glyph-name="dotlessi" unicode="&#x131;" horiz-adv-x="379" 
d="M45 0l63 300h-66l57 174h288l-100 -474h-242z" />
    <glyph glyph-name="iacute" unicode="&#xed;" horiz-adv-x="379" 
d="M172 522l144 226h186l-153 -226h-177zM45 0l63 300h-66l57 174h288l-100 -474h-242z" />
    <glyph glyph-name="ibreve" unicode="&#x12d;" horiz-adv-x="378" 
d="M254 522q-84 0 -132 40.5t-48 117.5q0 14 1.5 30t5.5 32h148q-2 -8 -3 -16.5t-1 -16.5q0 -23 11 -39t39 -16q38 0 58 27t27 61h162q-23 -107 -95 -163.5t-173 -56.5zM45 0l63 300h-66l57 174h288l-100 -474h-242z" />
    <glyph glyph-name="uni01D0" unicode="&#x1d0;" horiz-adv-x="377" 
d="M196 522l-129 216h165l51 -107l99 107h175l-221 -216h-140zM44 0l63 300h-66l57 174h288l-100 -474h-242z" />
    <glyph glyph-name="icircumflex" unicode="&#xee;" horiz-adv-x="377" 
d="M13 522l220 216h141l129 -216h-161l-54 107l-95 -107h-180zM44 0l63 300h-66l57 174h288l-100 -474h-242z" />
    <glyph glyph-name="idieresis" unicode="&#xef;" horiz-adv-x="377" 
d="M62 552l30 141h155l-30 -141h-155zM296 552l30 141h156l-30 -141h-156zM44 0l63 300h-66l57 174h288l-100 -474h-242z" />
    <glyph glyph-name="uni1ECB" unicode="&#x1ecb;" horiz-adv-x="379" 
d="M137 513l35 167h259l-35 -167h-259zM45 0l63 300h-66l57 174h288l-100 -474h-242zM44 -213l30 141h156l-30 -141h-156z" />
    <glyph glyph-name="igrave" unicode="&#xec;" horiz-adv-x="378" 
d="M182 522l-57 226h186l48 -226h-177zM44 0l63 300h-66l57 174h288l-100 -474h-242z" />
    <glyph glyph-name="uni1EC9" unicode="&#x1ec9;" horiz-adv-x="379" 
d="M170 522l17 81q50 3 70 13.5t23 25.5q7 28 -44 28q-30 0 -58 -10l20 94q26 7 58 11t75 4q65 0 98 -24.5t33 -62.5q0 -5 -0.5 -10t-1.5 -10q-10 -45 -34 -67.5t-70 -36.5l-8 -36h-178zM45 0l63 300h-66l57 174h288l-100 -474h-242z" />
    <glyph glyph-name="ij" unicode="&#x133;" horiz-adv-x="715" 
d="M137 513l35 167h259l-35 -167h-259zM473 513l35 167h259l-35 -167h-259zM371 -234q-45 0 -78 7t-62 20l31 150q27 -10 58 -10q45 0 55 40l69 327h-66l57 174h288l-110 -517q-11 -55 -38.5 -98t-76.5 -68t-127 -25zM45 0l63 300h-66l57 174h288l-100 -474h-242z" />
    <glyph glyph-name="imacron" unicode="&#x12b;" horiz-adv-x="378" 
d="M89 590l30 140h349l-30 -140h-349zM44 0l63 300h-66l57 174h288l-100 -474h-242z" />
    <glyph glyph-name="iogonek" unicode="&#x12f;" horiz-adv-x="379" 
d="M137 513l35 167h259l-35 -167h-259zM124 -220q-60 0 -94.5 19.5t-34.5 60.5q0 48 31.5 84.5t70.5 55.5h-52l63 300h-66l57 174h288l-100 -474h-46q-25 -16 -42.5 -35t-22.5 -41q-1 -3 -1 -8q0 -13 11 -18t30 -5q13 0 28 3t25 8l-22 -106q-19 -6 -52 -12t-71 -6z" />
    <glyph glyph-name="itilde" unicode="&#x129;" horiz-adv-x="379" 
d="M360 555q-36 0 -68.5 11t-62.5 22t-61 11q-34 0 -63 -11.5t-51 -29.5l30 141q18 14 48.5 24.5t61.5 10.5q37 0 67 -11l60 -22t64 -11q35 0 63 12.5t44 28.5l-30 -141q-13 -13 -41.5 -24t-60.5 -11zM45 0l63 300h-66l57 174h288l-100 -474h-242z" />
    <glyph glyph-name="j" unicode="j" horiz-adv-x="384" 
d="M142 513l35 167h259l-35 -167h-259zM40 -234q-45 0 -78 7t-62 20l31 150q27 -10 58 -10q45 0 55 40l69 327h-66l57 174h288l-110 -517q-11 -55 -38.5 -98t-76.5 -68t-127 -25z" />
    <glyph glyph-name="uni0237" unicode="&#x237;" horiz-adv-x="377" 
d="M35 -234q-46 0 -79 7t-62 20l31 150q27 -10 58 -10q46 0 56 40l68 327h-65l56 174h288l-110 -517q-11 -55 -40.5 -98t-79 -68t-121.5 -25z" />
    <glyph glyph-name="jcircumflex" unicode="&#x135;" horiz-adv-x="377" 
d="M7 522l220 216h141l129 -216h-161l-54 107l-95 -107h-180zM36 -234q-46 0 -79 7t-62 20l31 150q27 -10 58 -10q46 0 56 40l68 327h-65l56 174h288l-110 -517q-11 -55 -40.5 -98t-79 -68t-121.5 -25z" />
    <glyph glyph-name="k" unicode="k" horiz-adv-x="656" 
d="M-22 0l143 674h242l-63 -295l107 95h272l-230 -205l140 -269h-256l-61 143l-27 -25l-25 -118h-242z" />
    <glyph glyph-name="uni0137" unicode="&#x137;" horiz-adv-x="661" 
d="M-22 0l143 674h242l-63 -295l107 95h272l-230 -205l140 -269h-256l-61 143l-27 -25l-25 -118h-242zM74 -286l89 249h179l-118 -249h-150z" />
    <glyph glyph-name="kgreenlandic" unicode="&#x138;" horiz-adv-x="662" 
d="M-21 0l100 474h242l-22 -105l109 105h272l-232 -215l142 -259h-256l-63 133l-28 -25l-22 -108h-242z" />
    <glyph glyph-name="l" unicode="l" horiz-adv-x="367" 
d="M165 -10q-159 0 -159 119q0 25 6 53l109 512h242l-102 -480q-1 -4 -1.5 -8t-0.5 -7q0 -22 29 -22q28 0 52 9l-32 -150q-34 -13 -63.5 -19.5t-79.5 -6.5z" />
    <glyph glyph-name="lacute" unicode="&#x13a;" horiz-adv-x="367" 
d="M173 756l144 226h186l-153 -226h-177zM165 -10q-159 0 -159 119q0 25 6 53l109 512h242l-102 -480q-1 -4 -1.5 -8t-0.5 -7q0 -22 29 -22q28 0 52 9l-32 -150q-34 -13 -63.5 -19.5t-79.5 -6.5z" />
    <glyph glyph-name="lcaron" unicode="&#x13e;" horiz-adv-x="547" 
d="M165 -10q-105 0 -138.5 42t-14.5 130l109 512h242l-102 -480q-4 -19 1.5 -28t25.5 -9q12 0 26 2.5t26 6.5l-32 -150q-34 -13 -63.5 -19.5t-79.5 -6.5zM364 425l90 249h179l-118 -249h-151z" />
    <glyph glyph-name="uni013C" unicode="&#x13c;" horiz-adv-x="367" 
d="M165 -10q-159 0 -159 119q0 25 6 53l109 512h242l-102 -480q-1 -4 -1.5 -8t-0.5 -7q0 -22 29 -22q28 0 52 9l-32 -150q-34 -13 -63.5 -19.5t-79.5 -6.5zM-22 -286l89 249h179l-118 -249h-150z" />
    <glyph glyph-name="ldot" unicode="&#x140;" horiz-adv-x="472" 
d="M165 -10q-159 0 -159 119q0 25 6 53l109 512h242l-102 -480q-1 -4 -1.5 -8t-0.5 -7q0 -22 29 -22q28 0 52 9l-32 -150q-34 -13 -63.5 -19.5t-79.5 -6.5zM324 310l30 141h156l-30 -141h-156z" />
    <glyph glyph-name="uni1E37" unicode="&#x1e37;" horiz-adv-x="367" 
d="M165 -10q-159 0 -159 119q0 25 6 53l109 512h242l-102 -480q-1 -4 -1.5 -8t-0.5 -7q0 -22 29 -22q28 0 52 9l-32 -150q-34 -13 -63.5 -19.5t-79.5 -6.5zM18 -213l30 141h156l-30 -141h-156z" />
    <glyph glyph-name="uni1E39" unicode="&#x1e39;" horiz-adv-x="367" 
d="M81 730l30 140h348l-30 -140h-348zM165 -10q-159 0 -159 119q0 25 6 53l109 512h242l-102 -480q-1 -4 -1.5 -8t-0.5 -7q0 -22 29 -22q28 0 52 9l-32 -150q-34 -13 -63.5 -19.5t-79.5 -6.5zM18 -213l30 141h156l-30 -141h-156z" />
    <glyph glyph-name="uni1E3B" unicode="&#x1e3b;" horiz-adv-x="367" 
d="M166 -10q-159 0 -159 119q0 25 6 53l109 512h242l-102 -480q-1 -4 -1.5 -8t-0.5 -7q0 -22 29 -22q28 0 52 9l-32 -150q-34 -13 -63.5 -19.5t-79.5 -6.5zM-81 -214l30 140h348l-30 -140h-348z" />
    <glyph glyph-name="lslash" unicode="&#x142;" horiz-adv-x="367" 
d="M165 -10q-159 0 -159 119q0 25 6 53l13 64l-69 -28l36 169l69 28l60 279h242l-37 -173l72 29l-36 -169l-72 -29l-29 -138q-1 -4 -1.5 -8t-0.5 -7q0 -22 29 -22q28 0 52 9l-32 -150q-34 -13 -63.5 -19.5t-79.5 -6.5z" />
    <glyph glyph-name="m" unicode="m" horiz-adv-x="870" 
d="M-21 0l100 474h224l-1 -29q32 16 70 27.5t84 11.5q74 0 98 -44q37 20 77.5 32t92.5 12q64 0 96.5 -31.5t32.5 -90.5q0 -25 -6 -57l-64 -305h-237l58 276q1 4 1.5 7.5t0.5 5.5q0 17 -23 17q-17 0 -31 -13l-62 -293h-223l59 282q1 4 1 10q0 14 -17 14q-20 0 -38 -18
l-61 -288h-232z" />
    <glyph glyph-name="uni1E43" unicode="&#x1e43;" horiz-adv-x="870" 
d="M-21 0l100 474h224l-1 -29q32 16 70 27.5t84 11.5q74 0 98 -44q37 20 77.5 32t92.5 12q64 0 96.5 -31.5t32.5 -90.5q0 -25 -6 -57l-64 -305h-237l58 276q1 4 1.5 7.5t0.5 5.5q0 17 -23 17q-17 0 -31 -13l-62 -293h-223l59 282q1 4 1 10q0 14 -17 14q-20 0 -38 -18
l-61 -288h-232zM267 -213l30 141h156l-30 -141h-156z" />
    <glyph glyph-name="n" unicode="n" horiz-adv-x="627" 
d="M-21 0l100 474h227v-27q29 14 75.5 25.5t98.5 11.5q63 0 97 -29.5t34 -90.5q0 -13 -1.5 -27.5t-5.5 -31.5l-64 -305h-242l58 274q1 4 1 10q0 22 -27 22q-10 0 -25 -6t-24 -14l-60 -286h-242z" />
    <glyph glyph-name="nacute" unicode="&#x144;" horiz-adv-x="627" 
d="M238 522l144 226h186l-153 -226h-177zM-21 0l100 474h227v-27q29 14 75.5 25.5t98.5 11.5q63 0 97 -29.5t34 -90.5q0 -13 -1.5 -27.5t-5.5 -31.5l-64 -305h-242l58 274q1 4 1 10q0 22 -27 22q-10 0 -25 -6t-24 -14l-60 -286h-242z" />
    <glyph glyph-name="napostrophe" unicode="&#x149;" horiz-adv-x="630" 
d="M-138 391l89 249h179l-118 -249h-150zM-18 0l100 474h227v-27q29 14 75.5 25.5t98.5 11.5q63 0 97 -29.5t34 -90.5q0 -13 -1.5 -27.5t-5.5 -31.5l-64 -305h-242l58 274q1 4 1 10q0 22 -27 22q-10 0 -25 -6t-24 -14l-60 -286h-242z" />
    <glyph glyph-name="ncaron" unicode="&#x148;" horiz-adv-x="627" 
d="M276 522l-129 216h165l51 -107l99 107h175l-221 -216h-140zM-21 0l100 474h227v-27q29 14 75.5 25.5t98.5 11.5q63 0 97 -29.5t34 -90.5q0 -13 -1.5 -27.5t-5.5 -31.5l-64 -305h-242l58 274q1 4 1 10q0 22 -27 22q-10 0 -25 -6t-24 -14l-60 -286h-242z" />
    <glyph glyph-name="uni0146" unicode="&#x146;" horiz-adv-x="627" 
d="M-21 0l100 474h227v-27q29 14 75.5 25.5t98.5 11.5q63 0 97 -29.5t34 -90.5q0 -13 -1.5 -27.5t-5.5 -31.5l-64 -305h-242l58 274q1 4 1 10q0 22 -27 22q-10 0 -25 -6t-24 -14l-60 -286h-242zM85 -286l89 249h179l-118 -249h-150z" />
    <glyph glyph-name="uni1E45" unicode="&#x1e45;" horiz-adv-x="627" 
d="M289 552l29 141h156l-30 -141h-155zM-21 0l100 474h227v-27q29 14 75.5 25.5t98.5 11.5q63 0 97 -29.5t34 -90.5q0 -13 -1.5 -27.5t-5.5 -31.5l-64 -305h-242l58 274q1 4 1 10q0 22 -27 22q-10 0 -25 -6t-24 -14l-60 -286h-242z" />
    <glyph glyph-name="uni1E47" unicode="&#x1e47;" horiz-adv-x="627" 
d="M-21 0l100 474h227v-27q29 14 75.5 25.5t98.5 11.5q63 0 97 -29.5t34 -90.5q0 -13 -1.5 -27.5t-5.5 -31.5l-64 -305h-242l58 274q1 4 1 10q0 22 -27 22q-10 0 -25 -6t-24 -14l-60 -286h-242zM135 -213l30 141h156l-30 -141h-156z" />
    <glyph glyph-name="eng" unicode="&#x14b;" horiz-adv-x="626" 
d="M288 -234q-46 0 -79 7t-62 20l31 150q27 -10 58 -10q46 0 56 40l64 301q1 4 1 10q0 22 -27 22q-10 0 -25 -6t-24 -14l-60 -286h-242l100 474h227v-27q29 14 75.5 25.5t98.5 11.5q63 0 96 -36t33 -94q0 -11 -1 -23.5t-4 -25.5l-74 -348q-11 -55 -38.5 -98t-77 -68
t-126.5 -25z" />
    <glyph glyph-name="uni1E49" unicode="&#x1e49;" horiz-adv-x="627" 
d="M-21 0l100 474h227v-27q29 14 75.5 25.5t98.5 11.5q63 0 97 -29.5t34 -90.5q0 -13 -1.5 -27.5t-5.5 -31.5l-64 -305h-242l58 274q1 4 1 10q0 22 -27 22q-10 0 -25 -6t-24 -14l-60 -286h-242zM44 -208l30 140h348l-30 -140h-348z" />
    <glyph glyph-name="ntilde" unicode="&#xf1;" horiz-adv-x="627" 
d="M472 527q-36 0 -68.5 11t-62.5 22t-61 11q-34 0 -63 -11.5t-51 -29.5l30 141q18 14 48.5 24.5t61.5 10.5q37 0 67 -11l60 -22t64 -11q35 0 63 12.5t44 28.5l-30 -141q-13 -13 -41.5 -24t-60.5 -11zM-21 0l100 474h227v-27q29 14 75.5 25.5t98.5 11.5q63 0 97 -29.5
t34 -90.5q0 -13 -1.5 -27.5t-5.5 -31.5l-64 -305h-242l58 274q1 4 1 10q0 22 -27 22q-10 0 -25 -6t-24 -14l-60 -286h-242z" />
    <glyph glyph-name="o" unicode="o" horiz-adv-x="627" 
d="M253 -10q-120 0 -186 46.5t-66 137.5q0 14 1.5 30t5.5 33q26 123 111 185t239 62q122 0 188 -46t66 -138q0 -14 -1.5 -30t-5.5 -33q-26 -123 -110 -185t-242 -62zM290 163q26 0 42.5 16t25.5 58q2 11 3 19t1 15q0 23 -10 31.5t-30 8.5q-25 0 -41.5 -16t-25.5 -58
q-4 -19 -4 -35q0 -22 10 -30.5t29 -8.5z" />
    <glyph glyph-name="oacute" unicode="&#xf3;" horiz-adv-x="627" 
d="M257 522l144 226h186l-153 -226h-177zM253 -10q-120 0 -186 46.5t-66 137.5q0 14 1.5 30t5.5 33q26 123 111 185t239 62q122 0 188 -46t66 -138q0 -14 -1.5 -30t-5.5 -33q-26 -123 -110 -185t-242 -62zM290 163q26 0 42.5 16t25.5 58q2 11 3 19t1 15q0 23 -10 31.5
t-30 8.5q-25 0 -41.5 -16t-25.5 -58q-4 -19 -4 -35q0 -22 10 -30.5t29 -8.5z" />
    <glyph glyph-name="obreve" unicode="&#x14f;" horiz-adv-x="627" 
d="M366 522q-83 0 -131 40.5t-48 117.5q0 14 1.5 30t5.5 32h147q-2 -8 -3 -16.5t-1 -16.5q0 -23 11 -39t39 -16q38 0 58 27t27 61h162q-23 -107 -95 -163.5t-173 -56.5zM253 -10q-120 0 -186 46.5t-66 137.5q0 14 1.5 30t5.5 33q26 123 111 185t239 62q122 0 188 -46
t66 -138q0 -14 -1.5 -30t-5.5 -33q-26 -123 -110 -185t-242 -62zM290 163q26 0 42.5 16t25.5 58q2 11 3 19t1 15q0 23 -10 31.5t-30 8.5q-25 0 -41.5 -16t-25.5 -58q-4 -19 -4 -35q0 -22 10 -30.5t29 -8.5z" />
    <glyph glyph-name="uni01D2" unicode="&#x1d2;" horiz-adv-x="627" 
d="M297 522l-129 216h165l51 -107l99 107h175l-221 -216h-140zM253 -10q-120 0 -186 46.5t-66 137.5q0 14 1.5 30t5.5 33q26 123 111 185t239 62q122 0 188 -46t66 -138q0 -14 -1.5 -30t-5.5 -33q-26 -123 -110 -185t-242 -62zM290 163q26 0 42.5 16t25.5 58q2 11 3 19t1 15
q0 23 -10 31.5t-30 8.5q-25 0 -41.5 -16t-25.5 -58q-4 -19 -4 -35q0 -22 10 -30.5t29 -8.5z" />
    <glyph glyph-name="ocircumflex" unicode="&#xf4;" horiz-adv-x="627" 
d="M122 522l220 216h141l129 -216h-161l-54 107l-95 -107h-180zM253 -10q-120 0 -186 46.5t-66 137.5q0 14 1.5 30t5.5 33q26 123 111 185t239 62q122 0 188 -46t66 -138q0 -14 -1.5 -30t-5.5 -33q-26 -123 -110 -185t-242 -62zM290 163q26 0 42.5 16t25.5 58q2 11 3 19
t1 15q0 23 -10 31.5t-30 8.5q-25 0 -41.5 -16t-25.5 -58q-4 -19 -4 -35q0 -22 10 -30.5t29 -8.5z" />
    <glyph glyph-name="uni1ED1" unicode="&#x1ed1;" horiz-adv-x="626" 
d="M532 654l111 172h176l-120 -172h-167zM115 522l194 168h175l121 -168h-181l-40 76l-69 -76h-200zM253 -10q-120 0 -186 46.5t-66 137.5q0 14 1.5 30t5.5 33q26 123 111 185t239 62q122 0 188 -46t66 -138q0 -14 -1.5 -30t-5.5 -33q-26 -123 -110 -185t-242 -62zM290 163
q26 0 42.5 16t25.5 58q2 11 3 19t1 15q0 23 -10 31.5t-30 8.5q-25 0 -41.5 -16t-25.5 -58q-4 -19 -4 -35q0 -22 10 -30.5t29 -8.5z" />
    <glyph glyph-name="uni1ED9" unicode="&#x1ed9;" horiz-adv-x="627" 
d="M122 522l220 216h141l129 -216h-161l-54 107l-95 -107h-180zM253 -10q-120 0 -186 46.5t-66 137.5q0 14 1.5 30t5.5 33q26 123 111 185t239 62q122 0 188 -46t66 -138q0 -14 -1.5 -30t-5.5 -33q-26 -123 -110 -185t-242 -62zM290 163q26 0 42.5 16t25.5 58q2 11 3 19
t1 15q0 23 -10 31.5t-30 8.5q-25 0 -41.5 -16t-25.5 -58q-4 -19 -4 -35q0 -22 10 -30.5t29 -8.5zM134 -213l30 141h156l-30 -141h-156z" />
    <glyph glyph-name="uni1ED3" unicode="&#x1ed3;" horiz-adv-x="627" 
d="M87 654l-46 172h176l38 -172h-168zM125 522l194 168h175l121 -168h-185l-37 76l-72 -76h-196zM253 -10q-120 0 -186 46.5t-66 137.5q0 14 1.5 30t5.5 33q26 123 111 185t239 62q122 0 188 -46t66 -138q0 -14 -1.5 -30t-5.5 -33q-26 -123 -110 -185t-242 -62zM290 163
q26 0 42.5 16t25.5 58q2 11 3 19t1 15q0 23 -10 31.5t-30 8.5q-25 0 -41.5 -16t-25.5 -58q-4 -19 -4 -35q0 -22 10 -30.5t29 -8.5z" />
    <glyph glyph-name="uni1ED5" unicode="&#x1ed5;" horiz-adv-x="626" 
d="M544 631l17 80q42 2 55 9t13 17q0 12 -31 12q-12 0 -25 -3t-24 -7l20 92q20 5 50 8.5t67 3.5q56 0 84 -22t28 -54q0 -4 -0.5 -8t-1.5 -8q-7 -34 -29 -58t-60 -31l-7 -31h-156zM121 522l194 168h175l121 -168h-181l-40 76l-69 -76h-200zM253 -10q-120 0 -186 46.5
t-66 137.5q0 14 1.5 30t5.5 33q26 123 111 185t239 62q122 0 188 -46t66 -138q0 -14 -1.5 -30t-5.5 -33q-26 -123 -110 -185t-242 -62zM290 163q26 0 42.5 16t25.5 58q2 11 3 19t1 15q0 23 -10 31.5t-30 8.5q-25 0 -41.5 -16t-25.5 -58q-4 -19 -4 -35q0 -22 10 -30.5
t29 -8.5z" />
    <glyph glyph-name="uni1ED7" unicode="&#x1ed7;" horiz-adv-x="627" 
d="M508 705q-34 0 -64.5 10.5t-59.5 21t-59 10.5q-33 0 -60.5 -11t-47.5 -28l28 135q17 13 45.5 23t58.5 10q35 0 64.5 -10.5t58 -21t60.5 -10.5q33 0 60 11.5t42 27.5l-29 -135q-12 -13 -39.5 -23t-57.5 -10zM121 522l194 168h175l121 -168h-181l-40 76l-69 -76h-200z
M253 -10q-120 0 -186 46.5t-66 137.5q0 14 1.5 30t5.5 33q26 123 111 185t239 62q122 0 188 -46t66 -138q0 -14 -1.5 -30t-5.5 -33q-26 -123 -110 -185t-242 -62zM290 163q26 0 42.5 16t25.5 58q2 11 3 19t1 15q0 23 -10 31.5t-30 8.5q-25 0 -41.5 -16t-25.5 -58
q-4 -19 -4 -35q0 -22 10 -30.5t29 -8.5z" />
    <glyph glyph-name="odieresis" unicode="&#xf6;" horiz-adv-x="627" 
d="M178 552l30 141h155l-30 -141h-155zM412 552l30 141h156l-30 -141h-156zM253 -10q-120 0 -186 46.5t-66 137.5q0 14 1.5 30t5.5 33q26 123 111 185t239 62q122 0 188 -46t66 -138q0 -14 -1.5 -30t-5.5 -33q-26 -123 -110 -185t-242 -62zM290 163q26 0 42.5 16t25.5 58
q2 11 3 19t1 15q0 23 -10 31.5t-30 8.5q-25 0 -41.5 -16t-25.5 -58q-4 -19 -4 -35q0 -22 10 -30.5t29 -8.5z" />
    <glyph glyph-name="uni1ECD" unicode="&#x1ecd;" horiz-adv-x="627" 
d="M253 -10q-120 0 -186 46.5t-66 137.5q0 14 1.5 30t5.5 33q26 123 111 185t239 62q122 0 188 -46t66 -138q0 -14 -1.5 -30t-5.5 -33q-26 -123 -110 -185t-242 -62zM290 163q26 0 42.5 16t25.5 58q2 11 3 19t1 15q0 23 -10 31.5t-30 8.5q-25 0 -41.5 -16t-25.5 -58
q-4 -19 -4 -35q0 -22 10 -30.5t29 -8.5zM134 -213l30 141h156l-30 -141h-156z" />
    <glyph glyph-name="ograve" unicode="&#xf2;" horiz-adv-x="627" 
d="M275 522l-57 226h186l48 -226h-177zM253 -10q-120 0 -186 46.5t-66 137.5q0 14 1.5 30t5.5 33q26 123 111 185t239 62q122 0 188 -46t66 -138q0 -14 -1.5 -30t-5.5 -33q-26 -123 -110 -185t-242 -62zM290 163q26 0 42.5 16t25.5 58q2 11 3 19t1 15q0 23 -10 31.5t-30 8.5
q-25 0 -41.5 -16t-25.5 -58q-4 -19 -4 -35q0 -22 10 -30.5t29 -8.5z" />
    <glyph glyph-name="uni1ECF" unicode="&#x1ecf;" horiz-adv-x="627" 
d="M281 522l17 81q50 3 70 13.5t23 25.5q7 28 -44 28q-30 0 -58 -10l20 94q26 7 58 11t75 4q65 0 98 -24.5t33 -62.5q0 -5 -0.5 -10t-1.5 -10q-10 -45 -34 -67.5t-70 -36.5l-8 -36h-178zM253 -10q-120 0 -186 46.5t-66 137.5q0 14 1.5 30t5.5 33q26 123 111 185t239 62
q122 0 188 -46t66 -138q0 -14 -1.5 -30t-5.5 -33q-26 -123 -110 -185t-242 -62zM290 163q26 0 42.5 16t25.5 58q2 11 3 19t1 15q0 23 -10 31.5t-30 8.5q-25 0 -41.5 -16t-25.5 -58q-4 -19 -4 -35q0 -22 10 -30.5t29 -8.5z" />
    <glyph glyph-name="ohorn" unicode="&#x1a1;" horiz-adv-x="766" 
d="M253 -10q-120 0 -186 46.5t-66 137.5q0 14 1.5 30t5.5 33q26 123 111 185t239 62q120 0 186 -45q43 0 65.5 9t33 30t16.5 58h169q-23 -111 -72.5 -169t-143.5 -75q-1 -13 -2.5 -27t-4.5 -28q-26 -123 -110 -185t-242 -62zM290 163q26 0 42.5 16t25.5 58q2 11 3 19t1 15
q0 23 -10 31.5t-30 8.5q-25 0 -41.5 -16t-25.5 -58q-4 -19 -4 -35q0 -22 10 -30.5t29 -8.5z" />
    <glyph glyph-name="uni1EDB" unicode="&#x1edb;" horiz-adv-x="766" 
d="M277 522l144 226h186l-153 -226h-177zM253 -10q-120 0 -186 46.5t-66 137.5q0 14 1.5 30t5.5 33q26 123 111 185t239 62q120 0 186 -45q43 0 65.5 9t33 30t16.5 58h169q-23 -111 -72.5 -169t-143.5 -75q-1 -13 -2.5 -27t-4.5 -28q-26 -123 -110 -185t-242 -62zM290 163
q26 0 42.5 16t25.5 58q2 11 3 19t1 15q0 23 -10 31.5t-30 8.5q-25 0 -41.5 -16t-25.5 -58q-4 -19 -4 -35q0 -22 10 -30.5t29 -8.5z" />
    <glyph glyph-name="uni1EE3" unicode="&#x1ee3;" horiz-adv-x="766" 
d="M253 -10q-120 0 -186 46.5t-66 137.5q0 14 1.5 30t5.5 33q26 123 111 185t239 62q120 0 186 -45q43 0 65.5 9t33 30t16.5 58h169q-23 -111 -72.5 -169t-143.5 -75q-1 -13 -2.5 -27t-4.5 -28q-26 -123 -110 -185t-242 -62zM290 163q26 0 42.5 16t25.5 58q2 11 3 19t1 15
q0 23 -10 31.5t-30 8.5q-25 0 -41.5 -16t-25.5 -58q-4 -19 -4 -35q0 -22 10 -30.5t29 -8.5zM134 -213l30 141h156l-30 -141h-156z" />
    <glyph glyph-name="uni1EDD" unicode="&#x1edd;" horiz-adv-x="766" 
d="M287 522l-57 226h186l48 -226h-177zM253 -10q-120 0 -186 46.5t-66 137.5q0 14 1.5 30t5.5 33q26 123 111 185t239 62q120 0 186 -45q43 0 65.5 9t33 30t16.5 58h169q-23 -111 -72.5 -169t-143.5 -75q-1 -13 -2.5 -27t-4.5 -28q-26 -123 -110 -185t-242 -62zM290 163
q26 0 42.5 16t25.5 58q2 11 3 19t1 15q0 23 -10 31.5t-30 8.5q-25 0 -41.5 -16t-25.5 -58q-4 -19 -4 -35q0 -22 10 -30.5t29 -8.5z" />
    <glyph glyph-name="uni1EDF" unicode="&#x1edf;" horiz-adv-x="766" 
d="M275 522l17 81q50 3 70 13.5t23 25.5q7 28 -44 28q-30 0 -58 -10l20 94q26 7 58 11t75 4q65 0 98 -24.5t33 -62.5q0 -5 -0.5 -10t-1.5 -10q-10 -45 -34 -67.5t-70 -36.5l-8 -36h-178zM253 -10q-120 0 -186 46.5t-66 137.5q0 14 1.5 30t5.5 33q26 123 111 185t239 62
q120 0 186 -45q43 0 65.5 9t33 30t16.5 58h169q-23 -111 -72.5 -169t-143.5 -75q-1 -13 -2.5 -27t-4.5 -28q-26 -123 -110 -185t-242 -62zM290 163q26 0 42.5 16t25.5 58q2 11 3 19t1 15q0 23 -10 31.5t-30 8.5q-25 0 -41.5 -16t-25.5 -58q-4 -19 -4 -35q0 -22 10 -30.5
t29 -8.5z" />
    <glyph glyph-name="uni1EE1" unicode="&#x1ee1;" horiz-adv-x="766" 
d="M480 522q-36 0 -68.5 11t-62.5 22t-61 11q-34 0 -63 -11.5t-51 -29.5l30 141q18 14 48.5 24.5t61.5 10.5q37 0 67 -11l60 -22t64 -11q35 0 63 12.5t44 28.5l-30 -141q-13 -13 -41.5 -24t-60.5 -11zM253 -10q-120 0 -186 46.5t-66 137.5q0 14 1.5 30t5.5 33
q26 123 111 185t239 62q120 0 186 -45q43 0 65.5 9t33 30t16.5 58h169q-23 -111 -72.5 -169t-143.5 -75q-1 -13 -2.5 -27t-4.5 -28q-26 -123 -110 -185t-242 -62zM290 163q26 0 42.5 16t25.5 58q2 11 3 19t1 15q0 23 -10 31.5t-30 8.5q-25 0 -41.5 -16t-25.5 -58
q-4 -19 -4 -35q0 -22 10 -30.5t29 -8.5z" />
    <glyph glyph-name="ohungarumlaut" unicode="&#x151;" horiz-adv-x="626" 
d="M110 522l138 203h205l-156 -203h-187zM379 522l138 203h206l-157 -203h-187zM253 -10q-120 0 -186 46.5t-66 137.5q0 14 1.5 30t5.5 33q26 123 111 185t239 62q122 0 188 -46t66 -138q0 -14 -1.5 -30t-5.5 -33q-26 -123 -110 -185t-242 -62zM290 163q26 0 42.5 16
t25.5 58q2 11 3 19t1 15q0 23 -10 31.5t-30 8.5q-25 0 -41.5 -16t-25.5 -58q-4 -19 -4 -35q0 -22 10 -30.5t29 -8.5z" />
    <glyph glyph-name="omacron" unicode="&#x14d;" horiz-adv-x="627" 
d="M191 562l30 140h348l-30 -140h-348zM253 -10q-120 0 -186 46.5t-66 137.5q0 14 1.5 30t5.5 33q26 123 111 185t239 62q122 0 188 -46t66 -138q0 -14 -1.5 -30t-5.5 -33q-26 -123 -110 -185t-242 -62zM290 163q26 0 42.5 16t25.5 58q2 11 3 19t1 15q0 23 -10 31.5t-30 8.5
q-25 0 -41.5 -16t-25.5 -58q-4 -19 -4 -35q0 -22 10 -30.5t29 -8.5z" />
    <glyph glyph-name="oslash" unicode="&#xf8;" horiz-adv-x="627" 
d="M87 -54l38 61q-60 20 -92 61.5t-32 104.5q0 15 1.5 31t5.5 33q26 123 111 185t239 62q16 0 31 -1t29 -3l30 48h77l-38 -62q61 -19 93 -61t32 -105q0 -15 -1.5 -30.5t-5.5 -32.5q-26 -123 -110 -185t-242 -62q-16 0 -31 1.5t-29 2.5l-29 -48h-77zM231 179l95 152
q-32 0 -56.5 -20.5t-35.5 -73.5q-3 -11 -4 -20.5t-1 -17.5q0 -6 0.5 -10.5t1.5 -9.5zM286 143q33 0 57.5 20.5t35.5 73.5q2 11 3 20.5t1 17.5v11.5t-2 9.5z" />
    <glyph glyph-name="oslashacute" unicode="&#x1ff;" horiz-adv-x="627" 
d="M188 522l144 226h186l-153 -226h-177zM87 -54l38 61q-60 20 -92 61.5t-32 104.5q0 15 1.5 31t5.5 33q26 123 111 185t239 62q16 0 31 -1t29 -3l30 48h77l-38 -62q61 -19 93 -61t32 -105q0 -15 -1.5 -30.5t-5.5 -32.5q-26 -123 -110 -185t-242 -62q-16 0 -31 1.5t-29 2.5
l-29 -48h-77zM231 179l95 152q-32 0 -56.5 -20.5t-35.5 -73.5q-3 -11 -4 -20.5t-1 -17.5q0 -6 0.5 -10.5t1.5 -9.5zM286 143q33 0 57.5 20.5t35.5 73.5q2 11 3 20.5t1 17.5v11.5t-2 9.5z" />
    <glyph glyph-name="otilde" unicode="&#xf5;" horiz-adv-x="627" 
d="M479 547q-36 0 -68.5 11t-62.5 22t-61 11q-34 0 -63 -11.5t-51 -29.5l30 141q18 14 48.5 24.5t61.5 10.5q37 0 67 -11l60 -22t64 -11q35 0 63 12.5t44 28.5l-30 -141q-13 -13 -41.5 -24t-60.5 -11zM253 -10q-120 0 -186 46.5t-66 137.5q0 14 1.5 30t5.5 33
q26 123 111 185t239 62q122 0 188 -46t66 -138q0 -14 -1.5 -30t-5.5 -33q-26 -123 -110 -185t-242 -62zM290 163q26 0 42.5 16t25.5 58q2 11 3 19t1 15q0 23 -10 31.5t-30 8.5q-25 0 -41.5 -16t-25.5 -58q-4 -19 -4 -35q0 -22 10 -30.5t29 -8.5z" />
    <glyph glyph-name="oe" unicode="&#x153;" horiz-adv-x="953" 
d="M253 -10q-120 0 -186 46.5t-66 137.5q0 14 1.5 30t5.5 33q26 123 111 185t239 62q112 0 176 -39q35 19 80 29t102 10q68 0 118.5 -23.5t78 -65t27.5 -96.5q0 -11 -1.5 -22.5t-3.5 -23.5l-17 -81h-316q11 -19 39 -29.5t92 -10.5q45 0 88.5 7.5t69.5 16.5l-28 -130
q-82 -36 -226 -36q-49 0 -92.5 11.5t-76.5 33.5q-82 -45 -215 -45zM628 293h109l2 9q1 3 1 9q0 12 -10 21t-36 9q-30 0 -45.5 -13t-20.5 -35zM290 163q26 0 42.5 16t25.5 58q2 11 3 19t1 15q0 23 -10 31.5t-30 8.5q-25 0 -41.5 -16t-25.5 -58q-4 -19 -4 -35q0 -22 10 -30.5
t29 -8.5z" />
    <glyph glyph-name="p" unicode="p" horiz-adv-x="629" 
d="M-63 -200l142 674h210l5 -31q30 19 64 30t77 11q86 0 132.5 -44.5t46.5 -131.5q0 -16 -1.5 -34t-5.5 -38q-22 -127 -94.5 -186.5t-191.5 -59.5q-26 0 -54 5.5t-45 12.5l-44 -208h-241zM297 163q22 0 38 17t26 60q4 17 4 34q0 22 -9.5 29.5t-26.5 7.5q-13 0 -23.5 -3.5
t-22.5 -11.5l-25 -118q15 -15 39 -15z" />
    <glyph glyph-name="thorn" unicode="&#xfe;" horiz-adv-x="629" 
d="M-66 -216l193 916h242l-49 -234q20 8 54.5 13t60.5 5q89 0 134 -47t45 -130q0 -16 -1.5 -34t-5.5 -37q-23 -127 -95 -186.5t-191 -59.5q-26 0 -54 5.5t-45 12.5l-47 -224h-241zM297 163q22 0 38 17t26 60q4 17 4 34q0 22 -9.5 29.5t-26.5 7.5q-13 0 -23.5 -3.5
t-22.5 -11.5l-25 -118q15 -15 39 -15z" />
    <glyph glyph-name="q" unicode="q" horiz-adv-x="616" 
d="M427 -242q-76 0 -114.5 35.5t-38.5 93.5q0 11 1.5 21.5t3.5 21.5l16 78q-20 -7 -50.5 -12.5t-56.5 -5.5q-88 0 -138 42.5t-50 130.5q0 17 2 35t6 38q25 128 100.5 188t178.5 60q44 0 72 -11t50 -30l17 31h210l-109 -512q-1 -4 -1.5 -8t-0.5 -7q0 -22 25 -22q27 0 51 9
l-31 -150q-34 -13 -63.5 -19.5t-79.5 -6.5zM286 163q25 0 45 15l25 118q-7 8 -14 11.5t-21 3.5q-22 0 -39 -14t-26 -57q-2 -11 -3.5 -20t-1.5 -17q0 -22 9.5 -31t25.5 -9z" />
    <glyph glyph-name="r" unicode="r" horiz-adv-x="445" 
d="M-21 0l100 474h237v-27q29 14 73.5 25.5t90.5 11.5l-37 -178q-25 0 -55 -2.5t-58.5 -6.5t-48.5 -11l-60 -286h-242z" />
    <glyph glyph-name="racute" unicode="&#x155;" horiz-adv-x="430" 
d="M115 522l144 226h186l-153 -226h-177zM-21 0l100 474h237v-27q29 14 73.5 25.5t90.5 11.5l-37 -178q-25 0 -55 -2.5t-58.5 -6.5t-48.5 -11l-60 -286h-242z" />
    <glyph glyph-name="rcaron" unicode="&#x159;" horiz-adv-x="429" 
d="M154 522l-129 216h165l51 -107l99 107h175l-221 -216h-140zM-22 0l100 474h237v-27q29 14 73.5 25.5t90.5 11.5l-37 -178q-25 0 -55 -2.5t-58.5 -6.5t-48.5 -11l-60 -286h-242z" />
    <glyph glyph-name="uni0157" unicode="&#x157;" horiz-adv-x="428" 
d="M-23 0l100 474h237v-27q29 14 73.5 25.5t90.5 11.5l-37 -178q-25 0 -55 -2.5t-58.5 -6.5t-48.5 -11l-60 -286h-242zM-93 -286l89 249h179l-118 -249h-150z" />
    <glyph glyph-name="uni1E5B" unicode="&#x1e5b;" horiz-adv-x="430" 
d="M-21 0l100 474h237v-27q29 14 73.5 25.5t90.5 11.5l-37 -178q-25 0 -55 -2.5t-58.5 -6.5t-48.5 -11l-60 -286h-242zM-24 -213l30 141h156l-30 -141h-156z" />
    <glyph glyph-name="uni1E5D" unicode="&#x1e5d;" horiz-adv-x="430" 
d="M96 552l30 140h348l-30 -140h-348zM-21 0l100 474h237v-27q29 14 73.5 25.5t90.5 11.5l-37 -178q-25 0 -55 -2.5t-58.5 -6.5t-48.5 -11l-60 -286h-242zM-24 -213l30 141h156l-30 -141h-156z" />
    <glyph glyph-name="uni1E5F" unicode="&#x1e5f;" horiz-adv-x="429" 
d="M-22 0l100 474h237v-27q29 14 73.5 25.5t90.5 11.5l-37 -178q-25 0 -55 -2.5t-58.5 -6.5t-48.5 -11l-60 -286h-242zM-119 -208l30 140h348l-30 -140h-348z" />
    <glyph glyph-name="s" unicode="s" horiz-adv-x="508" 
d="M180 -10q-68 0 -125.5 10t-86.5 24l32 153q21 -12 51.5 -21t61 -14t51.5 -5q23 0 38.5 1t17.5 10q2 8 -13 13t-38.5 11t-47.5 15q-49 20 -73 43.5t-24 62.5q0 8 1 17t3 19q17 76 84 115.5t205 39.5q32 0 69 -3.5t70 -8.5t51 -12l-32 -152q-29 14 -64.5 21.5t-63.5 7.5
q-14 0 -30.5 -0.5t-28.5 -3t-14 -9.5q-1 -10 28 -15.5t64 -16.5q56 -18 81 -42.5t25 -62.5q0 -9 -1.5 -18.5t-3.5 -20.5q-16 -73 -83.5 -115.5t-203.5 -42.5z" />
    <glyph glyph-name="sacute" unicode="&#x15b;" horiz-adv-x="508" 
d="M196 522l144 226h186l-153 -226h-177zM180 -10q-68 0 -125.5 10t-86.5 24l32 153q21 -12 51.5 -21t61 -14t51.5 -5q23 0 38.5 1t17.5 10q2 8 -13 13t-38.5 11t-47.5 15q-49 20 -73 43.5t-24 62.5q0 8 1 17t3 19q17 76 84 115.5t205 39.5q32 0 69 -3.5t70 -8.5t51 -12
l-32 -152q-29 14 -64.5 21.5t-63.5 7.5q-14 0 -30.5 -0.5t-28.5 -3t-14 -9.5q-1 -10 28 -15.5t64 -16.5q56 -18 81 -42.5t25 -62.5q0 -9 -1.5 -18.5t-3.5 -20.5q-16 -73 -83.5 -115.5t-203.5 -42.5z" />
    <glyph glyph-name="scaron" unicode="&#x161;" horiz-adv-x="513" 
d="M236 522l-129 216h165l51 -107l99 107h175l-221 -216h-140zM191 -10q-68 0 -125.5 10t-86.5 24l32 153q21 -12 51.5 -21t61 -14t51.5 -5q23 0 38.5 1t17.5 10q2 8 -13 13t-38.5 11t-47.5 15q-49 20 -73 43.5t-24 62.5q0 8 1 17t3 19q17 76 84 115.5t205 39.5
q32 0 69 -3.5t70 -8.5t51 -12l-32 -152q-29 14 -64.5 21.5t-63.5 7.5q-14 0 -30.5 -0.5t-28.5 -3t-14 -9.5q-1 -10 28 -15.5t64 -16.5q56 -18 81 -42.5t25 -62.5q0 -9 -1.5 -18.5t-3.5 -20.5q-16 -73 -83.5 -115.5t-203.5 -42.5z" />
    <glyph glyph-name="scedilla" unicode="&#x15f;" horiz-adv-x="508" 
d="M113 -240q-12 0 -30 1t-33.5 3t-22.5 4l17 77q26 -8 56 -8q68 0 74 35q4 16 -5 22t-26 6h-74l45 93q-48 4 -86.5 12t-59.5 19l32 153q21 -12 51.5 -21t61 -14t51.5 -5q23 0 38.5 1t17.5 10q2 8 -13 13t-38.5 11t-47.5 15q-49 20 -73 43.5t-24 62.5q0 8 1 17t3 19
q17 76 84 115.5t205 39.5q32 0 69 -3.5t70 -8.5t51 -12l-32 -152q-29 14 -64.5 21.5t-63.5 7.5q-14 0 -30.5 -0.5t-28.5 -3t-14 -9.5q-1 -10 28 -15.5t64 -16.5q56 -18 81 -42.5t25 -62.5q0 -9 -1.5 -18.5t-3.5 -20.5q-14 -65 -69.5 -106t-163.5 -49l-16 -30q44 0 66.5 -21
t22.5 -53v-11t-2 -11q-10 -49 -59 -78t-133 -29z" />
    <glyph glyph-name="scircumflex" unicode="&#x15d;" horiz-adv-x="506" 
d="M58 522l220 216h141l129 -216h-161l-54 107l-95 -107h-180zM178 -10q-68 0 -125.5 10t-86.5 24l32 153q21 -12 51.5 -21t61 -14t51.5 -5q23 0 38.5 1t17.5 10q2 8 -13 13t-38.5 11t-47.5 15q-49 20 -73 43.5t-24 62.5q0 8 1 17t3 19q17 76 84 115.5t205 39.5
q32 0 69 -3.5t70 -8.5t51 -12l-32 -152q-29 14 -64.5 21.5t-63.5 7.5q-14 0 -30.5 -0.5t-28.5 -3t-14 -9.5q-1 -10 28 -15.5t64 -16.5q56 -18 81 -42.5t25 -62.5q0 -9 -1.5 -18.5t-3.5 -20.5q-16 -73 -83.5 -115.5t-203.5 -42.5z" />
    <glyph glyph-name="uni0219" unicode="&#x219;" horiz-adv-x="508" 
d="M180 -10q-68 0 -125.5 10t-86.5 24l32 153q21 -12 51.5 -21t61 -14t51.5 -5q23 0 38.5 1t17.5 10q2 8 -13 13t-38.5 11t-47.5 15q-49 20 -73 43.5t-24 62.5q0 8 1 17t3 19q17 76 84 115.5t205 39.5q32 0 69 -3.5t70 -8.5t51 -12l-32 -152q-29 14 -64.5 21.5t-63.5 7.5
q-14 0 -30.5 -0.5t-28.5 -3t-14 -9.5q-1 -10 28 -15.5t64 -16.5q56 -18 81 -42.5t25 -62.5q0 -9 -1.5 -18.5t-3.5 -20.5q-16 -73 -83.5 -115.5t-203.5 -42.5zM17 -241l78 204h200l-94 -204h-184z" />
    <glyph glyph-name="uni1E61" unicode="&#x1e61;" horiz-adv-x="508" 
d="M217 552l29 141h156l-30 -141h-155zM180 -10q-68 0 -125.5 10t-86.5 24l32 153q21 -12 51.5 -21t61 -14t51.5 -5q23 0 38.5 1t17.5 10q2 8 -13 13t-38.5 11t-47.5 15q-49 20 -73 43.5t-24 62.5q0 8 1 17t3 19q17 76 84 115.5t205 39.5q32 0 69 -3.5t70 -8.5t51 -12
l-32 -152q-29 14 -64.5 21.5t-63.5 7.5q-14 0 -30.5 -0.5t-28.5 -3t-14 -9.5q-1 -10 28 -15.5t64 -16.5q56 -18 81 -42.5t25 -62.5q0 -9 -1.5 -18.5t-3.5 -20.5q-16 -73 -83.5 -115.5t-203.5 -42.5z" />
    <glyph glyph-name="uni1E63" unicode="&#x1e63;" horiz-adv-x="508" 
d="M180 -10q-68 0 -125.5 10t-86.5 24l32 153q21 -12 51.5 -21t61 -14t51.5 -5q23 0 38.5 1t17.5 10q2 8 -13 13t-38.5 11t-47.5 15q-49 20 -73 43.5t-24 62.5q0 8 1 17t3 19q17 76 84 115.5t205 39.5q32 0 69 -3.5t70 -8.5t51 -12l-32 -152q-29 14 -64.5 21.5t-63.5 7.5
q-14 0 -30.5 -0.5t-28.5 -3t-14 -9.5q-1 -10 28 -15.5t64 -16.5q56 -18 81 -42.5t25 -62.5q0 -9 -1.5 -18.5t-3.5 -20.5q-16 -73 -83.5 -115.5t-203.5 -42.5zM79 -213l30 141h156l-30 -141h-156z" />
    <glyph glyph-name="germandbls" unicode="&#xdf;" horiz-adv-x="657" 
d="M356 -10q-38 0 -72.5 6t-51.5 16l33 154q11 -4 28.5 -6.5t30.5 -2.5q27 0 40 14t17 36q1 3 1 6v5q0 29 -45 29h-54l32 150h42q64 0 76 52q1 4 1 10q0 37 -59 37q-40 0 -59.5 -20t-24.5 -46l-91 -430h-227l95 448q28 129 111 190.5t227 61.5q93 0 150 -27t83.5 -70.5
t26.5 -94.5q0 -11 -1.5 -23t-3.5 -23q-10 -48 -33.5 -82t-55.5 -54q28 -15 42.5 -35.5t14.5 -58.5q0 -16 -3 -37q-15 -99 -80 -152t-190 -53z" />
    <glyph glyph-name="t" unicode="t" horiz-adv-x="406" 
d="M200 -10q-81 0 -123.5 38.5t-42.5 105.5q0 25 6 52l24 114h-57l37 174h57l20 93l252 49l-30 -142h97l-42 -174h-92l-21 -101q-1 -3 -1 -6.5v-5.5q0 -30 39 -30q32 0 62 10l-32 -150q-34 -13 -70.5 -20t-82.5 -7z" />
    <glyph glyph-name="tbar" unicode="&#x167;" horiz-adv-x="396" 
d="M195 -10q-89 0 -128 36t-39 99q0 26 6 56h-57l26 122h56l5 21h-57l32 150h57l20 93l252 49l-30 -142h97l-37 -150h-92l-5 -21h97l-26 -122h-94q5 -24 40 -24q32 0 62 10l-32 -150q-34 -13 -70.5 -20t-82.5 -7z" />
    <glyph glyph-name="tcaron" unicode="&#x165;" horiz-adv-x="440" 
d="M424 558l89 249h179l-118 -249h-150zM195 -10q-81 0 -123.5 38.5t-42.5 105.5q0 25 6 52l24 114h-57l37 174h57l20 93l252 49l-30 -142h97l-42 -174h-92l-21 -101q-1 -3 -1 -6.5v-5.5q0 -30 39 -30q32 0 62 10l-32 -150q-34 -13 -70.5 -20t-82.5 -7z" />
    <glyph glyph-name="uni0163" unicode="&#x163;" horiz-adv-x="396" 
d="M134 -240q-12 0 -30 1t-33.5 3t-22.5 4l17 77q26 -8 56 -8q68 0 74 35q4 16 -5 22t-26 6h-74l47 97q-53 12 -80.5 47.5t-27.5 89.5q0 24 6 52l24 114h-57l37 174h57l20 93l252 49l-30 -142h97l-42 -174h-92l-21 -101q-1 -3 -1 -6.5v-5.5q0 -30 39 -30q32 0 62 10
l-32 -150q-22 -9 -44.5 -14.5t-47.5 -8.5l-17 -31q44 0 66.5 -21t22.5 -53v-11t-2 -11q-10 -49 -59 -78t-133 -29z" />
    <glyph glyph-name="uni021B" unicode="&#x21b;" horiz-adv-x="396" 
d="M195 -10q-81 0 -123.5 38.5t-42.5 105.5q0 25 6 52l24 114h-57l37 174h57l20 93l252 49l-30 -142h97l-42 -174h-92l-21 -101q-1 -3 -1 -6.5v-5.5q0 -30 39 -30q32 0 62 10l-32 -150q-34 -13 -70.5 -20t-82.5 -7zM9 -286l89 249h179l-118 -249h-150z" />
    <glyph glyph-name="uni1E97" unicode="&#x1e97;" horiz-adv-x="403" 
d="M75 646l30 141h155l-30 -141h-155zM309 646l30 141h156l-30 -141h-156zM202 -10q-81 0 -123.5 38.5t-42.5 105.5q0 25 6 52l24 114h-57l37 174h57l20 93l252 49l-30 -142h97l-42 -174h-92l-21 -101q-1 -3 -1 -6.5v-5.5q0 -30 39 -30q32 0 62 10l-32 -150
q-34 -13 -70.5 -20t-82.5 -7z" />
    <glyph glyph-name="uni1E6D" unicode="&#x1e6d;" horiz-adv-x="396" 
d="M195 -10q-81 0 -123.5 38.5t-42.5 105.5q0 25 6 52l24 114h-57l37 174h57l20 93l252 49l-30 -142h97l-42 -174h-92l-21 -101q-1 -3 -1 -6.5v-5.5q0 -30 39 -30q32 0 62 10l-32 -150q-34 -13 -70.5 -20t-82.5 -7zM46 -193l30 141h156l-30 -141h-156z" />
    <glyph glyph-name="uni1E6F" unicode="&#x1e6f;" horiz-adv-x="396" 
d="M195 -10q-81 0 -123.5 38.5t-42.5 105.5q0 25 6 52l24 114h-57l37 174h57l20 93l252 49l-30 -142h97l-42 -174h-92l-21 -101q-1 -3 -1 -6.5v-5.5q0 -30 39 -30q32 0 62 10l-32 -150q-34 -13 -70.5 -20t-82.5 -7zM-70 -188l30 140h348l-30 -140h-348z" />
    <glyph glyph-name="u" unicode="u" horiz-adv-x="627" 
d="M145 -10q-64 0 -102.5 34t-38.5 99q0 24 6 51l64 300h242l-58 -274q-1 -3 -1 -6v-5q0 -21 27 -21q11 0 25.5 6t22.5 14l61 286h242l-100 -474h-227v27q-29 -16 -72 -26.5t-91 -10.5z" />
    <glyph glyph-name="uacute" unicode="&#xfa;" horiz-adv-x="627" 
d="M254 522l144 226h186l-153 -226h-177zM145 -10q-64 0 -102.5 34t-38.5 99q0 24 6 51l64 300h242l-58 -274q-1 -3 -1 -6v-5q0 -21 27 -21q11 0 25.5 6t22.5 14l61 286h242l-100 -474h-227v27q-29 -16 -72 -26.5t-91 -10.5z" />
    <glyph glyph-name="ubreve" unicode="&#x16d;" horiz-adv-x="627" 
d="M370 522q-83 0 -131 40.5t-48 117.5q0 14 1.5 30t5.5 32h147q-2 -8 -3 -16.5t-1 -16.5q0 -23 11 -39t39 -16q38 0 58 27t27 61h162q-23 -107 -95 -163.5t-173 -56.5zM145 -10q-64 0 -102.5 34t-38.5 99q0 24 6 51l64 300h242l-58 -274q-1 -3 -1 -6v-5q0 -21 27 -21
q11 0 25.5 6t22.5 14l61 286h242l-100 -474h-227v27q-29 -16 -72 -26.5t-91 -10.5z" />
    <glyph glyph-name="uni01D4" unicode="&#x1d4;" horiz-adv-x="627" 
d="M293 522l-129 216h165l51 -107l99 107h175l-221 -216h-140zM145 -10q-64 0 -102.5 34t-38.5 99q0 24 6 51l64 300h242l-58 -274q-1 -3 -1 -6v-5q0 -21 27 -21q11 0 25.5 6t22.5 14l61 286h242l-100 -474h-227v27q-29 -16 -72 -26.5t-91 -10.5z" />
    <glyph glyph-name="ucircumflex" unicode="&#xfb;" horiz-adv-x="627" 
d="M119 522l220 216h141l129 -216h-161l-54 107l-95 -107h-180zM145 -10q-64 0 -102.5 34t-38.5 99q0 24 6 51l64 300h242l-58 -274q-1 -3 -1 -6v-5q0 -21 27 -21q11 0 25.5 6t22.5 14l61 286h242l-100 -474h-227v27q-29 -16 -72 -26.5t-91 -10.5z" />
    <glyph glyph-name="udieresis" unicode="&#xfc;" horiz-adv-x="627" 
d="M178 552l30 141h155l-30 -141h-155zM412 552l30 141h156l-30 -141h-156zM145 -10q-64 0 -102.5 34t-38.5 99q0 24 6 51l64 300h242l-58 -274q-1 -3 -1 -6v-5q0 -21 27 -21q11 0 25.5 6t22.5 14l61 286h242l-100 -474h-227v27q-29 -16 -72 -26.5t-91 -10.5z" />
    <glyph glyph-name="uni01D8" unicode="&#x1d8;" horiz-adv-x="627" 
d="M321 724l86 145h178l-104 -145h-160zM180 560l28 133h152l-28 -133h-152zM409 560l28 133h152l-28 -133h-152zM145 -10q-64 0 -102.5 34t-38.5 99q0 24 6 51l64 300h242l-58 -274q-1 -3 -1 -6v-5q0 -21 27 -21q11 0 25.5 6t22.5 14l61 286h242l-100 -474h-227v27
q-29 -16 -72 -26.5t-91 -10.5z" />
    <glyph glyph-name="uni01DA" unicode="&#x1da;" horiz-adv-x="627" 
d="M324 696l-119 145h171l41 -73l73 73h177l-178 -145h-165zM176 532l28 133h152l-28 -133h-152zM405 532l28 133h151l-28 -133h-151zM145 -10q-64 0 -102.5 34t-38.5 99q0 24 6 51l64 300h242l-58 -274q-1 -3 -1 -6v-5q0 -21 27 -21q11 0 25.5 6t22.5 14l61 286h242
l-100 -474h-227v27q-29 -16 -72 -26.5t-91 -10.5z" />
    <glyph glyph-name="uni01DC" unicode="&#x1dc;" horiz-adv-x="627" 
d="M338 724l-44 145h178l26 -145h-160zM188 560l28 133h152l-28 -133h-152zM417 560l28 133h152l-28 -133h-152zM145 -10q-64 0 -102.5 34t-38.5 99q0 24 6 51l64 300h242l-58 -274q-1 -3 -1 -6v-5q0 -21 27 -21q11 0 25.5 6t22.5 14l61 286h242l-100 -474h-227v27
q-29 -16 -72 -26.5t-91 -10.5z" />
    <glyph glyph-name="uni01D6" unicode="&#x1d6;" horiz-adv-x="627" 
d="M236 720l30 140h348l-30 -140h-348zM175 532l30 141h155l-30 -141h-155zM409 532l30 141h156l-30 -141h-156zM145 -10q-64 0 -102.5 34t-38.5 99q0 24 6 51l64 300h242l-58 -274q-1 -3 -1 -6v-5q0 -21 27 -21q11 0 25.5 6t22.5 14l61 286h242l-100 -474h-227v27
q-29 -16 -72 -26.5t-91 -10.5z" />
    <glyph glyph-name="uni1EE5" unicode="&#x1ee5;" horiz-adv-x="627" 
d="M145 -10q-64 0 -102.5 34t-38.5 99q0 24 6 51l64 300h242l-58 -274q-1 -3 -1 -6v-5q0 -21 27 -21q11 0 25.5 6t22.5 14l61 286h242l-100 -474h-227v27q-29 -16 -72 -26.5t-91 -10.5zM130 -213l30 141h156l-30 -141h-156z" />
    <glyph glyph-name="ugrave" unicode="&#xf9;" horiz-adv-x="627" 
d="M299 522l-57 226h186l48 -226h-177zM145 -10q-64 0 -102.5 34t-38.5 99q0 24 6 51l64 300h242l-58 -274q-1 -3 -1 -6v-5q0 -21 27 -21q11 0 25.5 6t22.5 14l61 286h242l-100 -474h-227v27q-29 -16 -72 -26.5t-91 -10.5z" />
    <glyph glyph-name="uni1EE7" unicode="&#x1ee7;" horiz-adv-x="627" 
d="M279 522l17 81q50 3 70 13.5t23 25.5q7 28 -44 28q-30 0 -58 -10l20 94q26 7 58 11t75 4q65 0 98 -24.5t33 -62.5q0 -5 -0.5 -10t-1.5 -10q-10 -45 -34 -67.5t-70 -36.5l-8 -36h-178zM145 -10q-64 0 -102.5 34t-38.5 99q0 24 6 51l64 300h242l-58 -274q-1 -3 -1 -6v-5
q0 -21 27 -21q11 0 25.5 6t22.5 14l61 286h242l-100 -474h-227v27q-29 -16 -72 -26.5t-91 -10.5z" />
    <glyph glyph-name="uhorn" unicode="&#x1b0;" horiz-adv-x="807" 
d="M145 -10q-64 0 -102.5 34t-38.5 99q0 24 6 51l64 300h242l-58 -274q-1 -3 -1 -6v-5q0 -21 27 -21q11 0 25.5 6t22.5 14l61 286h242l-7 -34q40 4 57.5 25t24.5 71h169q-18 -86 -51.5 -140.5t-90 -80.5t-142.5 -30l-60 -285h-227v27q-29 -16 -72 -26.5t-91 -10.5z" />
    <glyph glyph-name="uni1EE9" unicode="&#x1ee9;" horiz-adv-x="807" 
d="M272 522l144 226h186l-153 -226h-177zM145 -10q-64 0 -102.5 34t-38.5 99q0 24 6 51l64 300h242l-58 -274q-1 -3 -1 -6v-5q0 -21 27 -21q11 0 25.5 6t22.5 14l61 286h242l-7 -34q40 4 57.5 25t24.5 71h169q-18 -86 -51.5 -140.5t-90 -80.5t-142.5 -30l-60 -285h-227v27
q-29 -16 -72 -26.5t-91 -10.5z" />
    <glyph glyph-name="uni1EF1" unicode="&#x1ef1;" horiz-adv-x="807" 
d="M145 -10q-64 0 -102.5 34t-38.5 99q0 24 6 51l64 300h242l-58 -274q-1 -3 -1 -6v-5q0 -21 27 -21q11 0 25.5 6t22.5 14l61 286h242l-7 -34q40 4 57.5 25t24.5 71h169q-18 -86 -51.5 -140.5t-90 -80.5t-142.5 -30l-60 -285h-227v27q-29 -16 -72 -26.5t-91 -10.5zM133 -213
l30 141h156l-30 -141h-156z" />
    <glyph glyph-name="uni1EEB" unicode="&#x1eeb;" horiz-adv-x="807" 
d="M281 522l-57 226h186l48 -226h-177zM145 -10q-64 0 -102.5 34t-38.5 99q0 24 6 51l64 300h242l-58 -274q-1 -3 -1 -6v-5q0 -21 27 -21q11 0 25.5 6t22.5 14l61 286h242l-7 -34q40 4 57.5 25t24.5 71h169q-18 -86 -51.5 -140.5t-90 -80.5t-142.5 -30l-60 -285h-227v27
q-29 -16 -72 -26.5t-91 -10.5z" />
    <glyph glyph-name="uni1EED" unicode="&#x1eed;" horiz-adv-x="807" 
d="M279 522l17 81q50 3 70 13.5t23 25.5q7 28 -44 28q-30 0 -58 -10l20 94q26 7 58 11t75 4q65 0 98 -24.5t33 -62.5q0 -5 -0.5 -10t-1.5 -10q-10 -45 -34 -67.5t-70 -36.5l-8 -36h-178zM145 -10q-64 0 -102.5 34t-38.5 99q0 24 6 51l64 300h242l-58 -274q-1 -3 -1 -6v-5
q0 -21 27 -21q11 0 25.5 6t22.5 14l61 286h242l-7 -34q40 4 57.5 25t24.5 71h169q-18 -86 -51.5 -140.5t-90 -80.5t-142.5 -30l-60 -285h-227v27q-29 -16 -72 -26.5t-91 -10.5z" />
    <glyph glyph-name="uni1EEF" unicode="&#x1eef;" horiz-adv-x="807" 
d="M472 522q-36 0 -68.5 11t-62.5 22t-61 11q-34 0 -63 -11.5t-51 -29.5l30 141q18 14 48.5 24.5t61.5 10.5q37 0 67 -11l60 -22t64 -11q35 0 63 12.5t44 28.5l-30 -141q-13 -13 -41.5 -24t-60.5 -11zM145 -10q-64 0 -102.5 34t-38.5 99q0 24 6 51l64 300h242l-58 -274
q-1 -3 -1 -6v-5q0 -21 27 -21q11 0 25.5 6t22.5 14l61 286h242l-7 -34q40 4 57.5 25t24.5 71h169q-18 -86 -51.5 -140.5t-90 -80.5t-142.5 -30l-60 -285h-227v27q-29 -16 -72 -26.5t-91 -10.5z" />
    <glyph glyph-name="uhungarumlaut" unicode="&#x171;" horiz-adv-x="626" 
d="M102 522l138 203h205l-156 -203h-187zM371 522l138 203h206l-157 -203h-187zM145 -10q-64 0 -102.5 34t-38.5 99q0 24 6 51l64 300h242l-58 -274q-1 -3 -1 -6v-5q0 -21 27 -21q11 0 25.5 6t22.5 14l61 286h242l-100 -474h-227v27q-29 -16 -72 -26.5t-91 -10.5z" />
    <glyph glyph-name="umacron" unicode="&#x16b;" horiz-adv-x="627" 
d="M204 562l30 140h348l-30 -140h-348zM145 -10q-64 0 -102.5 34t-38.5 99q0 24 6 51l64 300h242l-58 -274q-1 -3 -1 -6v-5q0 -21 27 -21q11 0 25.5 6t22.5 14l61 286h242l-100 -474h-227v27q-29 -16 -72 -26.5t-91 -10.5z" />
    <glyph glyph-name="uogonek" unicode="&#x173;" horiz-adv-x="627" 
d="M336 -220q-60 0 -94.5 19.5t-34.5 60.5q0 48 32 84.5t69 55.5v27q-29 -16 -72 -26.5t-91 -10.5q-64 0 -102.5 34t-38.5 99q0 24 6 51l64 300h242l-58 -274q-1 -3 -1 -6v-5q0 -21 27 -21q11 0 25.5 6t22.5 14l61 286h242l-100 -474h-82q-25 -16 -42.5 -35t-22.5 -41
q-1 -3 -1 -8q0 -13 11 -18t30 -5q13 0 28 3t25 8l-22 -106q-19 -6 -52 -12t-71 -6z" />
    <glyph glyph-name="uring" unicode="&#x16f;" horiz-adv-x="627" 
d="M365 522q-60 0 -92.5 31.5t-32.5 79.5q0 16 3 32q13 61 60 102.5t123 41.5q62 0 94.5 -31.5t32.5 -79.5q0 -8 -1 -16.5t-3 -16.5q-13 -60 -60.5 -101.5t-123.5 -41.5zM384 614q32 0 49 20t17 44q0 16 -10.5 27t-33.5 11q-32 0 -49 -20t-17 -44q0 -16 10.5 -27t33.5 -11z
M145 -10q-64 0 -102.5 34t-38.5 99q0 24 6 51l64 300h242l-58 -274q-1 -3 -1 -6v-5q0 -21 27 -21q11 0 25.5 6t22.5 14l61 286h242l-100 -474h-227v27q-29 -16 -72 -26.5t-91 -10.5z" />
    <glyph glyph-name="utilde" unicode="&#x169;" horiz-adv-x="627" 
d="M469 527q-36 0 -68.5 11t-62.5 22t-61 11q-34 0 -63 -11.5t-51 -29.5l30 141q18 14 48.5 24.5t61.5 10.5q37 0 67 -11l60 -22t64 -11q35 0 63 12.5t44 28.5l-30 -141q-13 -13 -41.5 -24t-60.5 -11zM145 -10q-64 0 -102.5 34t-38.5 99q0 24 6 51l64 300h242l-58 -274
q-1 -3 -1 -6v-5q0 -21 27 -21q11 0 25.5 6t22.5 14l61 286h242l-100 -474h-227v27q-29 -16 -72 -26.5t-91 -10.5z" />
    <glyph glyph-name="v" unicode="v" horiz-adv-x="657" 
d="M147 0l-88 474h245l15 -218l108 218h259l-288 -474h-251z" />
    <glyph glyph-name="w" unicode="w" horiz-adv-x="814" 
d="M85 0l-26 474h230l6 -162l49 88l15 74h174l8 -162l72 162h230l-226 -474h-206l-20 153l-84 -153h-222z" />
    <glyph glyph-name="wacute" unicode="&#x1e83;" horiz-adv-x="814" 
d="M368 522l144 226h186l-153 -226h-177zM85 0l-26 474h230l6 -162l49 88l15 74h174l8 -162l72 162h230l-226 -474h-206l-20 153l-84 -153h-222z" />
    <glyph glyph-name="wcircumflex" unicode="&#x175;" horiz-adv-x="814" 
d="M218 522l220 216h141l129 -216h-161l-54 107l-95 -107h-180zM85 0l-26 474h230l6 -162l49 88l15 74h174l8 -162l72 162h230l-226 -474h-206l-20 153l-84 -153h-222z" />
    <glyph glyph-name="wdieresis" unicode="&#x1e85;" horiz-adv-x="814" 
d="M274 552l30 141h155l-30 -141h-155zM508 552l30 141h156l-30 -141h-156zM85 0l-26 474h230l6 -162l49 88l15 74h174l8 -162l72 162h230l-226 -474h-206l-20 153l-84 -153h-222z" />
    <glyph glyph-name="wgrave" unicode="&#x1e81;" horiz-adv-x="814" 
d="M369 522l-57 226h186l48 -226h-177zM85 0l-26 474h230l6 -162l49 88l15 74h174l8 -162l72 162h230l-226 -474h-206l-20 153l-84 -153h-222z" />
    <glyph glyph-name="x" unicode="x" horiz-adv-x="652" 
d="M-47 0l235 241l-127 233h261l34 -62l60 62h261l-226 -233l134 -241h-264l-38 68l-66 -68h-264z" />
    <glyph glyph-name="y" unicode="y" horiz-adv-x="626" 
d="M138 -176q-16 0 -45 1.5t-57 4t-41 4.5l34 157q19 -5 49.5 -9t55.5 -4q83 0 126.5 14.5t47.5 34.5l4 16q-30 -16 -72.5 -26.5t-90.5 -10.5q-64 0 -102 35.5t-38 99.5q0 11 1 23.5t4 25.5l60 284h242l-55 -258q-1 -3 -1 -9q0 -23 28 -23q11 0 25.5 6t22.5 14l57 270h242
l-84 -396q-16 -78 -60.5 -135t-129.5 -88t-223 -31z" />
    <glyph glyph-name="yacute" unicode="&#xfd;" horiz-adv-x="626" 
d="M275 522l144 226h186l-153 -226h-177zM138 -176q-16 0 -45 1.5t-57 4t-41 4.5l34 157q19 -5 49.5 -9t55.5 -4q83 0 126.5 14.5t47.5 34.5l4 16q-30 -16 -72.5 -26.5t-90.5 -10.5q-64 0 -102 35.5t-38 99.5q0 11 1 23.5t4 25.5l60 284h242l-55 -258q-1 -3 -1 -9
q0 -23 28 -23q11 0 25.5 6t22.5 14l57 270h242l-84 -396q-16 -78 -60.5 -135t-129.5 -88t-223 -31z" />
    <glyph glyph-name="ycircumflex" unicode="&#x177;" horiz-adv-x="626" 
d="M121 522l220 216h141l129 -216h-161l-54 107l-95 -107h-180zM138 -176q-16 0 -45 1.5t-57 4t-41 4.5l34 157q19 -5 49.5 -9t55.5 -4q83 0 126.5 14.5t47.5 34.5l4 16q-30 -16 -72.5 -26.5t-90.5 -10.5q-64 0 -102 35.5t-38 99.5q0 11 1 23.5t4 25.5l60 284h242l-55 -258
q-1 -3 -1 -9q0 -23 28 -23q11 0 25.5 6t22.5 14l57 270h242l-84 -396q-16 -78 -60.5 -135t-129.5 -88t-223 -31z" />
    <glyph glyph-name="ydieresis" unicode="&#xff;" horiz-adv-x="626" 
d="M223 580l30 141h155l-30 -141h-155zM457 580l30 141h156l-30 -141h-156zM138 -176q-16 0 -45 1.5t-57 4t-41 4.5l34 157q19 -5 49.5 -9t55.5 -4q83 0 126.5 14.5t47.5 34.5l4 16q-30 -16 -72.5 -26.5t-90.5 -10.5q-64 0 -102 35.5t-38 99.5q0 11 1 23.5t4 25.5l60 284
h242l-55 -258q-1 -3 -1 -9q0 -23 28 -23q11 0 25.5 6t22.5 14l57 270h242l-84 -396q-16 -78 -60.5 -135t-129.5 -88t-223 -31z" />
    <glyph glyph-name="uni1E8F" unicode="&#x1e8f;" horiz-adv-x="626" 
d="M294 552l29 141h156l-30 -141h-155zM138 -176q-16 0 -45 1.5t-57 4t-41 4.5l34 157q19 -5 49.5 -9t55.5 -4q83 0 126.5 14.5t47.5 34.5l4 16q-30 -16 -72.5 -26.5t-90.5 -10.5q-64 0 -102 35.5t-38 99.5q0 11 1 23.5t4 25.5l60 284h242l-55 -258q-1 -3 -1 -9
q0 -23 28 -23q11 0 25.5 6t22.5 14l57 270h242l-84 -396q-16 -78 -60.5 -135t-129.5 -88t-223 -31z" />
    <glyph glyph-name="uni1EF5" unicode="&#x1ef5;" horiz-adv-x="626" 
d="M138 -176q-16 0 -45 1.5t-57 4t-41 4.5l34 157q19 -5 49.5 -9t55.5 -4q83 0 126.5 14.5t47.5 34.5l4 16q-30 -16 -72.5 -26.5t-90.5 -10.5q-64 0 -102 35.5t-38 99.5q0 11 1 23.5t4 25.5l60 284h242l-55 -258q-1 -3 -1 -9q0 -23 28 -23q11 0 25.5 6t22.5 14l57 270h242
l-84 -396q-16 -78 -60.5 -135t-129.5 -88t-223 -31zM463 -213l30 141h156l-30 -141h-156z" />
    <glyph glyph-name="ygrave" unicode="&#x1ef3;" horiz-adv-x="626" 
d="M275 522l-57 226h186l48 -226h-177zM138 -176q-16 0 -45 1.5t-57 4t-41 4.5l34 157q19 -5 49.5 -9t55.5 -4q83 0 126.5 14.5t47.5 34.5l4 16q-30 -16 -72.5 -26.5t-90.5 -10.5q-64 0 -102 35.5t-38 99.5q0 11 1 23.5t4 25.5l60 284h242l-55 -258q-1 -3 -1 -9
q0 -23 28 -23q11 0 25.5 6t22.5 14l57 270h242l-84 -396q-16 -78 -60.5 -135t-129.5 -88t-223 -31z" />
    <glyph glyph-name="uni1EF7" unicode="&#x1ef7;" horiz-adv-x="626" 
d="M281 522l17 81q50 3 70 13.5t23 25.5q7 28 -44 28q-30 0 -58 -10l20 94q26 7 58 11t75 4q65 0 98 -24.5t33 -62.5q0 -5 -0.5 -10t-1.5 -10q-10 -45 -34 -67.5t-70 -36.5l-8 -36h-178zM138 -176q-16 0 -45 1.5t-57 4t-41 4.5l34 157q19 -5 49.5 -9t55.5 -4
q83 0 126.5 14.5t47.5 34.5l4 16q-30 -16 -72.5 -26.5t-90.5 -10.5q-64 0 -102 35.5t-38 99.5q0 11 1 23.5t4 25.5l60 284h242l-55 -258q-1 -3 -1 -9q0 -23 28 -23q11 0 25.5 6t22.5 14l57 270h242l-84 -396q-16 -78 -60.5 -135t-129.5 -88t-223 -31z" />
    <glyph glyph-name="uni1EF9" unicode="&#x1ef9;" horiz-adv-x="626" 
d="M473 527q-36 0 -68.5 11t-62.5 22t-61 11q-34 0 -63 -11.5t-51 -29.5l30 141q18 14 48.5 24.5t61.5 10.5q37 0 67 -11l60 -22t64 -11q35 0 63 12.5t44 28.5l-30 -141q-13 -13 -41.5 -24t-60.5 -11zM138 -176q-16 0 -45 1.5t-57 4t-41 4.5l34 157q19 -5 49.5 -9t55.5 -4
q83 0 126.5 14.5t47.5 34.5l4 16q-30 -16 -72.5 -26.5t-90.5 -10.5q-64 0 -102 35.5t-38 99.5q0 11 1 23.5t4 25.5l60 284h242l-55 -258q-1 -3 -1 -9q0 -23 28 -23q11 0 25.5 6t22.5 14l57 270h242l-84 -396q-16 -78 -60.5 -135t-129.5 -88t-223 -31z" />
    <glyph glyph-name="z" unicode="z" horiz-adv-x="507" 
d="M-41 0l26 127l194 162h-154l39 185h463l-30 -140l-185 -160h159l-36 -174h-476z" />
    <glyph glyph-name="zacute" unicode="&#x17a;" horiz-adv-x="507" 
d="M210 522l144 226h186l-153 -226h-177zM-41 0l26 127l194 162h-154l39 185h463l-30 -140l-185 -160h159l-36 -174h-476z" />
    <glyph glyph-name="zcaron" unicode="&#x17e;" horiz-adv-x="511" 
d="M235 522l-129 216h165l51 -107l99 107h175l-221 -216h-140zM-31 0l26 127l194 162h-154l39 185h463l-30 -140l-185 -160h159l-36 -174h-476z" />
    <glyph glyph-name="zdotaccent" unicode="&#x17c;" horiz-adv-x="507" 
d="M231 552l29 141h156l-30 -141h-155zM-41 0l26 127l194 162h-154l39 185h463l-30 -140l-185 -160h159l-36 -174h-476z" />
    <glyph glyph-name="uni1E93" unicode="&#x1e93;" horiz-adv-x="507" 
d="M-41 0l26 127l194 162h-154l39 185h463l-30 -140l-185 -160h159l-36 -174h-476zM59 -213l30 141h156l-30 -141h-156z" />
    <glyph glyph-name="ordfeminine" unicode="&#xaa;" horiz-adv-x="332" 
d="M132 380q-33 0 -55 15t-22 49q0 11 3 24q18 89 133 89h59l1 3q2 16 -44 16q-21 0 -46.5 -3.5t-49.5 -10.5l15 72q24 9 59 14.5t66 5.5q64 0 95.5 -23t31.5 -63q0 -11 -3 -25l-33 -157h-118l-3 18q-15 -10 -37 -17t-52 -7zM198 453q11 0 18.5 3.5t13.5 8.5l6 25h-24
q-25 0 -29 -18q-1 -2 -1 -6q0 -13 16 -13z" />
    <glyph glyph-name="ordmasculine" unicode="&#xba;" horiz-adv-x="361" 
d="M204 380q-64 0 -102 26t-38 78q0 8 1.5 16t2.5 17q15 68 61 102.5t134 34.5q68 0 104 -25t36 -75q0 -20 -4 -37q-14 -68 -60 -102.5t-135 -34.5zM225 476q14 0 23.5 9t13.5 32q3 11 3 19q0 22 -23 22q-14 0 -23 -9t-14 -32q-1 -5 -1.5 -9.5t-0.5 -8.5q0 -23 22 -23z" />
    <glyph glyph-name="uni207F" unicode="&#x207f;" horiz-adv-x="346" 
d="M46 386l55 262h125l-1 -14q17 8 43.5 14t51.5 6q37 0 55.5 -18.5t18.5 -51.5q0 -12 -3 -29l-35 -169h-133l32 152v4q0 13 -15 13q-14 0 -29 -10l-33 -159h-132z" />
    <glyph glyph-name="uni0394" unicode="&#x394;" horiz-adv-x="633" 
d="M-41 0l26 125l315 519h190l97 -520l-26 -124h-602zM232 183h144l-34 179z" />
    <glyph glyph-name="uni03A9" unicode="&#x3a9;" horiz-adv-x="744" 
d="M-34 0l37 175h83q-55 54 -55 138q0 28 6 58q33 154 142.5 239t283.5 85q147 0 222.5 -61.5t75.5 -174.5q0 -20 -2.5 -42t-7.5 -46q-13 -60 -44 -110.5t-87 -85.5h83l-37 -175h-331l38 183q59 32 87.5 75t40.5 98q6 29 6 50q0 84 -87 84q-58 0 -91.5 -34.5t-47.5 -99.5
q-6 -28 -6 -55q0 -36 14 -65t46 -53l-38 -183h-331z" />
    <glyph glyph-name="uni03BC" unicode="&#x3bc;" horiz-adv-x="632" 
d="M-52 -143l131 617h242l-58 -274q-1 -3 -1 -6v-5q0 -21 27 -21q11 0 25.5 6t22.5 14l61 286h242l-100 -474h-227v27q-16 -15 -42.5 -26t-52.5 -11l-28 -133h-242z" />
    <glyph glyph-name="pi" unicode="&#x3c0;" horiz-adv-x="705" 
d="M494 -10q-84 0 -125 37.5t-41 103.5q0 25 6 55l20 93h-46l-59 -279h-242l59 279h-58l41 195h646l-41 -195h-58l-17 -80q-1 -3 -1 -6.5v-5.5q0 -30 39 -30q32 0 62 10l-32 -150q-34 -13 -70.5 -20t-82.5 -7z" />
    <glyph glyph-name="uni0E01" unicode="&#xe01;" horiz-adv-x="652" 
d="M-31 0l35 169q8 32 33.5 63t60.5 44l-75 29l33 155q57 33 138 61.5t175 28.5q93 0 151.5 -25t86 -67t27.5 -92q0 -10 -1 -20t-3 -21l-69 -325h-252l65 310q2 9 3 16t1 14q0 22 -13 32t-45 10q-22 0 -42.5 -4.5t-37.5 -11.5v-2l91 -36l-20 -95q-24 -7 -39.5 -24t-21.5 -46
l-34 -163h-247z" />
    <glyph glyph-name="uni0E02" unicode="&#xe02;" horiz-adv-x="619" 
d="M246 -10q-107 0 -171 45.5t-64 121.5q0 10 1 20t3 20l4 18q8 35 27 59.5t36.5 43t20.5 34.5q1 4 1 10q0 16 -22 16h-43l53 162h178q50 0 73.5 -19.5t23.5 -54.5q0 -13 -3 -30q-6 -29 -23 -54t-36.5 -46.5t-35.5 -42.5t-21 -43l-4 -19q-1 -4 -1.5 -7.5t-0.5 -7.5
q0 -31 46 -31q35 0 50 15.5t19 37.5l64 302h221l-72 -339q-22 -103 -100 -157t-224 -54z" />
    <glyph glyph-name="uni0E03" unicode="&#xe03;" horiz-adv-x="643" 
d="M270 -10q-72 0 -125.5 20t-83.5 55t-30 80q0 14 3 27l3 16q7 30 28.5 56.5t46.5 48t44.5 39t22.5 30.5q1 3 1 8q0 11 -13 11q-9 0 -19 -10l-8 -37h-111l44 206h128l-6 -28q16 9 48 18.5t61 9.5q48 0 72.5 -20t24.5 -56q0 -13 -3 -28q-8 -37 -27 -64.5t-41 -49.5
t-39 -41.5t-21 -39.5l-2 -10q-1 -4 -1.5 -7.5t-0.5 -7.5q0 -31 46 -31q29 0 47 15.5t22 37.5l64 302h221l-72 -339q-22 -103 -101 -157t-223 -54z" />
    <glyph glyph-name="uni0E04" unicode="&#xe04;" horiz-adv-x="664" 
d="M-21 0l65 306q27 129 117 186.5t231 57.5q120 0 186 -51.5t66 -139.5q0 -24 -6 -53l-65 -306h-242l60 285q2 8 3 15t1 13q0 18 -10.5 25t-35.5 7q-30 0 -45 -12.5t-23 -47.5l-6 -26q11 5 24 7t25 2h36l-36 -166h-39q-25 0 -45 -9l-19 -93h-242z" />
    <glyph glyph-name="uni0E05" unicode="&#xe05;" horiz-adv-x="664" 
d="M-21 0l83 393q15 71 61.5 114t133.5 43q35 0 69 -11.5t55 -39.5q32 28 72 39.5t75 11.5q66 0 99.5 -30.5t33.5 -83.5q0 -10 -1.5 -21t-3.5 -22l-83 -393h-242l66 314q3 12 3 20q0 11 -13 11q-8 0 -14 -5t-11 -13h-34q-2 8 -4.5 13t-11.5 5q-11 0 -16 -7t-9 -24l-12 -55
q23 9 47 9h38l-36 -166h-39q-10 0 -22 -2.5t-23 -7.5l-19 -92h-242z" />
    <glyph glyph-name="uni0E06" unicode="&#xe06;" horiz-adv-x="658" 
d="M377 -10q-51 0 -89 12.5t-62 29.5l-13 -32h-225l32 152q8 39 32.5 71t52.5 58t49.5 46t24.5 35q1 3 1 8q0 11 -13 11q-9 0 -19 -10l-8 -37h-111l44 206h149l-6 -28q19 10 46.5 19t59.5 9q42 0 66 -22t24 -59q0 -7 -1 -14t-3 -15q-12 -52 -31.5 -83t-41 -50.5t-38.5 -38.5
t-23 -48l-5 -22q5 -8 22.5 -14t27.5 -6q46 0 56 44l69 328h237l-78 -366q-21 -97 -80 -140.5t-146 -43.5z" />
    <glyph glyph-name="uni0E07" unicode="&#xe07;" horiz-adv-x="598" 
d="M217 -10q-34 0 -79 6t-74 18l-65 369h224l41 -231q26 11 45.5 45.5t30.5 86.5q4 19 4 35q0 31 -16.5 43.5t-46.5 12.5h-36l35 165h92q107 0 165.5 -47.5t58.5 -136.5q0 -33 -9 -71q-35 -155 -130 -225t-240 -70z" />
    <glyph glyph-name="uni0E08" unicode="&#xe08;" horiz-adv-x="579" 
d="M223 -10q-40 0 -80 6.5t-58 16.5l-24 150h-68l44 166h196l26 -157q20 14 35.5 37.5t24.5 63.5q2 12 3.5 23t1.5 20q0 35 -23.5 51.5t-82.5 16.5q-39 0 -87.5 -7.5t-95.5 -19.5l33 155q62 20 128 29t118 9q134 0 197 -52.5t63 -146.5q0 -37 -9 -79q-20 -94 -71 -157
t-121 -94t-150 -31z" />
    <glyph glyph-name="uni0E09" unicode="&#xe09;" horiz-adv-x="628" 
d="M142 -10q-68 0 -108 37t-40 100q0 11 1 23t4 24l27 126h242l-18 -88q-1 -5 -1.5 -9.5t-0.5 -8.5q0 -26 33 -26q16 0 30.5 6t22.5 14l19 85q2 12 3.5 22.5t1.5 19.5q0 38 -26 53.5t-86 15.5q-26 0 -64 -3.5t-77.5 -9.5t-70.5 -14l33 155q62 20 136.5 29t138.5 9
q137 0 199.5 -49t62.5 -144q0 -41 -10 -85l-57 -272h-225l-1 32q-31 -17 -74.5 -29.5t-94.5 -12.5z" />
    <glyph glyph-name="uni0E0A" unicode="&#xe0a;" horiz-adv-x="636" 
d="M254 -10q-117 0 -181 43.5t-64 116.5q0 10 1.5 20t3.5 20l4 18q8 37 27 63.5t37 45.5t21 35q1 4 1 10q0 16 -22 16h-43l53 162h168q48 0 72.5 -20t24.5 -57q0 -12 -3 -27q-7 -33 -22.5 -57.5t-33 -45t-32 -41t-19.5 -45.5l-4 -17q-1 -4 -1 -10q0 -35 54 -35q31 0 51 11.5
t24 33.5l4 18q1 4 1.5 7t0.5 6q0 29 -31 29h-19l44 162h12q22 0 31.5 12.5t16.5 46.5l8 39h221l-6 -31q-10 -52 -30.5 -88.5t-60.5 -59.5q20 -16 28 -39.5t8 -48.5q0 -10 -1 -19.5t-3 -19.5l-8 -39q-19 -97 -103 -156t-230 -59z" />
    <glyph glyph-name="uni0E0B" unicode="&#xe0b;" horiz-adv-x="634" 
d="M260 -10q-69 0 -123.5 17t-85.5 50.5t-31 81.5q0 8 1.5 16t2.5 17l3 16q7 30 27 56.5t43.5 48t41 39t20.5 30.5q1 3 1 8q0 11 -13 11q-9 0 -19 -10l-8 -37h-101l44 206h128l-6 -28q16 9 43.5 18.5t60.5 9.5q38 0 59.5 -22.5t21.5 -57.5q0 -12 -3 -24q-8 -41 -24 -70
t-34 -50t-31.5 -38.5t-17.5 -36.5l-2 -10q-1 -4 -1.5 -7.5t-0.5 -7.5q0 -31 46 -31q35 0 50 15.5t19 37.5l5 23q2 5 2 10v9q0 23 -23 23h-13l41 149h9q17 0 25.5 11t15.5 48l8 39h217l-6 -31q-11 -52 -31 -88.5t-60 -59.5q20 -16 28 -38.5t8 -48.5q0 -10 -1 -19.5t-3 -20.5
l-9 -43q-13 -65 -57 -112.5t-112 -73t-155 -25.5z" />
    <glyph glyph-name="uni0E0C" unicode="&#xe0c;" horiz-adv-x="960" 
d="M679 -10q-51 0 -86.5 12.5t-59.5 29.5l-13 -32h-220l65 310q2 9 3 16t1 14q0 23 -13 32.5t-40 9.5q-22 0 -40.5 -4.5t-35.5 -11.5v-2l91 -36l-20 -95q-49 -15 -59 -59l-1 -9q-1 -3 -1 -8q0 -17 20 -17h23l-29 -140h-188q-43 0 -65.5 21t-22.5 56q0 12 3 27l13 65
q8 32 33.5 63t60.5 44l-75 29l33 155q57 33 133.5 61.5t175.5 28.5q88 0 142 -23.5t79 -63t25 -89.5q0 -12 -1 -24t-4 -25l-30 -137q5 -8 18 -14t27 -6q41 0 51 44l69 328h242l-78 -366q-12 -60 -45.5 -101t-80 -62t-100.5 -21z" />
    <glyph glyph-name="uni0E0D" unicode="&#xe0d;" horiz-adv-x="971" 
d="M605 -90q-47 0 -97 7.5t-91 19.5t-61 24l31 147q22 -14 62.5 -26t85 -19.5t76.5 -7.5q56 0 80.5 9.5t27.5 22.5v4q0 5 -3 11q-26 -6 -59 -8.5t-62 -2.5q-109 0 -171 47t-62 129q0 11 1 21.5t3 20.5l2 11q3 15 3 27q0 19 -11.5 27t-43.5 8q-22 0 -40.5 -4.5t-35.5 -11.5
v-2l91 -36l-20 -95q-24 -7 -40 -21t-19 -38l-1 -9v-7q0 -18 19 -18h23l-29 -140h-188q-43 0 -65.5 21.5t-22.5 57.5q0 12 3 25l13 65q7 32 33 63t61 44l-75 29l33 155q56 34 135.5 62t173.5 28q88 0 142.5 -26t80 -66t25.5 -83q0 -10 -1 -20t-4 -20l-3 -11q-4 -13 -4 -26
q0 -34 42 -34q32 0 43.5 13.5t18.5 46.5l46 216h242l-48 -227q-16 -75 -66 -125q13 -15 20.5 -36t7.5 -46q0 -8 -1 -17t-3 -18q-11 -55 -43.5 -90.5t-94 -53t-160.5 -17.5z" />
    <glyph glyph-name="uni0E0D.less" horiz-adv-x="970" 
d="M584 -10q-110 0 -174.5 53.5t-64.5 144.5q0 26 6 56l14 66q2 9 3 17t1 15q0 22 -12 31t-41 9q-22 0 -40.5 -4.5t-35.5 -11.5v-2l91 -36l-20 -95q-49 -15 -59 -59l-1 -9q-1 -3 -1 -8q0 -17 20 -17h23l-29 -140h-188q-40 0 -64 21.5t-24 57.5q0 12 3 25l13 65q8 32 33.5 63
t60.5 44l-75 29l33 155q57 33 136 61.5t173 28.5q93 0 147 -23.5t77 -62.5t23 -87q0 -25 -6 -52l-15 -70q-2 -11 -3.5 -20t-1.5 -16q0 -19 9.5 -26.5t30.5 -7.5q29 0 43 16t22 54l60 285h242l-63 -296q-27 -129 -118.5 -191.5t-227.5 -62.5z" />
    <glyph glyph-name="uni0E0E" unicode="&#xe0e;" horiz-adv-x="675" 
d="M35 -200l35 167q43 15 83 22t91 7q22 0 48.5 -3t36.5 -7l68 324q2 9 3 16t1 14q0 22 -13 32t-45 10q-22 0 -42.5 -4.5t-37.5 -11.5v-2l91 -36l-20 -95q-22 -7 -31.5 -20t-14.5 -36l-15 -73q-10 -46 -45 -75t-93 -29h-176l31 150h20q26 0 31 25l2 11q7 32 25 54.5t53 35.5
l-75 29l33 155q57 33 138 61.5t175 28.5q95 0 153.5 -25t85.5 -66.5t27 -90.5q0 -20 -5 -43l-111 -519h-210q-26 14 -56.5 21t-75.5 7q-40 0 -83.5 -8.5t-81.5 -25.5z" />
    <glyph glyph-name="uni0E0E.short" horiz-adv-x="675" 
d="M50 -130l32 149q42 15 82 22t91 7q22 0 48.5 -3t36.5 -7l57 272q2 9 3 16t1 14q0 22 -13 32t-45 10q-22 0 -42.5 -4.5t-37.5 -11.5v-2l91 -36l-20 -95q-22 -7 -31.5 -20t-14.5 -36l-5 -23q-10 -46 -49 -75t-89 -29h-176l27 125h20q25 0 30 25l1 5q5 23 23 45.5t52 30.5
l-75 29l32 150q57 33 138 61.5t175 28.5q93 0 151.5 -25.5t86 -67t27.5 -91.5q0 -22 -4 -41l-96 -449h-210q-26 14 -56.5 21t-75.5 7q-40 0 -83.5 -8.5t-81.5 -25.5z" />
    <glyph glyph-name="uni0E0F" unicode="&#xe0f;" horiz-adv-x="675" 
d="M351 -201q-61 0 -99 14t-59 30q-22 -18 -52.5 -27t-73.5 -9h-79l45 151h42q23 0 34.5 7.5t18.5 22.5h141q0 -30 28 -30q25 0 32 31l68 321q2 9 3 16t1 14q0 22 -13 32t-45 10q-22 0 -42.5 -4.5t-37.5 -11.5v-2l91 -36l-20 -95q-22 -7 -31.5 -20t-14.5 -36l-15 -73
q-10 -46 -49 -75t-89 -29h-176l31 150h20q26 0 31 25l2 11q7 32 25 54.5t53 35.5l-75 29l33 155q57 33 138 61.5t175 28.5q91 0 149.5 -25.5t87 -67.5t28.5 -92q0 -10 -1 -20t-3 -20l-70 -328q-12 -59 -39.5 -104t-74 -69.5t-118.5 -24.5z" />
    <glyph glyph-name="uni0E0F.short" horiz-adv-x="675" 
d="M365 -132q-61 0 -98.5 14t-58.5 30q-22 -18 -52.5 -27t-73.5 -9h-79l40 133h42q23 0 35 7.5t19 22.5h141q0 -30 27 -30q26 0 33 31l57 270q2 9 3 16t1 14q0 22 -13 32t-45 10q-22 0 -42.5 -4.5t-37.5 -11.5v-2l91 -36l-20 -95q-22 -7 -31.5 -20t-14.5 -36l-5 -23
q-10 -46 -49 -75t-89 -29h-176l27 125h20q25 0 30 25l1 5q5 23 23 45.5t52 30.5l-75 29l32 150q57 33 138 61.5t175 28.5q92 0 150.5 -25.5t86.5 -67.5t28 -92q0 -10 -1 -19.5t-3 -20.5l-55 -259q-12 -56 -43 -101t-78.5 -71t-111.5 -26z" />
    <glyph glyph-name="uni0E10" unicode="&#xe10;" horiz-adv-x="620" 
d="M223 -10q-40 0 -80 6.5t-58 16.5l-24 150h-68l44 166h196l26 -157q20 14 36 37.5t24 63.5q6 26 6 44q0 35 -24 51t-83 16q-39 0 -87.5 -7.5t-95.5 -19.5l33 155q62 20 128 29t118 9q29 0 54.5 -2.5t47.5 -7.5h252l-47 -166h-58q8 -26 8 -52q0 -24 -6 -50
q-20 -94 -71 -157t-121 -94t-150 -31zM254 -224q-83 0 -124 35q-20 -17 -46.5 -25.5t-50.5 -8.5h-114l41 158h80q21 0 31 5.5t17 21.5h133q1 -12 8 -22.5t27 -10.5q17 0 28.5 9t14.5 22l5 24h185l-6 -29q-10 -48 -37.5 -89t-74.5 -65.5t-117 -24.5z" />
    <glyph glyph-name="uni0E10.less" horiz-adv-x="620" 
d="M223 -10q-40 0 -80 6.5t-58 16.5l-24 150h-68l44 166h196l26 -157q20 14 35.5 37.5t24.5 63.5q2 11 3 20.5t1 17.5q0 38 -24.5 55.5t-80.5 17.5q-39 0 -87.5 -7.5t-95.5 -19.5l33 155q62 20 128 29t118 9q33 0 61 -3t52 -8h241l-47 -166h-46q2 -48 -10 -101
q-15 -71 -50 -124t-83 -88t-102 -52.5t-107 -17.5z" />
    <glyph glyph-name="uni0E11" unicode="&#xe11;" horiz-adv-x="649" 
d="M0 0l30 145q9 42 31.5 75t48.5 58.5t46 46t23 37.5q1 3 1 7q0 12 -13 12q-9 0 -19 -10l-8 -37h-111l44 206h128l-6 -28q16 9 43 18.5t56 9.5q20 0 39.5 -5.5t33.5 -16.5q22 14 56.5 23t69.5 9q71 0 109 -37.5t38 -99.5q0 -11 -1 -22.5t-4 -24.5l-77 -366h-241l78 368
q0 2 0.5 3t0.5 2q0 8 -10 8q-8 0 -13 -5q-9 -44 -22 -70.5t-28 -46.5t-28 -45t-22 -67l-31 -147h-242z" />
    <glyph glyph-name="uni0E12" unicode="&#xe12;" horiz-adv-x="1012" 
d="M199 -10q-52 0 -96.5 18.5t-71.5 59t-27 107.5q0 37 9 80q32 152 101.5 223.5t170.5 71.5q37 0 63 -11.5t46 -39.5q32 28 73 39.5t76 11.5q68 0 102.5 -28.5t34.5 -77.5q0 -18 -4 -34l-48 -222q5 -8 20 -14t25 -6q41 0 51 44l69 328h242l-78 -366q-19 -90 -76 -137
t-150 -47q-48 0 -85 12.5t-61 29.5l-13 -32h-214l65 309q3 11 3 19q0 17 -18 17q-8 0 -16.5 -5t-13.5 -13h-46q-2 8 -6.5 13t-13.5 5q-15 0 -30 -22.5t-24 -67.5q-4 -18 -6.5 -32.5t-2.5 -25.5q0 -20 11.5 -30t40.5 -10q28 0 52 9l-33 -154q-22 -10 -52.5 -16t-68.5 -6z" />
    <glyph glyph-name="uni0E13" unicode="&#xe13;" horiz-adv-x="965" 
d="M484 -10q-72 0 -112.5 36t-40.5 100q0 11 1 23t4 25l29 136q5 22 5 34q0 20 -12 29t-42 9q-22 0 -40.5 -4.5t-35.5 -11.5v-2l91 -36l-20 -95q-49 -15 -59 -59l-1 -9q-1 -3 -1 -8q0 -17 20 -17h23l-29 -140h-188q-43 0 -65.5 21t-22.5 56q0 12 3 27l13 65q8 32 33.5 63
t60.5 44l-75 29l33 155q57 33 136 61.5t173 28.5q89 0 144 -23.5t81 -63.5t26 -90q0 -12 -1 -24t-4 -24l-24 -113q-1 -4 -1.5 -8.5t-0.5 -8.5q0 -27 33 -27q11 0 28 6t25 14l75 352h242l-114 -540h-225l-1 32q-31 -17 -72 -29.5t-92 -12.5z" />
    <glyph glyph-name="uni0E14" unicode="&#xe14;" horiz-adv-x="667" 
d="M199 -10q-55 0 -99.5 18.5t-71 58t-26.5 102.5q0 35 9 77q22 100 67 167.5t123.5 102t199.5 34.5q87 0 142 -24.5t81 -65t26 -89.5q0 -10 -1 -20t-3 -21l-70 -330h-231l60 283q3 12 3 22q0 17 -12 28.5t-44 11.5q-38 0 -60.5 -23t-33.5 -76q-6 -30 -6 -48q0 -23 11 -32
t38 -9q28 0 52 9l-33 -154q-22 -10 -52.5 -16t-68.5 -6z" />
    <glyph glyph-name="uni0E15" unicode="&#xe15;" horiz-adv-x="680" 
d="M199 -10q-54 0 -98.5 18.5t-70.5 59t-26 105.5q0 37 9 82q32 152 103 223.5t169 71.5q37 0 63 -11.5t46 -39.5q32 28 73 39.5t76 11.5q63 0 99.5 -30.5t36.5 -80.5q0 -14 -3 -29l-87 -410h-231l65 309q3 11 3 19q0 17 -18 17q-8 0 -16.5 -5t-13.5 -13h-46q-2 8 -6.5 13
t-13.5 5q-15 0 -30 -22.5t-24 -67.5q-3 -15 -5 -27.5t-2 -23.5q0 -24 11.5 -35.5t38.5 -11.5q28 0 52 9l-33 -154q-22 -10 -52.5 -16t-68.5 -6z" />
    <glyph glyph-name="uni0E16" unicode="&#xe16;" horiz-adv-x="652" 
d="M76 0q-43 0 -65.5 21t-22.5 56q0 12 3 27l13 65q8 32 33.5 63t60.5 44l-75 29l33 155q57 33 138 61.5t175 28.5q99 0 157 -25.5t83.5 -66.5t25.5 -89q0 -10 -1.5 -21.5t-3.5 -22.5l-69 -325h-252l65 310q2 9 3 16.5t1 14.5q0 23 -13 32t-45 9q-22 0 -42.5 -4.5
t-37.5 -11.5v-2l91 -36l-20 -95q-49 -15 -59 -59l-1 -9q-1 -3 -1 -8q0 -17 20 -17h23l-29 -140h-188z" />
    <glyph glyph-name="uni0E17" unicode="&#xe17;" horiz-adv-x="654" 
d="M-21 0l114 540h225v-32q32 17 77.5 29.5t96.5 12.5q78 0 116 -36t38 -97q0 -24 -6 -51l-77 -366h-242l69 328q1 4 1.5 7.5t0.5 6.5q0 30 -38 30q-10 0 -30 -6t-29 -14l-74 -352h-242z" />
    <glyph glyph-name="uni0E18" unicode="&#xe18;" horiz-adv-x="567" 
d="M230 -10q-76 0 -144 13.5t-110 35.5l37 176h201l-12 -57q7 -3 23.5 -4.5t26.5 -1.5q54 0 59 26q3 14 -16.5 23t-55 17.5t-80.5 19.5q-57 14 -89.5 44t-32.5 75q0 14 3 27q10 51 42 88t97 57.5t174 20.5q77 0 134.5 -7.5t85.5 -16.5l-33 -157q-19 9 -49.5 15.5t-62.5 10
t-57 3.5q-34 0 -58 -1.5t-27 -15.5q-1 -8 23 -16.5t58.5 -17t64.5 -17.5q56 -16 80.5 -43t24.5 -70q0 -10 -1 -21.5t-4 -23.5q-19 -90 -89.5 -136t-212.5 -46z" />
    <glyph glyph-name="uni0E19" unicode="&#xe19;" horiz-adv-x="654" 
d="M163 -10q-66 0 -109.5 38t-43.5 103q0 11 1.5 21.5t3.5 21.5l78 366h242l-69 -328q-1 -4 -1.5 -8t-0.5 -7q0 -29 38 -29q11 0 30.5 6t27.5 14l75 352h242l-114 -540h-225l-1 32q-31 -17 -77 -29.5t-97 -12.5z" />
    <glyph glyph-name="uni0E1A" unicode="&#xe1a;" horiz-adv-x="664" 
d="M273 -10q-115 0 -181.5 54t-66.5 146q0 27 6 57l62 293h242l-60 -285q-2 -10 -3.5 -19t-1.5 -16q0 -19 10 -27t35 -8q35 0 48.5 16t21.5 54l60 285h242l-63 -296q-18 -86 -58 -142.5t-111 -84t-182 -27.5z" />
    <glyph glyph-name="uni0E1B" unicode="&#xe1b;" horiz-adv-x="664" 
d="M273 -10q-115 0 -181.5 54t-66.5 146q0 27 6 57l62 293h242l-60 -285q-2 -10 -3.5 -19t-1.5 -16q0 -19 10 -27t35 -8q35 0 48.5 16t21.5 54l94 445h242l-97 -456q-18 -86 -58 -142.5t-111 -84t-182 -27.5z" />
    <glyph glyph-name="uni0E1C" unicode="&#xe1c;" horiz-adv-x="660" 
d="M-21 0l95 450q8 36 32.5 63t63.5 27h190l-21 -138h-41q-27 0 -33 -29l-19 -90l71 92h72l33 -92l54 257h207l-114 -540h-195l-57 170l-129 -170h-209z" />
    <glyph glyph-name="uni0E1D" unicode="&#xe1d;" horiz-adv-x="660" 
d="M-21 0l95 450q8 36 32.5 63t63.5 27h190l-21 -138h-41q-27 0 -33 -29l-19 -90l71 92h72l33 -92l88 417h207l-148 -700h-195l-57 170l-129 -170h-209z" />
    <glyph glyph-name="uni0E1E" unicode="&#xe1e;" horiz-adv-x="757" 
d="M70 0l-7 540h210l7 -212l37 90l26 122h168v-212l90 212h209l-235 -540h-189l-18 178l-96 -178h-202z" />
    <glyph glyph-name="uni0E1F" unicode="&#xe1f;" horiz-adv-x="757" 
d="M70 0l-7 540h200l7 -222l37 100l26 122h168v-222l153 382h209l-288 -700h-189l-18 178l-96 -178h-202z" />
    <glyph glyph-name="uni0E20" unicode="&#xe20;" horiz-adv-x="675" 
d="M-41 0l31 150h20q26 0 31 25l2 11q6 31 24.5 54t53.5 36l-75 29l33 155q57 33 138 61.5t175 28.5q98 0 156.5 -25t84 -66t25.5 -89q0 -11 -1.5 -22.5t-3.5 -22.5l-69 -325h-252l65 310q2 9 3 16t1 14q0 22 -13 32t-45 10q-22 0 -42.5 -4.5t-37.5 -11.5v-2l91 -36l-20 -95
q-22 -7 -31.5 -20t-14.5 -36l-15 -73q-10 -46 -44.5 -75t-84.5 -29h-185z" />
    <glyph glyph-name="uni0E21" unicode="&#xe21;" horiz-adv-x="654" 
d="M373 -10q-51 0 -91.5 12.5t-64.5 29.5l-13 -32h-225l114 540h242l-75 -352q5 -8 22.5 -14t27.5 -6q46 0 56 44l69 328h242l-78 -366q-19 -90 -76 -137t-150 -47z" />
    <glyph glyph-name="uni0E22" unicode="&#xe22;" horiz-adv-x="657" 
d="M261 -10q-138 0 -203 42.5t-65 111.5q0 8 1 17t3 19q7 32 24.5 57.5t40.5 41.5q-10 12 -17 28t-7 38q0 8 1.5 16t2.5 17q37 172 254 172q38 0 68 -5t48 -13l-28 -132q-23 5 -47 5q-49 0 -49 -34q0 -19 26 -19h44l-29 -140h-45q-33 0 -38 -28q-3 -14 7 -23t43 -9
q61 0 70 50l72 338h242l-71 -336q-22 -106 -106 -160t-242 -54z" />
    <glyph glyph-name="uni0E23" unicode="&#xe23;" horiz-adv-x="507" 
d="M180 -10q-68 0 -125.5 10t-86.5 24l33 158q22 -11 52 -20.5t60.5 -14.5t51.5 -5q29 0 43.5 5t14.5 18q0 17 -27 26.5t-68 27.5q-48 21 -71 48t-23 67q0 10 1 20.5t4 22.5q16 76 85 124.5t207 48.5q36 0 72.5 -3.5t68 -9t49.5 -11.5l-33 -157q-29 14 -67 21.5t-66 7.5
q-29 0 -48 -4t-21 -17q-4 -17 20.5 -26.5t66.5 -26.5q56 -22 79.5 -47.5t23.5 -66.5q0 -22 -6 -49q-11 -50 -44 -88.5t-93 -60.5t-153 -22z" />
    <glyph glyph-name="uni0E24" unicode="&#xe24;" horiz-adv-x="652" 
d="M274 -160l100 470q2 9 3 16t1 14q0 22 -13 32t-45 10q-22 0 -42.5 -4.5t-37.5 -11.5v-2l91 -36l-20 -95q-24 -7 -40 -21t-19 -38l-1 -9v-7q0 -18 19 -18h23l-29 -140h-188q-40 0 -63.5 22t-23.5 59q0 5 0.5 11t1.5 12l13 65q7 32 33 63t61 44l-75 29l33 155
q57 33 136.5 61.5t176.5 28.5q95 0 153.5 -26.5t85 -68.5t26.5 -90q0 -10 -1 -20t-3 -20l-104 -485h-252z" />
    <glyph glyph-name="uni0E24.short" horiz-adv-x="652" 
d="M285 -110l89 420q2 9 3 16t1 14q0 22 -13 32t-45 10q-22 0 -42.5 -4.5t-37.5 -11.5v-2l91 -36l-20 -95q-49 -15 -59 -59l-1 -9q-1 -3 -1 -8q0 -17 20 -17h23l-29 -140h-188q-43 0 -65.5 21t-22.5 56q0 12 3 27l13 65q8 32 33.5 63t60.5 44l-75 29l33 155q57 33 138 61.5
t175 28.5q95 0 153 -27.5t85 -70.5t27 -90q0 -9 -1 -18.5t-3 -18.5l-93 -435h-252z" />
    <glyph glyph-name="uni0E25" unicode="&#xe25;" horiz-adv-x="621" 
d="M149 -10q-44 0 -80.5 13.5t-58 43t-21.5 76.5q0 11 1 22t4 24q20 90 87.5 135t172.5 45h119l2 11q2 13 -18.5 20t-70.5 7q-43 0 -96 -7.5t-100 -21.5l32 154q33 12 75.5 20.5t88.5 13t87 4.5q111 0 170.5 -46.5t59.5 -130.5q0 -27 -6 -57l-67 -316h-231l44 208h-50
q-25 0 -37 -8t-17 -30q-1 -3 -1.5 -6t-0.5 -6q0 -12 8 -17.5t20 -5.5q15 0 35 5l-28 -132q-21 -7 -53 -12.5t-70 -5.5z" />
    <glyph glyph-name="uni0E26" unicode="&#xe26;" horiz-adv-x="675" 
d="M297 -160l100 470q2 9 3 17t1 15q0 21 -13 30.5t-45 9.5q-22 0 -42.5 -4.5t-37.5 -11.5v-2l91 -36l-20 -95q-22 -7 -31.5 -20t-14.5 -36l-15 -73q-10 -46 -44.5 -75t-84.5 -29h-185l31 150h20q26 0 31 25l2 11q6 32 24.5 54.5t53.5 35.5l-75 29l33 155q57 33 138 61.5
t175 28.5q95 0 153.5 -27t85 -69.5t26.5 -89.5q0 -10 -1 -19.5t-3 -19.5l-104 -485h-252z" />
    <glyph glyph-name="uni0E26.short" horiz-adv-x="675" 
d="M308 -110l89 420q2 9 3 16t1 14q0 22 -13 32t-45 10q-22 0 -42.5 -4.5t-37.5 -11.5v-2l91 -36l-20 -95q-22 -7 -31.5 -20t-14.5 -36l-15 -73q-10 -46 -44.5 -75t-84.5 -29h-185l31 150h20q16 0 22.5 7t8.5 18l2 11q7 32 25 54.5t53 35.5l-75 29l33 155q57 33 138 61.5
t175 28.5q95 0 153.5 -25t85.5 -66t27 -91q0 -10 -1.5 -21t-3.5 -22l-93 -435h-252z" />
    <glyph glyph-name="uni0E27" unicode="&#xe27;" horiz-adv-x="552" 
d="M179 -10q-64 0 -117 9t-97 31l44 208q33 -19 74.5 -31t78.5 -12q62 0 90.5 14.5t38.5 60.5q3 12 3 23q0 32 -25.5 42t-72.5 10q-39 0 -83.5 -8t-85.5 -26l42 199q52 20 111.5 30t119.5 10q119 0 183 -47.5t64 -148.5q0 -39 -9 -84q-21 -101 -64.5 -162.5t-115.5 -89.5
t-179 -28z" />
    <glyph glyph-name="uni0E28" unicode="&#xe28;" horiz-adv-x="692" 
d="M-21 0l65 306q27 129 117 186.5t231 57.5q26 0 49 -2.5t44 -7.5h255l-47 -166h-57q6 -16 6 -35q0 -8 -1 -16.5t-3 -16.5l-65 -306h-242l60 285q2 8 3 15t1 13q0 18 -10.5 25t-35.5 7q-30 0 -45 -12.5t-23 -47.5l-6 -26q11 5 24 7t25 2h36l-36 -166h-39q-25 0 -45 -9
l-19 -93h-242z" />
    <glyph glyph-name="uni0E29" unicode="&#xe29;" horiz-adv-x="676" 
d="M273 -10q-115 0 -181.5 54t-66.5 146q0 27 6 57l62 293h242l-60 -285q-2 -10 -3.5 -19t-1.5 -16q0 -19 10 -27t35 -8q35 0 48.5 16t21.5 54l2 13h-59l36 166h58l23 106h242l-23 -106h47l-50 -166h-32l-5 -24q-18 -86 -58 -142.5t-111 -84t-182 -27.5z" />
    <glyph glyph-name="uni0E2A" unicode="&#xe2a;" horiz-adv-x="649" 
d="M149 -10q-44 0 -80.5 13.5t-58 43t-21.5 76.5q0 11 1 22t4 24q20 90 87.5 135t172.5 45h119l2 11q2 13 -18.5 20t-70.5 7q-43 0 -96 -7.5t-100 -21.5l32 154q33 12 75.5 20.5t88.5 13t87 4.5q26 0 49 -2.5t43 -7.5h232l-47 -166h-54q2 -6 3 -14t1 -17q0 -13 -3 -27
l-67 -316h-231l44 208h-50q-25 0 -37 -8t-17 -30q-1 -3 -1.5 -6t-0.5 -6q0 -12 8 -17.5t20 -5.5q15 0 35 5l-28 -132q-21 -7 -53 -12.5t-70 -5.5z" />
    <glyph glyph-name="uni0E2B" unicode="&#xe2b;" horiz-adv-x="639" 
d="M-21 0l114 540h242l-28 -131h43q23 0 35 12.5t16 34.5l18 84h242l-23 -110q-7 -36 -26 -65.5t-49 -46.5q32 -22 32 -71q0 -19 -4 -38l-44 -209h-242l37 177q1 5 1.5 9t0.5 8q0 30 -33 30h-43l-47 -224h-242z" />
    <glyph glyph-name="uni0E2C" unicode="&#xe2c;" horiz-adv-x="757" 
d="M70 0l-7 540h205l7 -222l40 100l13 59h162l16 -159l41 113q5 14 8.5 24.5t3.5 18.5q0 30 -44 30h-20l47 122h34q31 0 47 12.5t27 38.5l10 23h208l-21 -48q-34 -77 -95 -96q22 -16 22 -47q0 -15 -5 -32.5t-14 -39.5l-180 -437h-189l-18 178l-96 -178h-202z" />
    <glyph glyph-name="uni0E2C.short" horiz-adv-x="757" 
d="M69 0l-6 540h210l-13 -319l55 99l9 41h146l16 -140l41 110q11 27 8 39t-16.5 14.5t-35.5 2.5h-20l35 112h34q31 0 48 12.5t27 38.5l13 33h207l-20 -47q-16 -37 -36 -53.5t-52 -26.5q21 -16 22.5 -45t-18.5 -74l-149 -337h-196l-26 135l-88 -135h-195z" />
    <glyph glyph-name="uni0E2D" unicode="&#xe2d;" horiz-adv-x="615" 
d="M228 -10q-47 0 -95.5 6t-90.5 17.5t-70 25.5l61 289h276l-21 -138h-68l-7 -33q10 -3 22 -4t24 -1q42 0 62 28.5t32 85.5q6 27 6 46q0 43 -27.5 57.5t-82.5 14.5q-40 0 -96 -7t-108 -22l33 157q42 13 89.5 21.5t93.5 12.5t81 4q132 0 199 -53.5t67 -154.5q0 -17 -2 -36.5
t-6 -39.5q-18 -92 -58 -153.5t-115 -92t-199 -30.5z" />
    <glyph glyph-name="uni0E2E" unicode="&#xe2e;" horiz-adv-x="658" 
d="M228 -10q-47 0 -95.5 6t-90.5 17.5t-70 25.5l61 289h276l-21 -138h-68l-7 -33q10 -3 22 -4t24 -1q42 0 62 28.5t32 85.5q6 27 6 46q0 43 -27.5 57.5t-82.5 14.5q-40 0 -96 -7t-108 -22l33 157q42 13 89.5 21.5t93.5 12.5t81 4q29 0 54 -2.5t47 -7.5h263l-47 -166h-65
q10 -27 10 -66q0 -10 -1 -20.5t-3 -21.5q-18 -92 -58 -153.5t-115 -92t-199 -30.5z" />
    <glyph glyph-name="uni0E30" unicode="&#xe30;" horiz-adv-x="327" 
d="M19 286l43 203h171l-10 -47h126l-40 -156h-290zM-34 35l43 203h171l-10 -47h126l-38 -156h-292z" />
    <glyph glyph-name="uni0E32" unicode="&#xe32;" horiz-adv-x="450" 
d="M138 0l59 282q2 8 3 15t1 14q0 22 -14.5 32.5t-50.5 10.5q-37 0 -73 -8.5t-65 -19.5l39 184q35 17 86.5 28.5t101.5 11.5q103 0 156 -42.5t53 -123.5q0 -15 -1.5 -31t-5.5 -33l-68 -320h-221z" />
    <glyph glyph-name="uni0E33" unicode="&#xe33;" horiz-adv-x="454" 
d="M-88 571q-55 0 -90.5 30.5t-35.5 81.5q0 15 3 31q14 64 64 103.5t119 39.5q56 0 90.5 -30.5t34.5 -81.5q0 -14 -3 -31q-13 -64 -60.5 -103.5t-121.5 -39.5zM-65 682q12 0 24 9.5t14 22.5q1 3 1 9q0 10 -6 16.5t-20 6.5q-12 0 -23.5 -9.5t-14.5 -22.5q-2 -13 3.5 -22.5
t21.5 -9.5zM142 0l59 282q3 17 3 28q0 23 -14 33.5t-50 10.5q-37 0 -73 -8.5t-65 -19.5l39 184q35 17 86.5 28.5t101.5 11.5q103 0 156 -42.5t53 -123.5q0 -15 -1.5 -31t-5.5 -33l-68 -320h-221z" />
    <glyph glyph-name="uni0E40" unicode="&#xe40;" horiz-adv-x="350" 
d="M86 0q-43 0 -65.5 21t-22.5 56q0 12 3 27l92 436h247l-77 -365q-1 -3 -1 -8q0 -17 20 -17h28l-31 -150h-193z" />
    <glyph glyph-name="uni0E41" unicode="&#xe41;" horiz-adv-x="650" 
d="M396 0q-43 0 -65.5 21t-22.5 56q0 12 3 27l92 436h237l-77 -365q-1 -3 -1 -8q0 -17 20 -17h28l-31 -150h-183zM86 0q-43 0 -65.5 21t-22.5 56q0 12 3 27l92 436h237l-77 -365q-1 -3 -1 -8q0 -17 20 -17h28l-31 -150h-183z" />
    <glyph glyph-name="uni0E42" unicode="&#xe42;" horiz-adv-x="354" 
d="M106 0q-43 0 -65.5 21t-22.5 56q0 12 3 27l90 422q4 17 4 34q0 64 -66 76l28 131h388l-32 -150h-97q12 -18 12 -47q0 -7 -1 -16t-3 -17l-77 -362q-1 -3 -1 -8q0 -17 20 -17h28l-31 -150h-177z" />
    <glyph glyph-name="uni0E43" unicode="&#xe43;" horiz-adv-x="332" 
d="M69 0q-43 0 -65.5 21t-22.5 56q0 12 3 27l61 296q7 33 23.5 58.5t35.5 45.5t34 36.5t18 31.5q5 20 -28 20q-26 0 -52.5 -7.5t-48.5 -19.5l33 157q87 45 204 45q77 0 119.5 -26.5t42.5 -78.5q0 -14 -3 -31q-8 -37 -29 -64.5t-45.5 -50.5t-44.5 -48.5t-27 -59.5l-47 -233
q-1 -3 -1 -8q0 -17 20 -17h28l-31 -150h-177z" />
    <glyph glyph-name="uni0E44" unicode="&#xe44;" horiz-adv-x="340" 
d="M93 0q-43 0 -65.5 21t-22.5 56q0 12 3 27l91 430q5 23 15.5 44.5t26.5 35.5h-97l32 150h385l-28 -131q-44 -7 -69 -34.5t-36 -75.5l-74 -348q-1 -3 -1 -8q0 -17 20 -17h28l-31 -150h-177z" />
    <glyph glyph-name="uni0E45" unicode="&#xe45;" horiz-adv-x="450" 
d="M103 -160l94 442q3 17 3 28q0 23 -14 33.5t-50 10.5q-37 0 -73 -8.5t-65 -19.5l39 184q35 17 86.5 28.5t101.5 11.5q103 0 156 -42.5t53 -123.5q0 -15 -1.5 -31t-5.5 -33l-103 -480h-221z" />
    <glyph glyph-name="uni210A" unicode="&#x210a;" horiz-adv-x="628" 
d="M140 -176q-16 0 -45 1.5t-57 4t-41 4.5l34 157q19 -5 51 -9t54 -4q77 0 117.5 8.5t44.5 28.5l2 9q-21 -7 -51 -12.5t-56 -5.5q-92 0 -143 37t-51 116q0 15 2 32t6 36q29 127 103.5 192t177.5 65q44 0 72 -11t50 -30l17 31h210l-85 -402q-16 -78 -60.5 -133.5t-129 -85
t-222.5 -29.5zM287 163q25 0 45 15l25 118q-7 8 -14 11.5t-21 3.5q-22 0 -40 -18.5t-27 -61.5q-2 -10 -3.5 -18.5t-1.5 -15.5q0 -21 10.5 -27.5t26.5 -6.5z" />
    <glyph glyph-name="zero" unicode="0" horiz-adv-x="680" 
d="M281 -10q-135 0 -200.5 58t-65.5 168q0 49 12 106q23 107 67 181t123.5 112.5t205.5 38.5q134 0 200 -58.5t66 -170.5q0 -47 -12 -103q-23 -107 -68.5 -181t-124.5 -112.5t-203 -38.5zM325 196q43 0 67.5 31t37.5 95q4 18 6 33t2 28q0 65 -59 65q-43 0 -67 -31t-38 -95
q-4 -18 -6 -33t-2 -28q0 -65 59 -65z" />
    <glyph glyph-name="one" unicode="1" horiz-adv-x="401" 
d="M68 0l89 419l-113 -16l43 201l362 50l-139 -654h-242z" />
    <glyph glyph-name="two" unicode="2" horiz-adv-x="535" 
d="M-41 0l22 107q40 47 84 86.5t99 79.5q65 48 96 74t37 54q1 4 1 11q0 36 -60 36q-45 0 -88.5 -10t-84.5 -26l43 201q48 19 110.5 30t127.5 11q101 0 156.5 -45t55.5 -119q0 -11 -1.5 -22.5t-3.5 -23.5q-9 -41 -24 -71t-41 -56.5t-68 -57.5q-25 -18 -53 -38.5t-42 -36.5
h178l-39 -184h-505z" />
    <glyph glyph-name="three" unicode="3" horiz-adv-x="550" 
d="M186 -10q-28 0 -70 5t-83.5 14t-67.5 20l39 183q40 -22 91 -31t90 -9q41 0 64 8t28 33q3 15 -8.5 24.5t-42.5 9.5h-118l48 153h97q29 0 42.5 9t17.5 28q4 16 -13 25.5t-59 9.5q-46 0 -96 -11.5t-86 -28.5l39 182q46 17 107.5 28.5t122.5 11.5q125 0 183.5 -42.5
t58.5 -110.5q0 -10 -1.5 -19.5t-3.5 -20.5q-9 -43 -30 -78t-50 -60q18 -13 29 -34t11 -51q0 -10 -1.5 -20.5t-3.5 -22.5q-23 -108 -110 -156.5t-224 -48.5z" />
    <glyph glyph-name="four" unicode="4" horiz-adv-x="559" 
d="M212 0l22 108h-273l33 153l389 383h207l-72 -342h54l-42 -194h-54l-22 -108h-242zM234 292h85l19 93z" />
    <glyph glyph-name="five" unicode="5" horiz-adv-x="535" 
d="M178 -10q-28 0 -66.5 4t-77.5 12.5t-67 21.5l40 184q21 -11 53.5 -20t65 -13.5t51.5 -4.5q47 0 67 15t20 43q0 29 -51 29h-199l20 95l78 288h451l-54 -184h-228l-11 -41h49q89 0 142 -39.5t53 -116.5q0 -23 -6 -52q-13 -64 -48 -114t-102.5 -78.5t-179.5 -28.5z" />
    <glyph glyph-name="six" unicode="6" horiz-adv-x="604" 
d="M245 -10q-118 0 -178 56t-60 147q0 16 1.5 32.5t5.5 33.5l23 110q17 81 61.5 145.5t124 102t199.5 37.5q57 0 99 -6.5t79 -23.5l-37 -175q-34 17 -70 24t-81 7q-61 0 -97.5 -19.5t-41.5 -39.5l-1 -6q21 11 56 18t65 7q95 0 144.5 -39t49.5 -116q0 -30 -7 -61
q-14 -67 -51 -120t-106 -83.5t-178 -30.5zM283 156q67 0 80 59q1 5 1.5 10.5t0.5 9.5q0 20 -12.5 30t-42.5 10q-16 0 -34.5 -5t-37.5 -13l-7 -32q-3 -13 -3 -25q0 -24 14 -34t41 -10z" />
    <glyph glyph-name="seven" unicode="7" horiz-adv-x="504" 
d="M-26 0l292 460h-220l39 184h494l-28 -133l-325 -511h-252z" />
    <glyph glyph-name="eight" unicode="8" horiz-adv-x="628" 
d="M254 -10q-260 0 -260 157q0 24 6 49q9 41 35.5 79t58.5 59q-28 34 -28 84q0 15 3 31q14 63 49 109t102 71t176 25q128 0 187 -42t59 -115q0 -11 -1 -23t-4 -25q-7 -31 -26.5 -63.5t-47.5 -54.5q39 -37 39 -97q0 -9 -1 -18.5t-3 -19.5q-14 -68 -50.5 -114t-106.5 -69
t-187 -23zM363 393q37 16 44 51q1 4 1 10q0 34 -48 34q-54 0 -63 -44q-1 -3 -1 -6.5v-6.5q0 -24 23 -29zM290 156q44 0 62.5 16.5t18.5 40.5q0 12 -8 21t-28 13l-55 12q-19 -5 -31 -17t-17 -33q-1 -4 -1.5 -7.5t-0.5 -6.5q0 -39 60 -39z" />
    <glyph glyph-name="nine" unicode="9" horiz-adv-x="604" 
d="M206 -10q-57 0 -98 5.5t-79 21.5l37 175q35 -16 70 -22t80 -6q66 0 100.5 20t38.5 39l1 6q-21 -10 -56 -17.5t-65 -7.5q-89 0 -141 40.5t-52 118.5q0 27 6 57q14 67 51 120t105.5 83.5t178.5 30.5q126 0 183.5 -46.5t57.5 -136.5q0 -19 -2.5 -41t-7.5 -45l-23 -110
q-28 -131 -121 -208t-264 -77zM318 369q17 0 35 5t37 13l7 32q3 15 3 26q0 23 -13 33t-42 10q-68 0 -80 -59q-3 -12 -3 -21q0 -19 13 -29t43 -10z" />
    <glyph glyph-name="uni2080" unicode="&#x2080;" horiz-adv-x="376" 
d="M104 -128q-76 0 -111.5 27t-35.5 78q0 10 1.5 20t3.5 21q15 71 64 108.5t140 37.5q77 0 112 -27t35 -77q0 -10 -1.5 -20.5t-3.5 -21.5q-15 -70 -64 -108t-140 -38zM126 -28q28 0 37 46q3 14 3 23q0 23 -21 23q-16 0 -24.5 -11.5t-13.5 -34.5q-3 -12 -3 -22q0 -24 22 -24z
" />
    <glyph glyph-name="uni2081" unicode="&#x2081;" horiz-adv-x="232" 
d="M-20 -120l26 123l-49 -10l27 128l231 43l-60 -284h-175z" />
    <glyph glyph-name="uni2082" unicode="&#x2082;" horiz-adv-x="314" 
d="M-66 -120l12 61q19 17 33.5 27t38.5 24q31 18 38.5 25t9.5 17q2 11 -6.5 14t-22.5 3q-13 0 -33 -5.5t-36 -13.5l23 109q24 8 64.5 15.5t80.5 7.5q60 0 91 -19.5t31 -52.5q0 -4 -0.5 -8t-1.5 -9q-5 -25 -16 -39.5t-29 -27.5l-31 -22h60l-23 -106h-283z" />
    <glyph glyph-name="uni2083" unicode="&#x2083;" horiz-adv-x="319" 
d="M62 -128q-12 0 -38 2t-51.5 6t-36.5 9l17 85q18 -10 40.5 -14t38.5 -4q37 0 40 15v3q0 9 -23 9h-51l20 71h44q14 0 19.5 2t5.5 11q0 11 -32 11q-20 0 -41.5 -4.5t-38.5 -12.5l19 85q14 5 37 9t48.5 6.5t44.5 2.5q72 0 104.5 -20.5t32.5 -52.5q0 -3 -0.5 -6.5t-1.5 -7.5
q-7 -36 -35 -59q8 -6 13 -14.5t5 -21.5q0 -4 -0.5 -9t-1.5 -10q-10 -46 -55.5 -68.5t-122.5 -22.5z" />
    <glyph glyph-name="uni2084" unicode="&#x2084;" horiz-adv-x="298" 
d="M30 -120l7 34h-116l21 97l153 153h157l-30 -145h29l-23 -105h-29l-7 -34h-162zM69 10h39l10 48z" />
    <glyph glyph-name="uni2085" unicode="&#x2085;" horiz-adv-x="308" 
d="M50 -128q-30 0 -63.5 4t-50.5 13l18 88q13 -7 36.5 -10.5t37.5 -3.5q35 0 39 19v4q0 13 -23 13h-85l9 41l31 114h254l-22 -84h-103l-4 -16h15q93 0 93 -60q0 -34 -17.5 -61.5t-57.5 -44t-107 -16.5z" />
    <glyph glyph-name="uni2086" unicode="&#x2086;" horiz-adv-x="322" 
d="M77 -128q-56 0 -89.5 23.5t-33.5 68.5q0 14 3 27l10 47q11 54 58.5 90t129.5 36q26 0 54.5 -3t44.5 -10l-17 -78q-14 8 -36.5 11t-42.5 3q-29 0 -47.5 -8.5t-20.5 -17.5v-1q10 6 27 9.5t32 3.5q99 0 99 -70q0 -65 -46.5 -98t-124.5 -33zM94 -55q31 0 35 26q1 2 1 5v4
q0 18 -24 18q-15 0 -31 -8l-3 -15q-1 -4 -1 -11q0 -19 23 -19z" />
    <glyph glyph-name="uni2087" unicode="&#x2087;" horiz-adv-x="297" 
d="M-41 -120l104 159h-106l24 115h287l-17 -79l-127 -195h-165z" />
    <glyph glyph-name="uni2088" unicode="&#x2088;" horiz-adv-x="341" 
d="M86 -128q-63 0 -100 19t-37 56q0 20 12.5 42.5t30.5 33.5q-13 16 -13 37q0 3 0.5 6.5t1.5 7.5q11 49 55.5 69.5t111.5 20.5q62 0 97 -16t35 -54v-9.5t-2 -10.5q-3 -13 -11.5 -27.5t-20.5 -24.5q18 -18 18 -43q0 -4 -0.5 -8t-1.5 -8q-10 -45 -58.5 -68t-117.5 -23zM134 49
q15 6 20 23v4q0 15 -21 15q-25 0 -28 -19q0 -1 -0.5 -2.5t-0.5 -3.5q0 -10 11 -13zM102 -55q32 0 35 20q0 2 0.5 3t0.5 2q0 12 -17 15l-24 5q-7 -2 -12.5 -7t-7.5 -15q-5 -23 25 -23z" />
    <glyph glyph-name="uni2089" unicode="&#x2089;" horiz-adv-x="322" 
d="M61 -128q-25 0 -53.5 3t-44.5 10l17 78q14 -7 36.5 -10.5t42.5 -3.5q29 0 47.5 8.5t19.5 17.5v1q-9 -6 -26 -9.5t-32 -3.5q-100 0 -100 70q0 13 3 28q11 51 56.5 77t114.5 26q56 0 88.5 -23.5t32.5 -67.5q0 -13 -3 -28l-10 -47q-11 -54 -58.5 -90t-130.5 -36zM111 38
q14 0 30 8l3 15q1 4 1.5 7t0.5 5q0 18 -23 18q-30 0 -36 -26q-1 -3 -1 -8q0 -19 25 -19z" />
    <glyph glyph-name="uni2070" unicode="&#x2070;" horiz-adv-x="376" 
d="M208 362q-76 0 -111.5 27t-35.5 77q0 10 1.5 20.5t3.5 21.5q15 71 64.5 108.5t140.5 37.5q76 0 111 -27t35 -77q0 -10 -1.5 -20.5t-3.5 -21.5q-15 -70 -64 -108t-140 -38zM230 462q28 0 37 46q3 14 3 23q0 23 -21 23q-16 0 -24.5 -11.5t-13.5 -34.5q-3 -12 -3 -22
q0 -24 22 -24z" />
    <glyph glyph-name="uni00B9" unicode="&#xb9;" horiz-adv-x="232" 
d="M84 370l26 123l-49 -10l27 128l232 43l-61 -284h-175z" />
    <glyph glyph-name="uni00B2" unicode="&#xb2;" horiz-adv-x="314" 
d="M37 370l13 61q19 17 33.5 27t38.5 24q31 18 38.5 25t9.5 17q2 11 -6.5 14t-22.5 3q-13 0 -32.5 -5.5t-36.5 -13.5l24 109q23 8 64 15.5t81 7.5q56 0 89 -20t33 -54q0 -4 -0.5 -7.5t-1.5 -7.5q-5 -25 -16.5 -39.5t-29.5 -27.5l-31 -22h60l-23 -106h-284z" />
    <glyph glyph-name="uni00B3" unicode="&#xb3;" horiz-adv-x="319" 
d="M166 362q-12 0 -38 2t-51.5 6t-37.5 9l18 85q18 -10 40.5 -14t38.5 -4q37 0 40 15v3q0 9 -23 9h-41l20 71h34q14 0 19.5 2t5.5 11q0 11 -32 11q-20 0 -41.5 -4.5t-37.5 -12.5l18 85q14 5 37.5 9t49 6.5t44.5 2.5q68 0 101.5 -21t33.5 -53v-6.5t-1 -6.5q-4 -19 -12.5 -32
t-22.5 -27q8 -6 13 -14.5t5 -21.5q0 -4 -0.5 -9t-1.5 -10q-10 -46 -55.5 -68.5t-122.5 -22.5z" />
    <glyph glyph-name="uni2074" unicode="&#x2074;" horiz-adv-x="298" 
d="M134 370l7 34h-117l21 97l155 153h157l-31 -145h29l-23 -105h-29l-7 -34h-162zM173 500h39l10 48z" />
    <glyph glyph-name="uni2075" unicode="&#x2075;" horiz-adv-x="308" 
d="M154 362q-30 0 -63.5 4t-51.5 13l19 88q14 -7 37 -10.5t37 -3.5q35 0 39 19v4q0 13 -23 13h-85l9 41l31 114h254l-21 -84h-103l-5 -16h15q47 0 70.5 -14.5t23.5 -46.5q0 -51 -41.5 -86t-141.5 -35z" />
    <glyph glyph-name="uni2076" unicode="&#x2076;" horiz-adv-x="322" 
d="M181 362q-55 0 -89 23.5t-34 67.5q0 13 3 28l10 47q11 54 59 90t130 36q26 0 54 -3t44 -10l-17 -78q-14 8 -36.5 11t-42.5 3q-29 0 -47 -8.5t-20 -17.5l-1 -1q10 6 27 9.5t32 3.5q100 0 100 -69q0 -65 -47 -98.5t-125 -33.5zM198 435q31 0 35 26q1 2 1 5v4q0 18 -24 18
q-14 0 -30 -8l-4 -15q-1 -4 -1 -11q0 -19 23 -19z" />
    <glyph glyph-name="uni2077" unicode="&#x2077;" horiz-adv-x="297" 
d="M63 370l104 159h-106l24 115h287l-16 -79l-128 -195h-165z" />
    <glyph glyph-name="uni2078" unicode="&#x2078;" horiz-adv-x="341" 
d="M190 362q-62 0 -99.5 18.5t-37.5 55.5q0 20 12.5 43t31.5 34q-13 14 -13 37v7t1 7q11 49 56 69.5t112 20.5q62 0 96.5 -16t34.5 -54v-9.5t-2 -10.5q-5 -30 -32 -52q18 -18 18 -43q0 -4 -0.5 -8t-1.5 -8q-10 -45 -58.5 -68t-117.5 -23zM238 539q17 7 20 23v4q0 15 -21 15
q-23 0 -28 -19q0 -1 -0.5 -2.5t-0.5 -3.5q0 -10 11 -13zM206 435q32 0 35 20q0 2 0.5 3t0.5 2q0 12 -17 15l-23 5q-17 -5 -21 -22q-5 -23 25 -23z" />
    <glyph glyph-name="uni2079" unicode="&#x2079;" horiz-adv-x="322" 
d="M165 362q-25 0 -53.5 3t-44.5 10l17 78q14 -7 36.5 -10.5t42.5 -3.5q29 0 47.5 8.5t19.5 17.5l1 1q-10 -6 -27 -9.5t-32 -3.5q-100 0 -100 69q0 65 48.5 98.5t126.5 33.5q56 0 88 -23t32 -67q0 -14 -3 -29l-10 -47q-11 -54 -58.5 -90t-130.5 -36zM215 528q14 0 30 8l4 15
q1 4 1 11q0 19 -23 19q-30 0 -36 -26q-1 -3 -1 -8q0 -19 25 -19z" />
    <glyph glyph-name="fraction" unicode="&#x2044;" horiz-adv-x="237" 
d="M-221 0l459 662h248l-459 -662h-248z" />
    <glyph glyph-name="onehalf" unicode="&#xbd;" horiz-adv-x="746" 
d="M84 370l26 123l-49 -10l27 128l232 43l-61 -284h-175zM15 0l470 644h228l-470 -644h-228zM391 0l12 61q19 17 33.5 27t38.5 24q31 18 38.5 25t9.5 17q2 11 -6 14t-22 3q-13 0 -33 -5.5t-36 -13.5l23 109q23 8 64 15.5t81 7.5q58 0 90 -19.5t32 -54.5q0 -4 -0.5 -7.5
t-1.5 -7.5q-5 -25 -16.5 -39.5t-28.5 -27.5l-32 -22h60l-22 -106h-284z" />
    <glyph glyph-name="uni2153" unicode="&#x2153;" horiz-adv-x="752" 
d="M84 370l26 123l-49 -10l27 128l232 43l-61 -284h-175zM15 0l470 644h228l-470 -644h-228zM520 -10q-12 0 -38 2t-51.5 6t-37.5 9l18 85q18 -10 40.5 -14t38.5 -4q37 0 40 15v3q0 9 -23 9h-51l20 71h44q14 0 19.5 2t5.5 11q0 11 -32 11q-20 0 -41.5 -4.5t-37.5 -12.5
l18 85q14 5 37 9t48.5 6.5t44.5 2.5q68 0 102 -21t34 -53v-6.5t-1 -6.5q-7 -36 -35 -59q8 -6 13 -14.5t5 -21.5q0 -4 -0.5 -9t-1.5 -10q-10 -46 -55.5 -68.5t-122.5 -22.5z" />
    <glyph glyph-name="uni2154" unicode="&#x2154;" horiz-adv-x="809" 
d="M37 370l13 61q19 17 33.5 27t38.5 24q31 18 38.5 25t9.5 17q2 11 -6.5 14t-22.5 3q-13 0 -32.5 -5.5t-36.5 -13.5l24 109q23 8 64 15.5t81 7.5q60 0 91 -19.5t31 -52.5q0 -4 -0.5 -8t-1.5 -9q-5 -25 -16.5 -39.5t-29.5 -27.5l-31 -22h60l-23 -106h-284zM72 0l470 644h228
l-470 -644h-228zM577 -10q-12 0 -38 2t-51.5 6t-37.5 9l18 85q18 -10 40.5 -14t38.5 -4q37 0 40 15v3q0 9 -23 9h-51l20 71h44q14 0 19.5 2t5.5 11q0 11 -32 11q-20 0 -41.5 -4.5t-37.5 -12.5l18 85q14 5 37 9t48.5 6.5t44.5 2.5q72 0 104.5 -20.5t32.5 -52.5
q0 -3 -0.5 -6.5t-1.5 -7.5q-7 -36 -35 -59q8 -6 13 -14.5t5 -21.5q0 -4 -0.5 -9t-1.5 -10q-10 -46 -55.5 -68.5t-122.5 -22.5z" />
    <glyph glyph-name="onequarter" unicode="&#xbc;" horiz-adv-x="713" 
d="M84 370l26 123l-49 -10l27 128l232 43l-61 -284h-175zM15 0l470 644h228l-470 -644h-228zM451 0l7 34h-117l20 97l155 153h157l-31 -145h29l-22 -105h-29l-7 -34h-162zM489 130h39l10 48z" />
    <glyph glyph-name="threequarters" unicode="&#xbe;" horiz-adv-x="739" 
d="M166 362q-12 0 -38 2t-51.5 6t-37.5 9l18 85q18 -10 40.5 -14t38.5 -4q37 0 40 15v3q0 9 -23 9h-51l20 71h44q14 0 19.5 2t5.5 11q0 11 -32 11q-20 0 -41.5 -4.5t-37.5 -12.5l18 85q14 5 37.5 9t49 6.5t44.5 2.5q72 0 104 -20.5t32 -51.5q0 -4 -0.5 -7.5t-1.5 -7.5
q-7 -36 -35 -59q8 -6 13 -14.5t5 -21.5q0 -4 -0.5 -9t-1.5 -10q-10 -46 -55.5 -68.5t-122.5 -22.5zM41 0l470 644h228l-470 -644h-228zM477 0l7 34h-117l20 97l155 153h157l-31 -145h29l-22 -105h-29l-7 -34h-162zM515 130h39l10 48z" />
    <glyph glyph-name="oneeighth" unicode="&#x215b;" horiz-adv-x="749" 
d="M84 370l26 123l-49 -10l27 128l232 43l-61 -284h-175zM15 0l470 644h228l-470 -644h-228zM519 -10q-62 0 -99.5 18.5t-37.5 55.5q0 20 12.5 43t30.5 34q-13 16 -13 37q0 3 0.5 6.5t1.5 7.5q11 49 55.5 69.5t111.5 20.5q62 0 97 -16t35 -54v-9.5t-2 -10.5
q-3 -13 -11.5 -27.5t-20.5 -24.5q18 -18 18 -43q0 -4 -0.5 -8t-1.5 -8q-10 -45 -58.5 -68t-117.5 -23zM567 167q17 7 20 23v4q0 15 -21 15q-25 0 -28 -19q0 -1 -0.5 -2.5t-0.5 -3.5q0 -10 11 -13zM535 63q32 0 35 20q0 2 0.5 3t0.5 2q0 12 -17 15l-24 5q-16 -5 -20 -22
q-5 -23 25 -23z" />
    <glyph glyph-name="threeeighths" unicode="&#x215c;" horiz-adv-x="776" 
d="M166 362q-12 0 -38 2t-51.5 6t-37.5 9l18 85q18 -10 40.5 -14t38.5 -4q37 0 40 15v3q0 9 -23 9h-51l20 71h44q14 0 19.5 2t5.5 11q0 11 -32 11q-20 0 -41.5 -4.5t-37.5 -12.5l18 85q14 5 37.5 9t49 6.5t44.5 2.5q72 0 104 -20.5t32 -51.5q0 -4 -0.5 -7.5t-1.5 -7.5
q-7 -36 -35 -59q8 -6 13 -14.5t5 -21.5q0 -4 -0.5 -9t-1.5 -10q-10 -46 -55.5 -68.5t-122.5 -22.5zM42 0l470 644h228l-470 -644h-228zM546 -10q-62 0 -99.5 18.5t-37.5 55.5q0 20 12.5 43t30.5 34q-13 16 -13 37q0 3 0.5 6.5t1.5 7.5q11 49 55.5 69.5t111.5 20.5
q62 0 97 -16t35 -54v-9.5t-2 -10.5q-3 -13 -11.5 -27.5t-20.5 -24.5q18 -18 18 -43q0 -4 -0.5 -8t-1.5 -8q-10 -45 -58.5 -68t-117.5 -23zM594 167q17 7 20 23v4q0 15 -21 15q-25 0 -28 -19q0 -1 -0.5 -2.5t-0.5 -3.5q0 -10 11 -13zM562 63q32 0 35 20q0 2 0.5 3t0.5 2
q0 12 -17 15l-24 5q-16 -5 -20 -22q-5 -23 25 -23z" />
    <glyph glyph-name="fiveeighths" unicode="&#x215d;" horiz-adv-x="757" 
d="M23 0l470 644h228l-470 -644h-228zM154 362q-30 0 -63.5 4t-51.5 13l19 88q14 -7 37 -10.5t37 -3.5q35 0 39 19v4q0 13 -23 13h-85l9 41l31 114h254l-21 -84h-103l-5 -16h15q47 0 70.5 -14.5t23.5 -46.5q0 -51 -41.5 -86t-141.5 -35zM527 -10q-62 0 -99.5 18.5
t-37.5 55.5q0 20 12.5 43t30.5 34q-13 16 -13 37q0 3 0.5 6.5t1.5 7.5q11 49 55.5 69.5t111.5 20.5q62 0 97 -16t35 -54v-9.5t-2 -10.5q-3 -13 -11.5 -27.5t-20.5 -24.5q18 -18 18 -43q0 -4 -0.5 -8t-1.5 -8q-10 -45 -58.5 -68t-117.5 -23zM575 167q17 7 20 23v4
q0 15 -21 15q-25 0 -28 -19q0 -1 -0.5 -2.5t-0.5 -3.5q0 -10 11 -13zM543 63q32 0 35 20q0 2 0.5 3t0.5 2q0 12 -17 15l-24 5q-16 -5 -20 -22q-5 -23 25 -23z" />
    <glyph glyph-name="seveneighths" unicode="&#x215e;" horiz-adv-x="748" 
d="M14 0l470 644h228l-470 -644h-228zM73 370l104 159h-106l24 115h287l-16 -79l-128 -195h-165zM518 -10q-62 0 -99.5 18.5t-37.5 55.5q0 20 12.5 43t30.5 34q-13 16 -13 37q0 3 0.5 6.5t1.5 7.5q11 49 55.5 69.5t111.5 20.5q62 0 97 -16t35 -54v-9.5t-2 -10.5
q-3 -13 -11.5 -27.5t-20.5 -24.5q18 -18 18 -43q0 -4 -0.5 -8t-1.5 -8q-10 -45 -58.5 -68t-117.5 -23zM566 167q17 7 20 23v4q0 15 -21 15q-25 0 -28 -19q0 -1 -0.5 -2.5t-0.5 -3.5q0 -10 11 -13zM534 63q32 0 35 20q0 2 0.5 3t0.5 2q0 12 -17 15l-24 5q-16 -5 -20 -22
q-5 -23 25 -23z" />
    <glyph glyph-name="uni0E50" unicode="&#xe50;" horiz-adv-x="608" 
d="M245 -10q-67 0 -122 21t-88 62.5t-33 105.5q0 29 7 58q20 87 67.5 141.5t118 80t155.5 25.5q67 0 122 -20t88 -62t33 -107q0 -26 -6 -58q-28 -131 -118.5 -189t-223.5 -58zM282 163q33 0 51 17t26 57q2 9 3 17t1 14q0 23 -11.5 33t-37.5 10q-31 0 -50.5 -17t-27.5 -57
q-3 -16 -3 -29q0 -45 49 -45z" />
    <glyph glyph-name="uni0E51" unicode="&#xe51;" horiz-adv-x="627" 
d="M225 -111l35 165q47 15 71 39t35.5 57t20.5 76q3 15 3 26q0 59 -70 59q-35 0 -56 -9t-27 -35q-1 -4 -1 -7v-6q0 -31 46 -31q35 0 64 14l-30 -142q-23 -12 -60 -20.5t-75 -8.5q-74 0 -123 35.5t-49 109.5q0 25 6 53q46 220 341 220q130 0 193 -45t63 -138q0 -19 -2.5 -39
t-7.5 -43q-26 -125 -122.5 -213.5t-254.5 -116.5z" />
    <glyph glyph-name="uni0E52" unicode="&#xe52;" horiz-adv-x="743" 
d="M335 -10q-93 0 -162 26.5t-107 75.5t-38 117q0 27 6 55l59 276h183l-53 -252q-6 -27 -6 -52q0 -52 33.5 -84t112.5 -32q59 0 91.5 16.5t47 38.5t17.5 38l23 108q1 3 1 7q0 13 -15 13q-8 0 -14 -6.5t-8 -16.5l-3 -16h-75l4 18q0 2 0.5 4t0.5 3q0 14 -12 14q-22 0 -30 -39
q-1 -3 -1 -6v-5q0 -24 42 -24q28 0 52 9l-24 -116q-19 -10 -46.5 -15t-53.5 -5q-58 0 -91.5 23.5t-33.5 82.5q0 13 1.5 28t5.5 31q21 97 64 138t105 41q32 0 55 -9.5t33 -35.5q26 26 57 35.5t66 9.5q56 0 81.5 -25t25.5 -72q0 -24 -6 -51l-23 -110q-14 -68 -51.5 -121.5
t-112.5 -84t-201 -30.5z" />
    <glyph glyph-name="uni0E53" unicode="&#xe53;" horiz-adv-x="662" 
d="M188 -10q-82 0 -135.5 41.5t-53.5 127.5q0 15 1.5 31.5t5.5 34.5q29 137 94 198t153 61q37 0 65 -12t44 -39q32 28 73 39.5t76 11.5q62 0 97 -36.5t35 -89.5q0 -8 -1 -16.5t-3 -17.5l-68 -324h-205l57 269q0 2 0.5 3t0.5 2q0 8 -5.5 11t-13.5 3t-16 -6.5t-10 -16.5
l-11 -53h-115l11 55q1 2 1 6q0 15 -15 15t-25.5 -18t-16.5 -48q-3 -13 -3 -25q0 -22 15.5 -31t49.5 -9q17 0 40 2t34 5l-33 -155q-23 -8 -52.5 -13.5t-70.5 -5.5z" />
    <glyph glyph-name="uni0E54" unicode="&#xe54;" horiz-adv-x="612" 
d="M200 -10q-87 0 -143.5 46t-56.5 134q0 30 7 61q18 86 60 142t120 83.5t202 27.5q83 0 147.5 8.5t118.5 34.5l-34 -158q-43 -19 -100 -29.5t-136 -10.5q-69 0 -105.5 -24.5t-49.5 -84.5q-1 -9 -2.5 -16.5t-1.5 -14.5q0 -24 9 -36t20 -12h7l3 17q33 155 210 155
q39 0 65.5 -4.5t57.5 -18.5l-26 -122q-33 15 -72 15q-44 0 -49 -25q0 -1 -0.5 -2.5t-0.5 -2.5q0 -17 23 -17h116l-28 -136h-120q-33 0 -60 3.5t-49 10.5q-34 -13 -66.5 -18.5t-65.5 -5.5z" />
    <glyph glyph-name="uni0E55" unicode="&#xe55;" horiz-adv-x="612" 
d="M200 -10q-88 0 -143.5 47t-55.5 135q0 28 6 59q17 83 67.5 136.5t144.5 90.5q-22 14 -31 26l69 95q39 -37 94 -65t125 -28q53 0 96.5 11t82.5 30l-34 -158q-43 -19 -100 -29.5t-136 -10.5q-69 0 -105.5 -24.5t-49.5 -84.5q-1 -9 -2.5 -16.5t-1.5 -14.5q0 -24 9 -36
t20 -12h15l2 17q9 79 61 117t142 38q39 0 65.5 -4.5t57.5 -18.5l-26 -122q-33 15 -72 15q-44 0 -49 -25q0 -1 -0.5 -2.5t-0.5 -2.5q0 -17 23 -17h116l-28 -136h-120q-33 0 -60 3.5t-49 10.5q-34 -13 -66.5 -18.5t-65.5 -5.5z" />
    <glyph glyph-name="uni0E56" unicode="&#xe56;" horiz-adv-x="639" 
d="M261 -10q-52 0 -98.5 8.5t-87.5 29.5l36 167q38 -18 83 -25t82 -7q44 0 75 18.5t39 56.5q1 5 1.5 10t0.5 9q0 24 -15 39t-47 15q-35 0 -63 -20t-43 -62h-134l-37 311h196l6 -102q29 23 76.5 34.5t87.5 11.5q104 0 155 -51t51 -132q0 -15 -1.5 -30.5t-5.5 -32.5
q-25 -121 -111.5 -184.5t-245.5 -63.5z" />
    <glyph glyph-name="uni0E57" unicode="&#xe57;" horiz-adv-x="850" 
d="M188 -10q-82 0 -135.5 42.5t-53.5 128.5q0 15 1.5 31t5.5 33q29 137 92.5 198t151.5 61q37 0 63 -11.5t46 -39.5q32 28 68 39.5t71 11.5q62 0 89.5 -26t27.5 -73q0 -22 -6 -49l-35 -163h9q12 0 19.5 5.5t10.5 20.5l72 341h188l-68 -319q-22 -108 -81 -164.5t-179 -56.5
h-190l55 260q1 3 1 7q0 12 -15 12q-8 0 -14 -6.5t-8 -16.5l-9 -44h-115l9 46q1 4 1 10q0 11 -10 11q-15 0 -22 -13.5t-13 -43.5q-3 -15 -3 -26q0 -20 13.5 -29.5t44.5 -9.5q13 0 36.5 2.5t35.5 6.5l-33 -154q-22 -10 -52.5 -16t-68.5 -6z" />
    <glyph glyph-name="uni0E58" unicode="&#xe58;" horiz-adv-x="619" 
d="M133 -10q-65 0 -100.5 41.5t-35.5 114.5q0 17 2 36t6 39q14 64 40 113t71 82.5t115 50.5t172 17q83 0 141.5 8.5t112.5 34.5l-34 -158q-43 -19 -107 -29.5t-141 -10.5q-87 0 -124 -25.5t-50 -82.5q-4 -17 -5.5 -30t-1.5 -22q0 -15 4.5 -20.5t14.5 -5.5q12 0 21 6.5
t11 16.5l15 71h115l-16 -73q0 -1 -0.5 -2.5t-0.5 -2.5q0 -16 21 -16t31 14l7 39h-32l34 113h194l-54 -255q-29 -31 -64.5 -47.5t-94.5 -16.5q-42 0 -72 11.5t-50 39.5q-32 -28 -65 -39.5t-80 -11.5z" />
    <glyph glyph-name="uni0E59" unicode="&#xe59;" horiz-adv-x="754" 
d="M153 -10q-67 0 -111 38t-44 120q0 35 9 78q28 132 90 195t168 63q44 0 68 -14t33 -40q23 29 60 41.5t74 12.5q58 0 81 -22.5t23 -52.5v-7.5t-1 -7.5l-1 -7h3q11 0 18 10.5t16 50.5l15 72h159l-8 -40q-19 -91 -46 -145t-72.5 -78t-121.5 -24h-97l10 46q2 5 2 10v9
q0 21 -17 21q-22 0 -22 -34q0 -2 0.5 -5.5t0.5 -6.5l25 -273h-184l-28 297q-1 12 -4.5 17t-13.5 5q-13 0 -23 -21t-22 -77q-6 -28 -6 -45q0 -24 9 -32.5t24 -8.5q14 0 38 7l-31 -145q-16 -4 -33 -5.5t-40 -1.5z" />
    <glyph glyph-name="period" unicode="." horiz-adv-x="216" 
d="M-41 0l35 169h186l-35 -169h-186z" />
    <glyph glyph-name="comma" unicode="," horiz-adv-x="266" 
d="M-66 -120l89 249h199l-118 -249h-170z" />
    <glyph glyph-name="colon" unicode=":" horiz-adv-x="215" 
d="M25 311l36 171h185l-36 -171h-185zM-39 14l37 171h185l-37 -171h-185z" />
    <glyph glyph-name="semicolon" unicode=";" horiz-adv-x="266" 
d="M71 311l36 171h185l-36 -171h-185zM-66 -120l89 249h199l-118 -249h-170z" />
    <glyph glyph-name="ellipsis" unicode="&#x2026;" horiz-adv-x="654" 
d="M397 0l35 169h186l-35 -169h-186zM-41 0l35 169h186l-35 -169h-186zM178 0l35 169h186l-35 -169h-186z" />
    <glyph glyph-name="exclam" unicode="!" horiz-adv-x="280" 
d="M12 199l49 265l38 180h242l-38 -180l-63 -265h-228zM-41 0l35 167h250l-35 -167h-250z" />
    <glyph glyph-name="exclamdown" unicode="&#xa1;" horiz-adv-x="280" 
d="M24 307l35 167h250l-35 -167h-250zM-73 -170l38 180l63 265h228l-49 -265l-38 -180h-242z" />
    <glyph glyph-name="question" unicode="?" horiz-adv-x="510" 
d="M96 199l3 15q7 31 17.5 51.5t30 38.5t52.5 42q35 26 60 45t25 50q0 40 -76 40q-43 0 -85.5 -12.5t-70.5 -27.5l36 167q47 23 107.5 34.5t120.5 11.5q102 0 163 -44t61 -117q0 -65 -33 -113t-86 -85q-35 -25 -66.5 -43.5t-37.5 -44.5l-1 -8h-220zM39 0l35 167h250
l-35 -167h-250z" />
    <glyph glyph-name="questiondown" unicode="&#xbf;" horiz-adv-x="510" 
d="M174 307l35 167h250l-35 -167h-250zM182 -180q-102 0 -163 44t-61 117q0 67 32.5 114t86.5 84q35 25 66.5 44t37.5 44l1 8h220l-3 -15q-6 -31 -16.5 -51.5t-30.5 -38.5t-53 -42q-34 -25 -59.5 -44.5t-25.5 -50.5q0 -40 76 -40q43 0 85.5 12.5t70.5 27.5l-36 -167
q-47 -22 -107.5 -34t-120.5 -12z" />
    <glyph glyph-name="periodcentered" unicode="&#xb7;" horiz-adv-x="216" 
d="M2 203l36 169h186l-36 -169h-186z" />
    <glyph glyph-name="bullet" unicode="&#x2022;" horiz-adv-x="317" 
d="M132 144q-52 0 -84 31.5t-32 79.5q0 8 1.5 16t2.5 16q9 40 34.5 72.5t62 52t76.5 19.5q53 0 85 -32t32 -82q0 -15 -3 -30q-9 -40 -35.5 -72.5t-63 -51.5t-76.5 -19z" />
    <glyph glyph-name="asterisk" unicode="*" horiz-adv-x="458" 
d="M179 266l-121 105l85 66l-85 39l100 135l55 -39l8 72h176l-22 -72l71 39l40 -142l-101 -39l57 -66l-149 -98l-40 82z" />
    <glyph glyph-name="numbersign" unicode="#" horiz-adv-x="722" 
d="M-34 0l71 136h-50l33 153h98l35 68h-81l33 154h129l70 133h206l-70 -133h72l70 133h205l-70 -133h42l-33 -154h-90l-35 -68h74l-33 -153h-122l-71 -136h-205l71 136h-73l-71 -136h-205zM323 289h73l35 68h-72z" />
    <glyph glyph-name="slash" unicode="/" horiz-adv-x="512" 
d="M-41 0l374 662h248l-374 -662h-248z" />
    <glyph glyph-name="backslash" unicode="\" horiz-adv-x="534" 
d="M200 -54l-101 716h252l100 -716h-251z" />
    <glyph glyph-name="uni208D" unicode="&#x208d;" horiz-adv-x="238" 
d="M-21 -146q-25 39 -25 95q0 16 2 32.5t6 34.5q11 53 33 93.5t53 68.5h156q-41 -33 -64 -74t-33 -88q-3 -15 -5 -29.5t-2 -28.5q0 -60 35 -104h-156z" />
    <glyph glyph-name="uni208E" unicode="&#x208e;" horiz-adv-x="238" 
d="M-72 -146q41 33 64 74.5t33 87.5q6 30 6 58q0 29 -8 55.5t-27 48.5h156q12 -19 19 -42.5t7 -52.5q0 -16 -2 -32.5t-6 -34.5q-11 -52 -33 -92.5t-54 -69.5h-155z" />
    <glyph glyph-name="parenleft" unicode="(" horiz-adv-x="406" 
d="M65 -72q-28 43 -44 98.5t-16 123.5q0 71 18 153q26 122 78.5 216.5t123.5 158.5h274q-97 -76 -151.5 -172t-77.5 -203q-7 -34 -11 -66.5t-4 -64.5q0 -68 20 -129.5t64 -114.5h-274z" />
    <glyph glyph-name="parenright" unicode=")" horiz-adv-x="406" 
d="M-76 -72q97 77 151.5 172.5t76.5 202.5q7 34 11 67t4 64q0 68 -20 130t-64 114h274q29 -43 44 -99t15 -124q0 -34 -4 -72.5t-13 -79.5q-26 -122 -78.5 -216t-123.5 -159h-273z" />
    <glyph glyph-name="braceleft" unicode="{" horiz-adv-x="349" 
d="M118 -104q-53 0 -86 30.5t-33 86.5q0 10 1.5 21t3.5 23l21 101q3 15 3 27q0 39 -41 45l29 136q28 4 45 21t24 52l21 101q11 51 31.5 87t57 55t95.5 19h147l-40 -184h-33q-30 0 -38 -33l-19 -90q-7 -34 -23.5 -56.5t-38.5 -39.5q11 -13 18 -28t7 -37q0 -7 -1 -15t-3 -16
l-18 -89q-1 -4 -1 -10q0 -23 25 -23h33l-40 -184h-147z" />
    <glyph glyph-name="braceright" unicode="}" horiz-adv-x="349" 
d="M-73 -104l39 184h33q31 0 38 33l18 89q8 35 24.5 57.5t38.5 38.5q-10 13 -17.5 28.5t-7.5 37.5q0 14 3 30l19 90q1 4 1 10q0 23 -25 23h-33l40 184h147q62 0 91.5 -27.5t29.5 -78.5q0 -12 -2 -26t-5 -29l-21 -101q-3 -16 -3 -28q0 -39 40 -45l-29 -136q-28 -4 -44 -20.5
t-24 -51.5l-21 -101q-11 -51 -31 -87t-56 -55t-97 -19h-146z" />
    <glyph glyph-name="bracketleft" unicode="[" horiz-adv-x="396" 
d="M-62 -99l171 805h369l-34 -184h-133l-92 -437h134l-46 -184h-369z" />
    <glyph glyph-name="bracketright" unicode="]" horiz-adv-x="396" 
d="M-66 -99l33 184h134l92 437h-133l46 184h369l-172 -805h-369z" />
    <glyph glyph-name="uni207D" unicode="&#x207d;" horiz-adv-x="238" 
d="M85 352q-25 39 -25 94q0 16 2 32.5t6 35.5q11 53 33 93.5t53 68.5h156q-41 -33 -64 -74t-33 -88q-3 -15 -5 -29.5t-2 -28.5q0 -60 35 -104h-156z" />
    <glyph glyph-name="uni207E" unicode="&#x207e;" horiz-adv-x="238" 
d="M33 352q42 33 65 74.5t33 87.5q6 30 6 58q0 29 -8 55.5t-27 48.5h156q12 -19 19 -42.5t7 -52.5q0 -16 -2 -32.5t-6 -34.5q-11 -52 -33.5 -92.5t-53.5 -69.5h-156z" />
    <glyph glyph-name="hyphen" unicode="-" horiz-adv-x="434" 
d="M2 205l39 184h404l-39 -184h-404z" />
    <glyph glyph-name="uni00AD" unicode="&#xad;" horiz-adv-x="434" 
d="M2 205l39 184h404l-39 -184h-404z" />
    <glyph glyph-name="endash" unicode="&#x2013;" horiz-adv-x="536" 
d="M2 205l39 184h506l-39 -184h-506z" />
    <glyph glyph-name="emdash" unicode="&#x2014;" horiz-adv-x="770" 
d="M2 205l39 184h740l-39 -184h-740z" />
    <glyph glyph-name="figuredash" unicode="&#x2012;" horiz-adv-x="560" 
d="M2 205l39 184h530l-39 -184h-530z" />
    <glyph glyph-name="uni2015" unicode="&#x2015;" horiz-adv-x="808" 
d="M2 205l39 184h778l-39 -184h-778z" />
    <glyph glyph-name="uni2010" unicode="&#x2010;" horiz-adv-x="477" 
d="M2 205l39 184h447l-39 -184h-447z" />
    <glyph glyph-name="underscore" unicode="_" horiz-adv-x="508" 
d="M-73 -154l32 154h478l-33 -154h-477z" />
    <glyph glyph-name="quotesinglbase" unicode="&#x201a;" horiz-adv-x="297" 
d="M-87 -220l121 253h199l-140 -253h-180z" />
    <glyph glyph-name="quotedblbase" unicode="&#x201e;" horiz-adv-x="474" 
d="M136 -94l121 253h179l-139 -253h-161zM-60 -94l120 253h179l-139 -253h-160z" />
    <glyph glyph-name="quotedblleft" unicode="&#x201c;" horiz-adv-x="474" 
d="M241 401l140 253h161l-122 -253h-179zM44 401l140 253h161l-122 -253h-179z" />
    <glyph glyph-name="quotedblright" unicode="&#x201d;" horiz-adv-x="474" 
d="M241 401l122 253h179l-140 -253h-161zM44 401l122 253h179l-140 -253h-161z" />
    <glyph glyph-name="quoteleft" unicode="&#x2018;" horiz-adv-x="297" 
d="M44 401l140 253h181l-122 -253h-199z" />
    <glyph glyph-name="quoteright" unicode="&#x2019;" horiz-adv-x="297" 
d="M44 401l122 253h199l-140 -253h-181z" />
    <glyph glyph-name="guillemotleft" unicode="&#xab;" horiz-adv-x="718" 
d="M564 37l-234 205l17 82l322 205l62 -138l-180 -115l131 -115zM244 37l-234 205l17 82l322 205l62 -138l-180 -115l131 -115z" />
    <glyph glyph-name="guillemotright" unicode="&#xbb;" horiz-adv-x="718" 
d="M376 37l-62 138l181 115l-132 115l118 124l234 -205l-17 -82zM56 37l-62 138l181 115l-132 115l118 124l234 -205l-17 -82z" />
    <glyph glyph-name="guilsinglleft" unicode="&#x2039;" horiz-adv-x="398" 
d="M244 37l-234 205l17 82l322 205l62 -138l-180 -115l131 -115z" />
    <glyph glyph-name="guilsinglright" unicode="&#x203a;" horiz-adv-x="398" 
d="M56 37l-62 138l181 115l-132 115l118 124l234 -205l-17 -82z" />
    <glyph glyph-name="quotedbl" unicode="&#x22;" horiz-adv-x="449" 
d="M267 395l53 249h194l-69 -249h-178zM42 395l53 249h194l-70 -249h-177z" />
    <glyph glyph-name="quotesingle" unicode="'" horiz-adv-x="224" 
d="M42 395l53 249h194l-70 -249h-177z" />
    </font>
</defs>
</svg>
